<mxfile host="65bd71144e">
    <diagram id="PJlhGB8cS9PyJxZl_OeD" name="Page-1">
        <mxGraphModel dx="1493" dy="1284" grid="1" gridSize="10" guides="1" tooltips="1" connect="1" arrows="1" fold="1" page="1" pageScale="1" pageWidth="850" pageHeight="1100" math="0" shadow="0">
            <root>
                <mxCell id="0"/>
                <mxCell id="1" parent="0"/>
                <mxCell id="2" value="System Overview&lt;br&gt;" style="text;html=1;align=center;verticalAlign=middle;resizable=0;points=[];autosize=1;strokeColor=none;fillColor=none;" parent="1" vertex="1">
                    <mxGeometry x="365" y="40" width="120" height="30" as="geometry"/>
                </mxCell>
                <mxCell id="55" value="" style="group" parent="1" vertex="1" connectable="0">
                    <mxGeometry x="50" y="120" width="240" height="250" as="geometry"/>
                </mxCell>
                <mxCell id="13" value="Client GUI" style="whiteSpace=wrap;html=1;container=0;" parent="55" vertex="1">
                    <mxGeometry width="240" height="30.612244897959187" as="geometry"/>
                </mxCell>
                <mxCell id="14" value="Controller" style="whiteSpace=wrap;html=1;container=0;" parent="55" vertex="1">
                    <mxGeometry y="51.0204081632653" width="240" height="30.612244897959187" as="geometry"/>
                </mxCell>
                <mxCell id="15" value="" style="edgeStyle=none;html=1;" parent="55" source="13" target="14" edge="1">
                    <mxGeometry relative="1" as="geometry"/>
                </mxCell>
                <mxCell id="16" value="Service Layer" style="whiteSpace=wrap;html=1;container=0;" parent="55" vertex="1">
                    <mxGeometry y="107.14285714285717" width="240" height="30.612244897959187" as="geometry"/>
                </mxCell>
                <mxCell id="17" value="" style="edgeStyle=none;html=1;" parent="55" source="14" target="16" edge="1">
                    <mxGeometry relative="1" as="geometry"/>
                </mxCell>
                <mxCell id="18" value="DAO" style="whiteSpace=wrap;html=1;container=0;" parent="55" vertex="1">
                    <mxGeometry y="163.26530612244903" width="240" height="30.612244897959187" as="geometry"/>
                </mxCell>
                <mxCell id="19" value="" style="edgeStyle=none;html=1;" parent="55" source="16" target="18" edge="1">
                    <mxGeometry relative="1" as="geometry"/>
                </mxCell>
                <mxCell id="20" value="DB" style="whiteSpace=wrap;html=1;container=0;" parent="55" vertex="1">
                    <mxGeometry y="219.38775510204084" width="240" height="30.612244897959187" as="geometry"/>
                </mxCell>
                <mxCell id="21" value="" style="edgeStyle=none;html=1;" parent="55" source="18" target="20" edge="1">
                    <mxGeometry relative="1" as="geometry"/>
                </mxCell>
                <mxCell id="91" value="API Operations UI" style="whiteSpace=wrap;html=1;" parent="1" vertex="1">
                    <mxGeometry x="305" y="420" width="240" height="40" as="geometry"/>
                </mxCell>
                <mxCell id="134" value="Controller&lt;br&gt;&lt;pre style=&quot;color: rgb(169, 183, 198); font-size: 13.0667px; text-align: left;&quot;&gt;&lt;span style=&quot;color: rgb(106, 135, 89);&quot;&gt;api/v1/images&lt;/span&gt;&lt;/pre&gt;" style="whiteSpace=wrap;html=1;" parent="1" vertex="1">
                    <mxGeometry x="425" y="180" width="240" height="70" as="geometry"/>
                </mxCell>
                <mxCell id="135" value="" style="sketch=0;outlineConnect=0;fontColor=#232F3E;gradientColor=none;fillColor=#B0084D;strokeColor=none;dashed=0;verticalLabelPosition=bottom;verticalAlign=top;align=center;html=1;fontSize=12;fontStyle=0;aspect=fixed;pointerEvents=1;shape=mxgraph.aws4.endpoint;rotation=90;" parent="1" vertex="1">
                    <mxGeometry x="520" y="290" width="50" height="50" as="geometry"/>
                </mxCell>
                <mxCell id="136" style="edgeStyle=none;html=1;" parent="1" source="134" target="135" edge="1">
                    <mxGeometry relative="1" as="geometry"/>
                </mxCell>
                <mxCell id="164" value="" style="group" vertex="1" connectable="0" parent="1">
                    <mxGeometry x="78" y="500" width="695" height="550" as="geometry"/>
                </mxCell>
                <mxCell id="163" value="" style="whiteSpace=wrap;html=1;" parent="164" vertex="1">
                    <mxGeometry x="335" width="360" height="390" as="geometry"/>
                </mxCell>
                <mxCell id="106" value="" style="shape=image;verticalLabelPosition=bottom;labelBackgroundColor=default;verticalAlign=top;aspect=fixed;imageAspect=0;image=data:image/png,iVBORw0KGgoAAAANSUhEUgAAAgAAAAIACAYAAAD0eNT6AAAABHNCSVQICAgIfAhkiAAAAAlwSFlzAAAN1wAADdcBQiibeAAAABl0RVh0U29mdHdhcmUAd3d3Lmlua3NjYXBlLm9yZ5vuPBoAACAASURBVHic7N15nBxHfTf+T3X3zN6rvXdl3fd9WPIlyQdgwGDANlfMMWMMBD8mMCQThgQeCJhjnHDaikIOeH4PSSQgkDwOCQRICDjGtizj+5ItWfdhae+dnXu6u+r3R0u2JO/MzkxXd9XM1vv18kuWtFv11W5v17erq75FGGNQFEVRFGVm0UQHoCiKoiiK/1QCoCiKoigzkEoAFEVRFGUGMkQHoIgXjcU1ANcDuBHAYgCLAMyDuj4UxXeFQv6+xPj4NRybtAAcB3AYwCEA/wbg57t27qAc+1BqEFGLAGeuaCzeDOBjAD4KZ9BXFEW8sZGhwVbGWNDDPg4D+BsA3961c0fGw34UiakEYIaKxuLLAfw/AGtFx6IoyvlSyeTubCa91YeungXwzl07d+z3oS9FMmoNwAwUjcXfAeBRqMFfUaTU3NLS4lNXawE8GgpH3uFTf4pE1AzADBONxa8EcC/U+31Fkdr46Mhhy7L8ejVnAXjtrp07HvCpP0UCagZgBonG4v0AfgQ1+CuK9Frb2o/52J0B4EehcKTfxz4VwVQCMLPsAnCR6CAURZleIBhcTwjJ+9jlRXDuEcoMoRKAGSIai98M4PWi41AUpWydTc3Nj/rc5+tD4cjNPvepCKISgBkgGos3Afia6DgURalMc3NLm4BuvxYKR5oE9Kv4TCUAM8OnAMwXHYSiKJUhmrbeMAIHfe52Ppx7hlLn1C6AOheNxecC2AegWXQsiqJUziwU7psYH+NZGbAcGQArdu3cccLnfhUfqRmA+vc1qMFfUWpWIBjcQAjJ+txtM9Rrw7qnEoA6Fo3FtwJ4r+g4FEVxpaOxqfkJAf2+NxSO+FGNUBFEJQB1KhqLEwDbRcehKIp7zc3NAUFdbw+FI0RQ34rHVAJQv24FcInoIBRFcU/T9Y2apo0L6PoSOPcSpQ6pRYB1KBqLtwHYD2BAdCyKovCRSafvT6eSVwno+jSA5bt27kgK6FvxkJoBqE+fhRr8FaWuNDY1tQvqegDOPUWpM2oGoM5EY/ElAJ4D0CA6FkVRuGJjI8OnbdueLaDvPIA1u3bu8LsmgeIhNQNQf74JNfgrSj0izS2t+wX13QDn3qLUEZUA1JFoLH4tgBtFx6EoijcaGhtFntZ3YygcuVZg/wpnKgGoE9FYXAdwt+g4FEXxDiFkpWEYhwSGcHcoHNEF9q9wpBKA+nE7gLWig1AUxVvNra3HBHa/Fs69RqkDahFgHYjG4p0ADgDoEh2LoigeY+zo8NDgAoERjAFYumvnDhF1CRSO1AxAffgi1OCvKDMDIQsCweBzAiPognPPUWqcSgBqXDQWXw3go6LjUBTFPy0trSOCQ/hoKBxZLTgGxSWVANS+uwEYooNQFMU/gWBwseAQDKhFxzVPJQA1LBqLvw3AG0THoSiK7+YZgcABwTG8IRSOvE1wDIoLKgGoUdFYPAjgW6LjUBRFjKbm5hOiYwDwrVA4EhQdhFIdlQDUrj8EsFR0EIqiiNHQ0NgrOgY496A/FB2EUh21DbAGRWPxfjin/Yk6HERRFPHY6PDQMKW0T3Ack3BOCxwUHIdSITUDUJviUIO/osx0pKm5eZ/oIODci+Kig1AqpxKAGhONxTcB+KDoOBRFEa+xsUmWg78+GApHNokOQqmMSgBqz3ao75uiKAA0XV9HCMmIjgPOPWm76CCUyqiBpIZEY/GbAVwpOg5FUaTR1NDY+IzoIM64MhSO3Cw6CKV8ahFgjYjG4k0AXgAwX3Qs07FtG9S2RYehKHVD13Vo+tSH8FmW+cD46KgsDwbHAKzctXNHVnQgyvRUBbna8SeQfPBPp1LI53KwbUt0KIpSd3TDQENDI1paW8/7c8MIrARAIceM7nw49yp1VkANUDMANSAai8+D8/TfLDqWYpKTCeSyKulXFK81NjWjrf38TUCJ8bFnC4WCLMeBZ+DMAhwXHYhSmgwZozK9r0LiwT+dSqrBX1F8kstmkEmnzvuzxuZm0YcDnasZzj1LkZxKACQXjcW3AXiv6DiKsW0bmYwMi5AVZebIpNOwz1lnEwwEZTsO/L2hcGSb6CCU0lQCILFoLE4g+daaVHISUK+RFMVXjDGkU8mXf080bRUhJC0wpKlsD4UjRHQQSnEqAZDbBwFsFh1EMYVCHoV8XnQYijIj5XM5mIXC2d8Ggg0NL4iMZwqboYqWSU0lAJKKxuJtAO4UHUcpqWRy+g9SFMUz5/4MNjY2pUp8qCh3hsKRNtFBKFNTCYC8PgegX3QQxWQzGdiW2u6nKCJZlolc1lmDEwgGewSHM5V+OPcyRUJqG6CEorH4EgB7AUh5zjalFGOjI2CUig5FUWY8TdPQ1dMLQog9MjSYYYzJ9sRdALB6184dB0UHopxPzQDI6ZuQdPAHgEw6pQZ/RZEEpRTpVAoA9IbGRtnWAQDOveybooNQXk0lAJKJxuKvB3Cj6DiKsSwLWbXtT1Gkks2kYdsWGhqbZP3hvDEUjrxedBDK+VQCIJFoLK4DuFt0HKWkkpOiQ1AUZQqpZBKBQGBAdBwl3B0KR6Y+0EARQiUAcvkogDWigygmnz9v25GiKBIp5PMwC4XlmqaNi46liDVw7nGKJNQiQElEY/EuAC8CkK2iFwCn8Mj46Mh51ccURZGLbhgIBoK/y2Yzl4mOpYgxAMt27dwxJjoQRc0AyOSLkHTwB85s+1ODv6JIzbYsMLBu0XGU0AV1UqA01AyABKKx+BoAT0LS45kppRgbGYa6VhRFfrqu50zTzGiaJusDhQVg466dO54THchMp2YA5HAXJB38Aee0PzX4K0ptsG27MZWcfFZ0HCUYcO55imAqARAsGovfAOANouMoxjJNddSvotQaQuZYpvmi6DBKeEMoHLlBdBAznUoABIrG4tIXyFDb/hSl9jQ2NrFEYkK20wEv9M1QOCJtwbOZQCUAYv0RgKWigygmn8vCNE3RYSiKUqFgMNhGKd2YzWb3iI6lhKVw7oGKIGoRoCDRWLwfzrY/2ep2A3C2/Y2NjoCqlf+KUnM0TSsMnj4VBHC8p7evjxDSIDqmIpJwtgUOig5kJlIzAOLcCUkHfwDIpNNq8FeUGkUpDRJC0gDmpZKTD4mOpwTpjz2vZyoBECAai28GcKvoOIqxbRvZjOyvDxVFKaWhofE0AORyuUsppTI/Yd8aCkc2iw5iJlIJgBjbIfHXXm37U5Ta19jUdPZ/WxIT4wdExjINDc49UfGZtINQvYrG4u8BsE10HMWYhQLyuZzoMBRFcSkYDM46+/+WZW01CwWZC+9sC4Uj7xEdxEyjEgAfRWPxZgBfEx1HKalkUnQIiqJwQAiZde5vE4kJBkDmqb2vhcKRZtFBzCQqAfDXnwCYJzqIYnLZDCxLbftTlHpAKQ0Qor1cyIMxtjaTSe8WGdM05sG5Ryo+UQmAT6KxuNQXN2MM6VRKdBiKonDU2NQ4dO7v06nUEsaYzCt8/yQUjkj7kFRvVALgn68BaJr2owRJp1KglIoOQ1EUjhobmy68xw8kJxOPCAmmPE2Q/DVpPVEJgA+isfiVAKRd4GLbltr2pyh1KBAIdFz4Z/l8/grbtk+IiKdM7wmFI1eKDmImUAmAx6KxuPRbXNTCP0WpTxcsBDyrMTExLnMCAADbQ+GIGp88pr7A3rsVwCbRQRRTKORRyOdFh6EoigcopbqmaeMX/rlt21cU8vmnRMRUpk2QuFhavVAJgIeisXg7JC9zqZ7+FaW+BRsaR6f688nJRBMAmRf+3BkKR9pFB1HPVALgrc8B6BcdRDHZTAa2ZYkOQ1EUDzU0TH3iLmNseTqVetDncCrRD+ceqnhEJQAeicbiSwH8oeg4iqGUqm1/ijIDGEagsdjfZTLp1YzRhJ/xVOgPQ+GItEem1zqVAHjnmwCmTr0lkEmlwJjMs3+KovCgG0Zrib/uTiQST/oWTOWCcO6ligdUAuCBaCz+BgA3iI6jGMuykM1mRIehKIoPCNBS6u/NQmGrZVmH/YqnCjeEwpE3iA6iHqkEgLNoLG4AuFt0HKWkkpPTf5CiKHWBMhYAYJf4kEBiYnzKhYISuTsUjhiig6g3KgHg73YAq0UHUUw+n4NZKIgOQ1EUvzAGwzCGSn0IpfSSXC4nc4XA1XDurQpHKgHgKBqLdwH4oug4imGMIa22/SnKjBMMNky74jeVnOwBIPNpYF8MhSNdooOoJyoB4OtLAKS9QLOZDGy71Eygoij1KBAMTnuvZ4wtSiUnZT4tsAvOPVbhRCUAnERj8TWQeIqKUopMWm37U5SZKBAovhXwXNls9mJKqczrAW4PhSNrRAdRL1QCwM/dAHTRQRSTTiXBGBMdhqIoAmi6Xmor4LnaE4mJvZ4G444OyRdZ1xKVAHAQjcVvBPB60XEUY5kmctms6DAURRFkuq2A57JMc5tpmvu9jMel14fCkRtFB1EPVALgUjQWl75Qhdr2pygzG6XUQPkL/LTJxITsTwzfDIUj0hZaqxUqAXDvjwAsER1EMblcFqYp88JeRVH8YAQCg+V+LKV0Qzab2eNlPC4tgXPvVVxQCYAL0Vh8ABIfVuFs+1ML/xRFARqCwYqe6lPJ5FzGWM6reDj4XCgcGRAdRC1TCYA7dwJoEx1EMZl0GpSqbX+KogCBYEOl9/u5yeSkzLMAbZD8uHXZEbUyvDrRWPwSAL8DQETHMhXbtjE+OqJW/vMSaAZtnQ1oAYDoANGcXzUdjOggVg4kMwiSGQGYSro8QXSw5h6w5n4woxGE2QC1na83o86v1ISWOgWY6qyLCzHg1MjQ4OwKPy3d3d2T1HRd1idtBuCyXTt3PCo6kFqkaitXbzskHfwBte3PFc0AbZsLNmsB6KyFYO0LwJp7y/tcRkGyoyDpQZDMEEh6EFryOMjkCTj3KmV6BKx9LmjbPLCWfrDmPufXpm4n8SqnhcwwyORRaIkjIImj0JInAGp5HLfcdE0reyfAOVoSiYknO7u6ZU0ACJx78TbRgdQiNQNQhWgs/l4APxAdRzFmoYCJ8THRYdQcOmsR7AWvA+1dB2h8SzqQfALa8LPQhp+BNrYfoGph5nm0AGjXctDedaC9a8EaZvFtn9rQhp+BfvQ30BIyH3znHU3T8oOnTzVU8alsVkfnc8FgcC33oPh5366dO34oOohaoxKACkVj8WYA+wDMFR1LMeOjo7AsNcCUhWigfeudgX/WIn/6tAvQxl44kxA8C1KYmeczsGAbaO9a57+ulYDuz64uLXHYSQSGnnZeHcwQRNPo0OlTVa37IoQ819PbtxryznqeALBi184d6t1PBdQrgMr9KSQe/HPZjBr8y0E02POugj3/dWBNPh/foAdBe9eD9q4HGIM2/DT0Y/dCGz/obxyC0M4lsOe/1vn3E//HEzprEej6D4Nkx6Af+w304/fPiESAUarBeQ9V8RedMbYmk04/0NzSciX/yLiYC+fe/AXRgdQSNQNQgWgsPh/ACwCaRMcyFcYYxkaGQWn938zcYE1dsNbd6t8Tf5nI5HEYR38DbfCJ+ltISHTQ/othLXgdWPs80dGcR0schvHM34Nk6/+12ejI8DiltLPKTx/s6e1rJYRUs5bAD1kAK3ft3HFMdCC1Qm0DrMzXIOngDwDpVEoN/tOgA5tQuOLT0g3+AMDa58Fc9wEUrroD9sI3AIFm0SG5F2iGvfANKFx1B8x1H5Bu8AecGYHCFZ8GHdgkOhTP6brupjBI/+Rk4hFuwfDXBOcerZRJzQCUKRqLXwngftFxFGPbFsZGRkSHIS89CGvFu2HPuUJ0JOWzC9Bf2gP90C9rbp0AC7bBXvwm2Bdd4du7fR70k3tg7PtnwC6IDsUTycnJg7lc1k3l0nxXd8+QruvyZXKvuGrXzh0PiA6iFqgEoAzRWFwD8AgAaR8REhPjKOTzosOQEmvogLn542At/aJDqY6Vg3Hol9CP/4+z711mmg573mtgLX4TYJR1Aq10SHoQgcf+CiQ/IToU7rKZzP5UKrncTRu6rj/c1d1zOa+YPPA4gEt37dyhpkOnoV4BlOeDkHjwLxTyavAvxmiCuekPanfwBwCjEdbym1DY8lln4ZykaO96FLZ8Ftbym2p28AcA1tIPc9MfAIa0b/uqphuG63u+bduX5/P5J3jE45FNcO7ZyjTUDMA0orF4O4D9AKQdQcZGR2BbM7vIyZS0AMxNHwPtlPaspqpoY/tg7LsHJPWS6FAAAKz1Ilgr3gHatUJ0KFxp4wcRePzbdVWzwbbto2OjIwvctkMIebGnt28xAL4FM/gZBLB8184d6ijUEtQMwPT+DBIP/tlMWg3+UyEazHW31t3gDwC0awUKV/wprFU3gwVahcXBAq2wVt2MwhV/WneDP+BsVzTX3Vp29cFaoOt8FmQwxpalU6kHebTlkX44926lBDUDUEI0Fl8G4FkAUq5iopRibGQEbAbsYa6Uteo9sOfOgOqgZgaBF34M7fRjvnZLBy6BufLd9bFTYRr6iQdhPP9PosPgghAyPjR4utptgBca6+np1YimdXBqj7cCgLW7du54UXQgsqqf1NYb34Skgz8AZFIpNfhPwZ67bWYM/gAQaIa57lbnSdWPd9Yv9/eBGTH4A/V1PRFCqikFXExXIpF4imN7vAXh3MOVIlQCUEQ0Fn8jgLeJjqMYy7KQzaqqlxdigVZYS28QHYbv6MBmFLZ8BrRrmXd9dK1A4YrPgA5s9qwPWVlLbxD6uoWjAM/GTLOwzbKsQzzb5OxtoXDkjaKDkJVKAKYQjcUNAHeJjqOUVFKtbZmKveyGGfNkeiHW2AlzcwTW8rcDGscq31oA1op3wNz8MbBGWWd7PRZodq6tGscY413+3UhMjI9zbpO3u0LhiCp7PwX1RZnaRwGsFh1EMfl8DmahPguVuEFnLfSs0A/JT4JMHADJTTj/5ceBQgpomAXW1APW1P3Kr40dAheOEedgo+4VCDzzj653CrC2uTDX3gLWWukx8pwx6nzds6Mg2ZGXf0U+AQRbwRo6wRo7nP86loI1tHMPwZ5zBbSTu6EljnBv2y+MMUIIyTPGuL0KoJRuzuWyjzQ2Nl3Kq03OVsO5p+8QHYhs1CLAC0Rj8W4ALwLgtVCGK8YYxkdHYNuSF4TxGyEoXPYpvqVmGYM2uhf6yd3Qhp8t/8AYooO19MPuvxh0YDNYcy+/mCpBLRgHfgr96L1wzoCpACGwF7we1pK3cD8auewQMsPQTj8GffAJkPRg+ecjEA20dx3suVtBu1ZxPXCITB5H8HdfB2r4vjk+NjpoWRbXnU2EkCPdPb0XEUJkXTM1DmDZrp07RkUHIhM1A/BqX4Kkgz8AZDMZNfhPwZ57JdfBXxt5DsbzPwLJVTG7yWyQ1EswUi8BB/8DrH0B7NmbQfs3e/JkWpRmwFr+dtDOpQg8+w+AVWaxKKMJ5vpbQbv9nwQj+Ulog49BP/UYyOTR6hphFNrQU9CGnnIOflr9Pm7bFFn7PNhzr3ROEKxRmq5nwHnrMGNsYSqVvK+trf0arg3z0wnn3v4x0YHIRM0AnCMai68F8CQkLW7hbPsbhvqeXYBoKFz1JbCGWe7bYgzGoV9AP/RLVPzUPB1CQDuXgw5cArv/YsDguSB7mq7TpxF48jsgmeGSH8daBmBuvM3fWQsrD33wCWinH4U2vp//0zUhsJa8BfaiN4LHcfYkn0Dw/s/X7BHCqVTyQDaTWepB08nunt68pmk9HrTNgw1g466dO54VHYgs1CLA890NSQd/AEgnk2rwnwLtWc1n8LcLCDzxN9AP/QLcB3/AeaUwtg/G3u8j+MAdztQ89aeIE2sZQOHyT5V8qqe9a1G47JP+Df7Ugn70XgQfuAPG3u9DG9vnzdQ6YzAO/AyBJ7/Dpaofa5gF2iPtEqFpEUK8ylzaEhMTz3vUNg86nHu8coZKAM6IxuI3AbhWdBzFWKaJXC4rOgwp2XO2cGknsPcH0Eb9uX8RMwVj/z0IPvgl6Cf3+PM0aTTBvPh22AsvvMwJ7MXXwdx4mz81/BmFfnIPgg9+Ccb+e0BMNyfUlk8bfhbGXj4FfXhdcyIQjmsiLmRZ5jbTNF/wrAP3rg2FIzeJDkIWKgEAEI3FGwB8Q3Qcpahtf1NjwXbQnrWu29GP/Y/v1fQAgOTGnRmBh+6ENvSkDx0SWMtucgr5aAFAD8Jc/yFYS94KHtPj09GGnkTwoTth7P1+desrXNJP/Q768d+6bof2rAUL+riegyMvEwAAWiIxIfsWpW+EwhH/3r9JTC0CdPwRAGmLxudyWZhm/RxIwhO96HLXW+60iUMw9v+EU0TVIelBBJ76/8DaF8Ba9jbPa+vTgUtQaJ0DEM2XkxK1sX0wXvxp9Qv7ODL23QPWNhe0Y3H1jRAN9KLLoR/5Fb/AfKJ5vEWVUbo+m8k81NTcLOs0yRI49/yvig5EtBk/AxCNxQcAfFZ0HMUwxpBOJkWHIS33U7EMxvM/Kn+LmcfI5FEEHvsrBB7/NkhuzNO+WOtszwd/khtD4PFvI/DYX0kx+AMAmO18z12u86jV1wDE4ykAAEilkgsYYzK/s/xsKBwZEB2EaDM+AQDw5wDaRAdRTCadBqW1udrYa7RziesFa9rQ09Icq3subfQFBB+6E/rJh0SHUjX95EPOq41R+V4Jk9RL0IaedtUGa+6tzdMmiS9Vqi5KJicf9qGfarXBuffPaDM6AYjG4pcA+IDoOIqxbRvZTFp0GNKi3atctuBs+ZOWlYex9wcIPPG3IPnaWQNC8pMIPPG3MPb+oPzaAwIYHHZ7uL8G/af5MAMAAPlc7jLbtk/50VeVPhAKRy4RHYRIMzoBALAdfqx8qlI6pbb9lcI63D19aUPPgCRPcorGO9rIcwg+FId2+nHRoUxLO/24E+vIc6JDmRZJnoQ29IyrNtxeg0L4lAAAaE5MTBz2qa9qEDhjwIw1YxOAaCz+PgBbRcdRjFkoIJ/LiQ5DXkQHnbXAVRP6iQc4BeMDM4PAM99D4OnvgZjyzQoRM43A099D4JnvAWbtnFLp9hqgsxYARNrSIVPSNM23+75tW1sLhYK7LMtbW0PhyPtEByHKjEwAorF4MyRfAaq2/ZVG2+c529iqZeWcqnM1Rht8HIHddzpnE0hCG37WiWlQ/hmKC2nj+wHLRaKtBZxrsbb4et+fTEwY8KSyFjdfDYUjM/II0RmZAAD4UwBzRQdRTC6bgcW5Vne9YW62cMGZVgeVY+V/pUhhEoEn/w7G3h9yqWxXNWrC2PtDBJ78O5BCjSas1Hb9usLtteg34s8iwJcxxlZl0ukH/eyzQnPhjAkzzoxLAKKx+HwAnxIdRzGMMaRT/lRGq2Wu9nAD0F2uAJeBfnI3go9uB8lP+N43yU8g+Oh26Cd3+943b26vBbfXot/8TgAAIJ1OLWeMyXxj+1QoHJkvOgi/zbgEAMDXATSJDqKYdCqltv2VwdVTF7Whjcq/SK0cJHEUgT1fh5bwb62VljiMwJ6vgyQk2dfvkjbqbjao1mYAIOa+3zeZSPhfarN8TXDGhhllRiUA0Vj8KgC/JzqOYmzLUtv+ysAau8CC1ZduIKmXpN6eVilSmETg0e3OmQIe00/uQeDR7bU75T8VK++qFgQLtoE1dnEMyFuEiFm1WCjkt9i2dUxE32X6vVA4cpXoIPw0YxKAaCyuQfItH6mUqvhXDtbU6erzNQkL/7hGbRh7fwAtccSzLrTEUWdvf42unSjF7TXh9pr0maj7fjAxMSFzXQAA2B4KR2bMuDhj/qEAPgTgYtFBFFPI51HI189TqacaOlx9OknJfg+qBoG16mbQWQs964HOWgBr1c2QuHRG1VxfEy6vSV8JmgEAANu2L8/nczJvF7kYzlgxI8yIBCAai7cDiIuOoxT19F8+5jYBSNdfAmCtfCfsuds878eeuw3Wynd63o/f3F4Tbq9JPxHB9/3k5GQ7AJmnkeKhcKQ2j3qs0IxIAAD8GYA+0UEUk82kYattf2VjjbNcfX69zQBYy2+CPe8a3/qz510Da3l9Hanu9ppwe03OJIyxpalUUuZtgX1wxoy6V/cJQDQWXwbgE6LjKIZSinRKLfyrhKunLTsv5Bx6r1hL3wp7wbW+92svuBbW0rf63q9XSG4csKt/BVdLMwBMgqI82UxmHaVU5h/ET4TCkWWig/Ba3ScAAL4FICg6iGLSqRQYU9v+KuLiZitjGd1q2Quvhb3oOnH9L7oO9kL/kw+vuLo2aigBACDDDadzMjEhc4ngIJyxo67VdQIQjcWvAyDtY4plWchla6duuixcTbfWUJ36UujAJljLbhQdBqxlN4IObBIdBh8uro2aegUgyQljpmlutSzzgOg4SnhrKBwRl2H7oG4TgGgsbgC4S3Qcpah6/9UgYA3V32yJleUYixi0cynMNWHIsRqfwFwTBu1cKjoQ19xcG841KcP3oywyzAAAgJGYmJD9JnhXKBwxRAfhlbpNAAD8AQBpD+vO53MwCwXRYdQezXB3+lqNzwCwlgGYGz7ifB1koRkwN3wErGVAdCTuuLk2iC7X96Q0WRIAUEo35bLZ34mOo4RVcMaSulSXCUA0Fu8GcIfoOIphjCGdVNv+RKjlGQAWbIe56aNAQMKDywLNMDd9FCxYu7unavnaqASTbNFRMpnsZ4zJ/DR0Rygc6RYdhBfqMgEA8GUA0pbmymbSsG2Zt8FKjLicZjVr9CavN8C8+HapS86yxi6YF98O6A2iQ6mO22vD7bXpHynWALyCLUglkw+JjqKETjhjSt2puwQgGouvA3Cb6DiKoZQik66fleg1R66Hn/IQDeb6D4FxPndeP/Ir6Ed+xbVN1j4P5voPAf4fOOdeLV4bVZBtBgAAcrnsZkrpsOg4SrgtFI6sEx0EbzX4UzqtuwEIK3U5nXQyKcsi3JlJq71L3lp1M2jPaq5t6sfuhfHiv8N48d+hH7uXa9u0Z/WZksE1pgavjSrJeANqTUyMGa4fVwAAIABJREFU7xMdRAk6nLGlrtTVFR+Nxd8O4HWi4yjGNE3kcjU6BS0Nl9Os4sqgV8VedB3sOVu5tqmfeBDGvnte/r2x7x7oJ/gWZrPnbBVao6Aqrq+N2ngFIOMMAABYlrXNNM3nRcdRwutC4cjbRQfBU90kANFYvAHAN0THUUpabftzz+09toYSANq7FtbSt3BtU3/pYRjP/+hVf248/yPoLz3MtS9r6VtAe9dybdNTbq+N2hj/ATlnAACAJCbGZa+J/o1QOFKji1xerW4SAABRAItFB1FMLpeFaZqiw6gDM2MGgLX0wVz7AfAcVbTTj8HY+31Mff9nMPZ+H9rpx7j1BxCYaz8A1iLtMRznUzMAwjHG1mUzmd2i4yhhMZyxpi7URQIQjcVnA/is6DiKUdv+eHJ5k62F97xGA8wNtwFGI7cmtdG9CDz7j0Cp9SeMIfDsP0Ib3cutXxiNZ/4tNfDQ5PraqJUEgEqbAABAKpVcyBiTuWDHZ0PhyGzRQfBQA3fDsvw5gFbRQRSTSadA5f6Zqx3M3fZJJv0MAIG55hawln5+LSZPIPDU/y1vlTujCDz1f0GSJ7j1z1r6Ya65BbIPkK6vDZfXpl+oTWUP9KLk5KTMxYFa4Yw5Na/mE4BoLH4pgFtEx1GMbdvIZmROZmuMXQCoi1cpHJ+qvWAvvg60bz239khuHIEn/qayk+7sPAJP/A3XUxNp33rYiyVfFGg0Vf+5dsH5rwbY1JZ1DcDL8vnc5bZtvyQ6jhJuCYUjl4oOwq2aTgCisTgBsB0SP1qobX/8kUKq6s+VuVId7VkDa8n1/Bq0sgg8/tcg+coXn5L8JAKP/zXAsTqeteR60J413NrjjTVUf224uSb9Ztu2tPfLczQlJsaPig6iBAJgeygcqYWvZVE1nQAAeB+ALaKDKMYsFJDP50SHUX/c3GyDbfzi4Ig198Jcx3HRH7URePI7IOnTVTdB0qcRePI7ALcZYwJz3QfAmns5tceZm+SwUDtrfKhNZX8PBgCwbXtLoZB/WnQcJWyBMwbVrJpNAKKxeDOAr4qOoxR12p83iIubLWuQMAHQG2BuvM3dFPR5GALP7YQ27v6kVW38AALP7QS3nWNGk/Nvla1cMCFgweqXEbm5Jv1mU1uyL35xk4lEEBIdXjSFr4bCEQkP5yhPzSYAAD4NYI7oIIrJZjOwLNm3tNYmYrqYASC6dIfpmGvDXE/SM178KdftfNrpx2C8+FNu7bGWAZhrw9za44EFWl2VL66lVwDUtuVeCHMOxtjKdDrFt0oVX3PgjEU1qSYTgGgsvgDAp0THUQxjFJlU7dwQao7Lm61M6wDs+deA9m3g1p5+4gHoR//bOZpWbwACzWDBNrCGDrCmLrDmPrDW2WBtc8HaFzj/tc11/qy5z/mYhg6wYJuTKOkNgGZAP/rf0E88wC1O2rcB9vxruLXnmttrwqydGQDGmLQ7pqaSSadXMcZk/gJ/KhSOLBAdRDVq5gDrC3wdgLRZbDqVVtv+POT2aYsF21y9G+eFtc2Ftewmjg0ypwTv3Cv5tXle+9SpI8Dp1Dtr2U3Qxg9y3XJYLTcLAIHaeQVACAFjrGZeAZzRM5mYuG9WR6dEGeN5GuGMSb8nOpBK1dwMQDQWvxrAu0XHUYxtWchm1Gl/nnJ7s3V5s3fFaARr6QftWQPz4o86T+q8EOLtKXxE43vkrWbAvPijoD1rnLoHArdosoZZrj6/VhIAEFKTTyaFQmGLbVlHRMdRwrtD4cjVooOoVE3NAERjcQ3Otj9ppVI1ciOoYa7WAACgLf3eZr56A1hLH1hzH2hLvzO13tIP1tRbGxXxfMQa2mFefPsrf2DlQbLDIOlBkMwQtDO/kvRQZbUMKo3DbbniGlkDQAAbNfjgByA4kZgY6u7uWSg6kBK2h8KRzbt27qiZJKumEgAAHwawUXQQxRTyeRTy3t2kFEc1+9rPxavKHmvsPPPuvP/MgN8P1tIL1tDBpf0ZyWhw1iS0zQXgjFZnkfwESHoYJDMIkh5yfk2d4lKwiDW7uyZIPuE6Bp9YAAKig6gGte3L8rncYw2NjZtFx1LERjhj1HdFB1KumkkAorH4LABfER1HKerp3x8kM+Tq86tZcc8aO8Ha54G2zwdrnwfWNt/VtjGlcqyhw0muupad9+ekkAJJHgOZPA5t0vm10qTA1S4MxkAyI9V/vo8YUADAa7+p75LJyY6GxkYL8o5dXwmFIz/etXNHTWSEsn4Rp/JnAKQ9ViybScNW2/78YeVA8hNVP2mz5j7nfXaR2vissQOsfT5o25nBvl0N9jJjwVaw7tVA9+qXZwxIIQVyJhnQksec/89NTN0A0cGae6run+RG3ZWn9hGjNAfA3YIHgRhjS1LJ5H2tbW2yLgjsgzNWxUQHUo6aSACisfhyAJ8QHUcxlFKk1bY/X5HU6eqn2jUDrKkbJDMMAGBNPaBdy0A7l4N1LXO9IEwRjwVbwXpWAz3nJAX5BMjYi9DG90MbexEk6zy1s+ZedzUA0oMcIvYHdRKAmpbNZjY0t7SMaZrWJTqWIj4RCke+s2vnjv2iA5lOTSQAAL4Fid9bpVMpVe/fZyQ9CHSvrPrz7XlXA4Fm0M5lYI2dHCNTZMUaZoHNvgR09iUAnIOStLH9gOVuTKylBMCyrNqYqiitYzIx8duOzi5ZV90H4IxZbxUdyHSkXw0ajcWvA/AW0XEUY1kmcll12p/f3O7jt+e/Bvbsy9TgP4Oxxk7YF13uuiBRbSUAZs2sUC/FNM1tlmm+KDqOEt4SCkckP/5S8gQgGosbAO4SHUcpqaRa+CeCDIV8FAWorWvRMk1pZ1IrpCcSE7K/d70rFI5IPcsudQIA4GMAVokOoph8LgezUBtngNebWrrpKvWttmYA7LpZzUopvTibzT4sOo4SVsEZw6QlbQIQjcV7ANwhOo5iGGNIq21/wpBCCsRUFRcVsWrtOrRtq67eeaWSkxcxxmQuvnJHKBypfouJx6RNAAB8CYC0FVWymTRsm9c56UolWGMX7MVvBpPtSFllxmFGo3MtNsq6IP0VRNMoamfhd7nmpZLJh0QHUUIHnLFMSkTG1evRWHwdgCcA6KJjmQqlNsZGRtTKfz9pAdC+9bDnbAHtWg6AY016RXGNQRvbD/3kQ9CGnpayLoCmabnB06ekPUTNhXR3T29K0zQ+JT75swFcvGvnjmdEB3IhWbPB7ZB08AeAdFJt+/MLa58Pe84VsAcuAYyaLWCm1D0C2rUCtGsFYGWhn34U+sk9IJPHRAf2MgbkIPEpqi60JCbGn+js6pY1AdDhjGmvEx3IhaSbAYjG4u8A8P9Ex1GMaZqYGBsVHUZ90wxne9a8q8FaLxIdjdzsPIiZBawMiJUFqHXmPxtgFgi1z/y/83tQ2/l7ZoNQp3Il0wyA6M7JhJoOkLO/18HO/l47+/cGmNEEGM1ggSZAvYYpiaRegn78t9Bfetj5uot1anhocLboIDzCOjo7nw8EgqtFB1LCO3ft3HGP6CDOJVUCEI3FGwA8D2CR6FiKGR8bhWXKN71XF4wG2HOvhD3/da7PZ68HJPUS9FO/A8wsiJU582sWsLKAeWbAL1LO2L8gNSchCDQDRtOZ/28CM5qBQJNTa0ElcSD5SejHfgP9xAOAJWbNmm3bR8ZGRxYK6dwHhJBne3r71kDe94OHAazatXOHNIsWZXsF8MeQePDP5bJq8PcAC7Y6hXnmXa2m+c8gqVMIPvwNKd8ln4dRZxX8mZXwF9559WO/ReHyT4G11uuDZ3lYQzusZTfBWnSdMyNw7H9AfD5C2DLNut6zzBhbm8mkH2xubtkmOpYiFsEZ4/5cdCBnSTMDEI3FZwPYD0DKfaqMMYyNDIPSuiikJQXW2AV74bWw52wBtHqpT8IBYwg88i1oiSOiI+GCzloI89I/BoisD2YCUBP6yYegH/k1SG7Mly6Tk4mDuVxuiS+diXO6p7evjRDSIjqQIlIAlu/aueOU6EAAuWYA/hySDv4AkEmn1ODPCWvpg73oOmdhn4tDWEQj2RGQxDFoyWMANFjLbuDSrn7i/roZ/AFASxyBfuJ+Z4bHNQZj/08AQpzTGmfNB2uSdpt1cVoA9ryrYc+90lkwePg/QdLujrmeTqFQkH+vonsDycnE/7TP6niN6ECKaIUz1t0qOA4AkswARGPxywDsgaTvbmzbxvio2vbnmtEEa8mbYc+7puYGfpIdA0keg5ZwjpbVkscB88wZEERHYcun3Z0pf7af/ASCu78i7D2xZ4wGFLZ+rvoTHM9BUicR3PO1V9Y/BJpB25xjm+ms+WBt88GaamysYxT68ftgHPyFs8aDM0IIGxo8LeX91QO5ru6eUV3X54gOpAgG4IpdO3f8TnQgwhOAaCxOAOwGcIXQQEqYnJhAPl/zp2iKQwjsOVthL30rWEDaSZ5XUBta4gjI+H5oE4dBJo+DmMXf19oLXw9r2Y1cug489V1nH3kdon3rYW74CJe2jH33QD92b9G/Z4FWsPZ5oB2LwDqXg85a6OxkkBwxU9AP/Az6yd0Ax3uzpmnZwdOnZswCG13XH+rq7tkiOo4S9gDYumvnDqEDsAyvAN4PiQd/s1BQg78LtHMprBXvAmuTNRkHAOZM5Y/vhza2H9rEIcAub70Ua+yAtfjNXKLQhp6q28EfALShp6ENPQXat8F1W9aS66ENPgaSn5zy74mZAhl9Htro8wB+DuhB0I7FoF3LQTuXg82aDxknHFmgFdaq98CeexWMff8CbfwAn3YZSwGYMQmAbdtbCvn8U8GGBvcXmzeugDP27RIZhNAZgGgs3gJgHwBpR4fx0RFYlvD9uzWHNXbBWn4TaP/FokOZFimkELzvf8OZmauMuf5DfP6NVg7B3XGQ/IT7tiTGGjpQ2PpZwHBfj0Y7/RgCz/x9FZ9JULjmTrCg/LNR2uATMPb/xPVCwXrfAjgVQsi+nt6+ZZC35P1JACt27dwh7DAJ0V+YT0PiwT+bzajBv1KEwF50HQrbPlcTgz/gbENk7fMr/jzavZLbv9E48NO6H/wBZ42DceCnXNqiA5tBu5ZV/HmsfV5NDP4AQPsvRmHb52Avus7VLgqzMPOOLWWMrUinUg+KjqOEOXDGQGGEJQDRWHwBgJio/qfDGEUmJftx03JhDR0wN38C1tK31ty2PtpTYQExTYe14t1c+j67Sn6m4LnLwVr5e07VwgpU/L0WTQvAWvpWmJs/UfUiynwhX1s/kJxkMunVjLGp3xPJIRYKRxaI6lzkDMA3IHFd6nRKbfurBO1dB3PLp0E7l4oOpSqVDgr2gmvBWvrcd8xsGHt/yHXBl/QYO/Nvdn+aJmsZgL2gshLrNZcAnEE7lzo/Y73rKv5cs1Do9SCkWtA9mZh4QnQQJTTCGQuFEJIARGPxawC8S0Tf5bAtC9lMRnQYtUEzYK18N8yNt4EFxNXeIKmTrj6fti8oO37W2Alr0XWu+jtLP/JrkNRLXNqqJST1EvQjv+bSlrX4TWCNZR5zH2gGbXf3wEWS7q41N1igBebG22CtfLdzNkMZiKZRxlhtvPPwQKFQ2GpZ1hHRcZTwrlA4co2Ijn1PAKKxuAbgbr/7rUQqmRQdQk1gLf0oXBbjVOClciQ3Af3wfyH44JecfeFu9k8TAta9qqwPtVa8E9CD1fd1tsvMMIxDv3TdTq0yDv0SJDPsviE96HxPykC7V7mrQWFmEHz4qwg++CXoh/8LJCdm3YY972oULouBtUx/AB4B+BcWqC2BxMQ4hwvNU3eHwhHfx2MRMwC/D2CjgH7LUsjnUSjUWREWD9CBzShc/if+b+9jDNrQ0wg8/m0EH/i8s3guMwwwCm1sn6umy5kapt0ruWxjAwDj+R/JX+vfS9R0vgY8murbANq9cvqPczn9r40+DzDmJG8HforgA59H4PFvO9s3fX6Nw9rmoHD5n4AObC75cZTSGf9EQym9NJfLPSo6jhI2whkbfeVrAhCNxWcB+IqffVZKPf1Pz553Fcx1H+DyFFw2akI/cT+Cu7/sFMsZfeFVN1xt5HlXXdi9a0sXiyEE1rKbXPVxln7qd64Tlnqgje1zTjzkwFp2U+mV8kSH3bPWVR9OXYFzMAZt9AUEnvougru/7Czm9DOp04Mw130A9ryrin5IoVAQts1MJqnkZBcAmTPur4TCkVl+duj3DMDnAUi7GCWbScO21ba/UuxFb3RWXvtURIUUkjAO/geCv/0zGM//uOSU8atuzpUympwp4iLs2ZdxmfEgZgr6vn913U690Pf9a8lKi+VibXNgz76s6N/T7pXOscXV91AyySSZYRjP/9i5Vg/+B0jBr4cJAmvl78Fe+IYp/zafU4XMAIAxtjiVTO4WHUcJvXDGSN/4lgBEY/HlACJ+9VcpSinSattfSdayG2AtfZsvfZHMMIy9P0Tw/i9AP/RL58jZ6T4nNw6SPu2qX9q/aeq/0AKwl7zVVdtn8Rrw6gXPhMheUnwLKh0o8r0tE0meBClMv6OMmGnoh36J4P1fgLH3h3zWOZTBWnbDlAdS5fO56RcKzBDZbGYjpdSf4xerEwmFI8v96szPGYC7AEi7FzWdSqnDfoohBNaqm4s+YXDtqpCE8cKPEdz9FaceeoXTqe5fA6yfcgCxF7wWrNH9QTY8p7zrCa9XIqyxA/aC1776LzTD+d66oI3srewTqAn95G4Ed8dhvPDPIAXvkz574Rtgrbr55VchmqZZM3kHwBRmTSYmnhMdRAkBOGOlL3xJAKKx+JsAXO9HX9WwLBO5rNr2NyWiwVxzC+y5V3rbj12AfugXCD7wRejH73/lpLcKacMua+kbDaA9578GYMFWWAvf6K5dwFn0tvef3LdTp4y9/8Tl/bm18I2vqvRHu1e7Lj+sDT9T3ScyG/rx3yL44B3QD/1n2edMVMueeyXMNbcARANjTC1quoBpmlst09wvOo4Srg+FI2/yoyPPE4BoLG7Ax4ymGmrhX3HW8neAzr7Euw4YhX7iQQQf+CKMgz8HbHc7MLSJg0UPiCmXfcFrAHvx9YDR4KpNADAO/gIkO+K6nXpFsiPOcbhuGQ3O9+wcttvp/9yY++qFVh7GwZ85WwhP7q46yS0HnX0JrOXvgGVZCc86qV16IjEh+xPfXaFwxPPD+vyYAfg4gOn35wiSz+Vgzrwy2WWxZ18Ge7539Sm0xBEE9/wFjOf/qax3q2VhDNqQu8JftHfdyzscWHMf7LnbXIdFUi9BP8qn8E0904/yKYxkz90G1nymUqMWAO11ufp/8EnXMZ1F8glnfcuer4FMHufW7oXs+degMHDFjDkBsBKU0o3ZbGaP6DhKWAln7PSUpwlANBbvAfAFL/twgzGGdEo9/U+Ftc+Htfo93jROTRgv/gSBR+4CSZ3i3rx2+nF3DejBl/eLW8tudFc45gzjhX/29ImvbjDqfK3cIprzvQNAe9cAursZHH3Q5TU1BZI6ieDvvgHjxX8HqDe7j7T17+3Tu5d40natSyWTcxljMm+R+EIoHOnxsgOvZwC+DMD9yimPONv+3Ncjrzcs2AZzw+97cqCPNnEYwT1/4ZSB9WhA1CYOu67QZvdvBu1YAtrnbuEYAGije7md6z4TaOMHoI1WuOBuCrRvPWjHEtj9pQvlTIdkx0ASR13HMyVGoR/5FYJ7/gJa4jD/9rUAabo6BtLo6/byWjE3mZyUeRagA84Y6hnPEoBoLL4ewEe8at8tSm1k0qo+xqsQDdb6D5VfW71c1IKx7x4EHr0LJD3Et+1XYdAG3b4GWAN7xTu4xGIc+BmHdmYW52vmfleOveIdzgyAC26vpXKQ9CACj9wFY/893GcDtOZuNF/1xxWfmjgT5HO5Sym1B0XHUcJHQuGI+6eQIrycAbgbgLRXXCqptv1NxVp2I/cT/Uh+EoFHt0M/dq9v5VI1t1O2WgC0fT6HOJ709D1vvSKTx7m8d6ft813PZHkx/T8lxqAfvReBR7e7Xsh6Ib1vFRovfj/XNutES2JiQubpOR0enp3jSQIQjcXfAWCKzbhyME0T+dxMPx/j1VjLAOz5r+HaJpk8isDDX+d2/nu5tMQRkJzgeh+Mwjionv6rZRz8mfB1EyQ7CjJ5zNc+tcQRBB7+Osgk39cOwZVvhtbu89kdNcCyrK1moSBzbYDXhsIRHtORr0J4PwVHY/EGAM8DWMS1YY7Gx0ZhmTKXhBbD3Pi/XK+WPpd2+lEEnvuBsANvrGU3wV54rZC+AUA/uQfG3u8L6/9cWiCAniVL0bN8BZq7utHQ1oaGtnYAQD45iXwyiczYKIb378PowQOgkvx8WKvfD3vOFcL614/8N4wX/01M51oA5pr3gQ7w24ZrnXgEmfu+zq29ekEIea6nt281/KpxXrnDAFbt2rmD60l1Xuwz/CQkHvxz2awa/KdAu5ZxHfyNgz+HfojDnm4X9MHHxSUA1IJ+6Odi+j5Ha18fFl/zOvQsXwE9MPVUeHN3D5q7e9C5cBHmbLoEdqGA4f0v4NB99yI9LPYUVf3Qz2HPvgTQPN8SPXX/fk3/T4WaCDzzD7DTQ7CW8KmjZsy9FHrfKthDLs/NqDOMsTWZTPrB5uYW93t+vbEIzth6J89Gub4CiMbiFwH4DM82eVLb/oohsJbzm2HSj/xK+OAPAGTymLDCO/qJB0By40L6BoCGtjasvuEmXHH7x9G/Zm3RwX8qejCIgbXrseWjEax+201oaGvzMNLSSG4c+okHxPSdHZFi/YZ+6BfQj/yKW3uNm8KQ90FXnHQqtZQxJvPK8M+EwpGLeDbIew3AnwOQtu50Jp0CpWov9oXs2ZeCtc3l0pZ+/H5nX7Mk9JcE7PKxC9AP/5f//Z7RuWAhrrj945iz6RIQrfofcaJpmLP5Elxx+8fRuWAhvwArpB/+L8/L507Zr4hrpwjjxX93SmRzoHcvRWDBFi5t1Zn+ycnEI6KDKKEVzhjLDbcEIBqLXwYgzKs93mzbRjYje/VHAQiBvZTTKXenfseniAtH2ksP+76QTD92r49HwZ5vzqZLsPmWDyLY0sKtzWBLCzbf8kHM2eRhSegSSCHp7CDxE6POtSMR44V/5naQVMMGj4p81bhCPr/Ftm3x0z7FhUPhSPEzryvEJQGIxuIEwF9C4nmldDKptv1Ngc5azGXPvzZ+AMZz3wePvds8kdwEtFEf33eaGRhHxJT8nXPxZqy+4SYQnf/uW6LrWH3DTbhoo7ua+tUyjvwaMP1L4LXR510Xk+KPwXju+1yKSmltA9C7+W73rRMNiYnxk6KDKIEA+MtQOMJlrOU1A/B+AJdzaos7s1BAPi9zxUdxaP8G943YeRjP7RK+ZasY/eRu3/oyjvw3YPm/xbRzwUKsfOurz4LnbdXbbkTHPPf1ESpmZZ2vrU/8vGYqwqjzs+by0CwACMyX9pYtlG3bV+TzeX6HP/B3OZwx1zXXCUA0Fm8B8FUOsXgmleRbVKOe0D73CYCx/19BsqMcovGGNvysL1PyJD8J/fh9nvdzoWBrKzbc/D5oHjz5X0jTdWy4+X0INDd73teF9OP3cS+QMxVSSEIbftbzfqpFsqMw9v+r63aM+eK2V8ouOZloBiBznfivhsIR1+/5eMwAfAYA15WJPGWzGViWNwdt1DrWPg+ssctVG9roC9BPPMgpIo8wCs2HBV364V8KWay2+OrX+jogB1tbsfjq1/jW38vsgvM19pj20h5pZ7PO0k88CG30BVdtaK390DsX8gmozjDGlqdTKZlvbFx23LlKAKKx+EI4exOlxChFJpUSHYa07L6NLltgMF74MZdYvKaffMjT9kl2FPoJ/6eNmzq7MHez/4vz5l56OZo6OZ8XUQb9xG7PZ5u8vlZ4cX723K25UbMAxWUy6bWM0YToOEr4ZCgcWeimAbczAF8H0OiyDc+k1ba/kmjvOlefr43uA8mILRRTLpIZ9vREPv3gzwHm/4zhwiuv8mTR33Q0XcfCK6/2vV8w2/lae0QbP1Bb1/ToPldtBOZeyimautSVSCRkXgvQCGcMrlrVCUA0Fr8GwLvcdO4l27LUtr9psGZ3R02LKtBSLc2jhV0kdQr6af+3DxNNQ9/K1b73e1bfytWu6gxUSz/9CEjqlCdte3WNeMXtz6DWNsApkvpkFgrbLMs6JDqOEt4VCkeuqfaTq/rpjcbiGoDt1Xbqh1RSVfwrKdDs6pQ0kp+ANvwMx4C8pw8+6ckKfefQGv+3P3bMm891v3+lgi0tYnYEMObNIUtW1rlGaog2/AxI3sV2RT0AEpS2dpsMjMTEuOBTxaa1PRSOVDWWV5u+fwQAh/1j3ijk8ygUuJ6ZUHdYQ4erz9dG90m/UOpVqAn9FN8ndZI4Cm3oaa5tlqtn+Qoh/coQgzb0NEiC72l5+qlHhB1cVTVGXb8GIM3uFgLXO0rpJblcVuYKgRvgjMkVqzgBiMbiswB8uZrOfMGY2vZXBtYwy9Xnk2xtvCe9kH7sPvAsVmQc+Cm3tirV1OEuiav1GPh+7dmZa6P2uP1Z1Jr8X8xZa1LJZC8AmbPDL4fCkYpv6tXMAHwBQG8Vn+eLTDYD25Z5+6YcWKPLBCAj5pAdt0hmCNown6O/tbEXoY25e/py4+xxviKJjEEb2wdt7EU+bQ0/B5IZ4tKW39z+LKoZgOkxxhamkpMyLxDphTM2V6SiBCAai68A8PFKO/ELVdv+yud6BqA2EwAA0I/+hk87Aor+nEvkKX2yxMDre6Af43NNiOD2Z1FrUglAObLZ7MWUUnkrngEfD4UjFb2Tq3QG4FsAql855rF0StX7L5vL7ZGMiDmfnYsAn6I5zGji0k61qC1+DYboGJjRwKchw//Khry4/lkUsH21RrUnEhN7RQdRQgDOGF22shOAaCz+ZgDXVxqRXyzLRC7rfw32mpV3V9/C7RZCkewFr+PXDhF3/lVegrUuYmMgsOdz/F7WKLc/izQj+yJ3eVimuc3xuiF8AAAgAElEQVQ0TXHv/aZ3fSgceXO5H1xWAhCNxQMA7qo6JB+obX+VIW4TgCZpl4GUxGYtAO1YzKet1tmwB8QckQsAeQmueZEx0IFNYG1z+LTVsRhs1gIubfnN7c8iy45zimRG0CYTE7KfLHdXKBwpa6a+3BmAjwMQv+eoiHwuB7Pgfw32WuZq7zBqdwbAnld1zYyp21tyPUD8r8QHAJlR8eswhMVANFhL3sK1Sd7Xhm9a3CUAagagMpTSDdlsRuZ60WWv1Zs2AYjG4j0APu82Iq8wxpBKiX8SqjVuZwBoz2pAD3KKxidGE+x+t+cfnI819cCeI6ae+vA+d4fB1HIM9kVXgDXznYWy+zcCgtd1VEwPwu5e7WrhE8uqBKBSqWRyPmNM5pmAz4fCkWmf0sqZAfgKAPEbjovIZtKgattf5aycuzPFjSbYA5v5xeMDe/alrqofFm138Zs8aXc6ydOnkJ0QN32bnRhH8rQ3JXlL0gKwF5f9mrOydmfXVm18e2AzYDRWvRCFWTkwU62dqsKcZHLS+yNGq9cBZ+wuqWQCEI3Fq64w5Adq28ik06LDqFkkddrV59tzr+QUiT/sOVs9aZc1dMCed5UnbU9n8Flx5ZhF9W3Puwqs0ZtnEq+uEa+4/RmkiROcIpl58rncZbZtC8iAy/aRUDhSsmLvdDMAd5fxMcKk1LY/V/RhdyVsWft80FkL+QTjMdY+n9uCsanYi94A8NqSVoGjDz0IK+9/2Wsrl8OR3QIOgzIanK+1R1jbHLB2AecbVIHOWug6VuvYw5yimZGaE4kJmQ8K0uCM4SU/YErRWPydAF7DOSBuTNNEPifzKxj5aRwOPrFW3SxsEVwlvH6yY4FWblvSKlFIp3H0oQd97/fIg/fDFHDapj3/dWABbw+vqYlZAKI7P3sumcdVAuCGbVnbCoXCs6LjKOE1oXDkncX+csoEIBqLNwL4hmchcaDq/btHMkOuj1VlbXNhLX4Tp4g8ogd9Wa9gLXgdWMD/0/mO7n4AmVH/CpSlh4dxdI//VVFZoAWWD/v17YHN0i9wtRa/Caxtrqs27PGjoEl3rwEVYDIxoYHnASP8fSMUjjRO9RfFZgA+CWChZ+G4lMtmYZkyn8tQO7Shp1y3YS96o9TTpnb/xYAx5fXPl9EIe6F309PF2IUCnvzhTlg+zIiZ2Sye/OEuUAE/f/aiN/r3fey/2Pt+qsTa5ztfC5esYzKvYasdjLHVmXTa/2m48i2EM6a/yqsSgGgsfhGAz3gcUNUYY0irbX/c6BwSABAN5tqwkHfg5aA+Tuna8692fdJiNdIjI3jqxz8E83BHDLNtPP3P/4TMmP/l0P1eaOnnNVMRo8H5WSPul2aZx1UCwEs6nVrOGJN5RfpnQuHIRRf+4VRX0V8A8H8es0yZdArUZR175RUkeQIkddJ1O6xlAObG24VshyuFtfRzq/xXFi0Ae/F1/vV3jrFDB/H4rn/w5N28mcng8V3/gLFDB7m3XQ6/t1rSjsVgLQO+9VcWLQBz4+1c4rJHD4Im3P/cKy/rm0wkHhEdRAktcMb285yXAERj8csBhPyKqFK2bSMrYOFRvTP2/xuXdmjnUpgbPizVokARC7rsOVvBmrp97xcAxg4fwsPf/VukhvgdbZsaGsLD3/1bjB0Ws+CZNffCnrPF935F9FkU0WFu+DBo51IuzeWf2MWlHeUVhUJ+i23bx0XHUUIoFI5cfu4fvJwARGNxAmA7AHGnm0wjnVTb/rygjT4PbZRPRTfaswbmuluEHpLzMkJARRR2IbpTIliQ7PgYHv7OX2P/f/0SposDssxsFvv/8xd4+Dt/jey4uGpx1pLruUx5V4rOvlSa69hcdwtozxouzVknH4c1+ByXtpTzNCQmxl8SHUQJBMD2UDjy8kV97k9VCMDlr/oUSRQKBeTzatufV4z9PwE4JVe0fxPMNbcAmtgjg2nnUrCgmPPq7YFLhU4hU8vC0d0P4MG//BYO3Xcv0iPDZX9uengYB//nN3hg+zdx9KEHQS3Lw0hLY61zQAVVnGTBNtAOPk/cVdMMmGtuAe3fxKc9RpF74vt82lJexbbty/P5/BOi4yjhvFl+whhDNBZvAbAfwKsWCchifHQElsAb0UxgrX4/17r2WuIwjCf/D0hBzJZNa9V7YM/dJqRvwNlhEXjq/wjr/0ItPb3oWb4CzV1daGhrR0Obkxzlk0nkk5PIjI1hZP8LSI+IP2ToLHPj/wLtXSusf/3E/TCe/7GQvlmwHdbG3wedtYhbm4UDv0bu4b/j1p7yaoSQAz29fYsAyPMu9HwvAVi+a+eO9NlHtNsg8eCfzWTU4O8D/eDPYA9s4rYHms5aBPPyTyHw1HdAJn1+NUY00L6SVTA9R/s2gLXPB5k8JjSOs9IjwxXNBIhGZy0SOvgDAO3bCLzwLwDzd+Exa58Hc8NtXEseMyuP/NNikpmZhDG2NJVK/ra1te1q0bEUcRGcMf8uPZEKEAB/D0DMqqVpMEoxmZhQ7/59QOw8iG2C9qzi16jRCPuiy6BlR1wXHaoE7V4hxVkFrKkb+imZFwfLy1p3i7DFlC/TG6CNHwDJ+rf1kQ5shrnxNoBzUan8E9+Hfdpd+W+lPJZptjU3NecJIT4UrqjKonv+9Rff1gBcC2C56GiKSattf77Sj90L7fSjfBvVAjDX3Qpr1Xt8qxXg+p2pmYE27H6hFO1eyW3l9kzifN2WuW5HG3kOMN3tHOL2/n06RiOsVe+Bue5W7lsezSMPoPDCf3BtUympK5FIyJxtLQdwrQagaJ1g0WzLUtv+BAg89wOQJP9Twuy521DY8lnQ7pXc2z4P0WG7nP7Xh56G8eJPuEz92ktvcN3GTGMtfZv7RhiFsf8n0Ifc3Ydp3wbPdyHQntUobPnfnqxZscePILvnb7m3q5RmmoWtlmWJKZxRnndqAJaIjqKYbFYN/kJQE4Envwtiprg3zRo7YW76GKzV7weMJu7tA870PwLNrtrQBh8DSZ+GfvIh9/F0iH+XXUto/0YupaX1kw+BpE9DG3zMVTss2MplNmJKgWZYa0IwL/4oWGMn9+ZZPonsfV8H7AL3tpVpGalkUuZqS0s0AD6WSatMoaAuWlFIbgzG09/zbPGTPecKFLb+b9DeddzbdjtlS8wUtLH9AAD94M8B2/1xu9aKd0l/wIwUjAZYyzlMStp553sHQBvb7zqZpR6cDUD7NqKw5bOwL/Jo9zWjyD5wF2i6dhZ+1hvLMt2d2OStxRoA7w5Jd4ExBlut/BdKG9vvTIN7hDV0wNx4G8xL/hCsfQGfRjUddt96d00MPvVy4kMKkzCO/Np1WKyp2yloo5RkLX0bl5XvxpFfv7L9lFHne+oC7ef3GoDOWgjz0j+CueHDYA3tXNqcSu7xnbBOy3xSbf1jjC1mjMl6eM0cDcCg6CimQgiBrsu6jXLm0I/eC+PMk5RXaOdSFC7/JMz1HwRr6nHXVvcq168WLpwy1o/+GiTvvpaBPf+1ro9wrWd01kLYc93vnCL5SehHz0/aXL8GCLh/DcCae2Gu/zDMyz4J2uHtm9f80z9Wi/7kcJwQIqYa2fQGNQCHRUdRTCAo5+lyM41+6BcwXvgXeHvkNQHt34TCts/BWvkusGBrVa3QHnfv2kkhCW38wPl/aBegH+RwMyUazNXvE1LWVnpEg7X6PVxK7+oH/+NV77y18QMgBXcPYtW+rmLBVlgr343C1s+C9m90FUMZvSH36PeQf+ZfPO5HKYcRCBwRHUMJhzUAYk74KENTkzeLxJTK6cfvg/HsLu8LohAd9rxrUNh2B6zlb694YRTtWe2qe23wiSlLIusv7eFSx4C1z4M9/zWu26k39oJrwVrdv40kqVPQX5rimFvGnO+tC5VeW6yxE9byt6Ow7Q7Y8672/pAsRpF96K/x/7N351GSXPWd6L/3xpL7UtVVve+tbi1oRyAJDGY848HbzBvbj7E9fhwf8zDjsedZtNXggWLxGNpjoOzC5BgDtgA705jNw2KMjTEGgRa0d7fUi3rfa6/Myj0zlvv+yOqm1arKysyIyBuZ+fuco9NHUuWNX3dF1/3FjXt/v/qL/+jtdUirRDQa9WV9nSWnOYBvyI5iJaqmIUhJgG8ok09CO/gQYHdhb4YagLXtJ1D/sd+HcduvQcS3rPoREVnveCc1n352hcFtqCfc6Zpo7vpZiOCwK2P1AxEagbnrp10ZSz3xtRWT1BW/ty0S4dGWXlGJ+BYYt/0a6j/2+7C2/UR3al/YBsrf/2MYpx/2/lqkJaqqPqppurMnEm99gwP4OgDfHlWIRGNgfujIRQAAfPYQtOf+3JWd8S1hHPb6e1C/950wXvk7Sx3Rlr8f7DXOKhiyWg48u/KCGJ87fPV0gCOKDvPmX3I+Tp8wb/llVwrf8IXjjcI/K/3/7GmwWs7RNVZeBWCNTpiv/B3U730n7PX3dO1VjzCrKH/3f8G8SBUnfaSUSHp1dtQVlwB8XXn8se+Ib/3zD6IA/o3siJbTmPwZDDoS6BusMg9l/mijoI/D8/btEKE1sDfcA3v9XQDjYOU5MNu4+v+tXT8DER7teHxl8qmmEwgA8OJlWJte6/hdtQiPgpdnuloe2Y+sDa9uPCU7JQS0Qw+t2nhKhEYhEs5OnCjXVMoUWgT25tfAfMWvwtr6hq6XLraLM6h893/Bmn2xq9clzQWDoceCwaCfi3/8cSad+t6VZkAfB7AXgHudJ1wUCodRrZRhWZbsUMgSlr8A/YcfgnHzL8Ne36VSqUtEZH3jXP3unwefewHK5R+CL5xwXHKXzx9Z9WtY4SKUi4/A2vI6R9cCAPPGX4Q+f9RxqdpeJbQorBt/3pWxlIs/aKl6JZ8/4uh7Zw/tBhQd9vAeWBvva2w65XJOKxnnHkP1iU9BDOj942MXorHY/bKDaCKHxpzfaAcMAHv37X87gAmJQTVVq1WRzzlbviPesDbdL7/QjVF2thphmwh87/daq5imhlB/7XshdOene5TLP4R6eDD7s5u3vhnWhlc7HofVC9Af/QBgVlb/YkVH7Q0fAri6+teuxOm95pAwa6g+/RkYp/5VWgxkZdFY/IlQKORRdSdX7M2kUx8FgGtfUv1vAMfkxLO6QCAITadKan6kXHoc+hMfBpNZ9dJp6d/sydbLpZoVKC5tCLQ23gd72M+vCr1hD9/oyuQPAMrxr7Y2+QOAVX/5Mc92SZz8rew5lP7xf9Dk71Oc8+d8PvkfQ2OuB3BNAjAxPmai8RrAt6Ix76pmEWdYaRr6k+NQLnxfdigdaWX5/1rK5SfBc+6coDVv/hXXu7/5GtcaG//cGCp7Esrkk+19ps3vtV/UX/wnlP7p3bDzvt2zPeisRCLZWQGT7tmbSaeuHuN6yTbVifGxfwLgbdk3B1RVRSgkL/smq7BNqMe+BO25T3S1f7ob+Fy7k4KAevSLrtRFEOFRmDt/yvE4vcLc9dOOKz4CaBzNPPbFtj/W/vdaLrs4g/L3/gjVpz8NXLPplfiLpmmPqprm5+W8b2bSqX+69j8sd05lLwDf3mXhaBSMUyU1P+Nzh6E/th/qqW/0RBcyVsuDlWfa/1zxkmsrHtb2fwsR3eDKWH4moptgbfu3roylnP9uR6coWHnGldLOnrPqonbwCyh+Yy/MS85qGBDP5eKJpJ93/RtYZoX/6ibAa+3dt/+PAfxuF4LqSKVcRrHQA3+BCUQwCXP3f4K9/pWyQ2nOKINnTzbOkmePtz6xqMGlDYHOX0/xxbPQnvqTZSsR9gXGUH/Vg46P4QEAq+agP/bBlutRiOgG2EN7YA/vaZwWkfgevxXKzIH64qOf1O1yb62kDapQKPxwNBb7cdlxNPEnmXTqwev/40pbYf8AwJsBdH6o2kOhcBiVSpm6BfYAVs1Be/6zsC/8oFHj36/NcLQw7LW3w17qJMjqBbCFE+CLZ8Dy58ELF5dfzTCrUF/8Cozbfs1xCI1mOK/r2X0Uq7E2v96VyR8A1ON/t/Lkr+iwY5sh4lthJ3ZADO925cRGN7DCRajHvozKpYNn7XJpj+x4yOoYY6ejsdhrZcfRxCwac/rLLLsCAAB79+1/G4BPehiUI/V6DYvZrOwwSDsYg7XpNbBu+DkIze97Za4jbLDSNHj+PNjSP7xw6eo7WeOe33HcLQ4AYNagP/5BsGp/HXkVwSTq97/HlbK4fP4YtGf/bOlfNNixTRDxrY0JP74VIrKu5xouMaMI5eQ3oFx6DIwxe2ZqUgCgdqg9IB5PPBMIBv28xPlfM+nUp5b7H80Ow/4lgP8GwOv2VR3R9QD0QAD1WpdK0hLnhIBy8VEoU8/C2vK6RuW0HnkyA+MQ0Q2wohuAjUunfIQNVpwEz18Ay50FkrucTzxqAOZNb4J24C8ch+wn5k3/2Z2a+MICy5+Decuvwo5vaeyb6LHJ/lqsXoBy/ntQLvzg6lFGy7IuAtgqNzLSCs6VpwLB4Ktkx9HEATTm8mWtuAIAAHv37f9xAN9zPyZ3WJaJhbk52WGQTnEN1qb7G53gQtQc51rawYfAZw7IDsMV9to7Ydzx/8oOw1dYZQHKue9AufT4y3b2ZxcWLpmm4bw1IvFafXh4zWVFVbfLDqSJN2TSqRU7RDVNAABg7779XwTwJrejckuxUEClXJIdBnGCcVjrXwlr+08OxE74VrB6Htrjf+S4h71sQo/BuP9/uLJJsh+w4iSUs9+GMvXMskdIGee5malJX5ZkJy+l6/rDieSQnzf+fTmTTjWdu1uph/kOAP8BQNCVkFwWiUZRq1Zg2x73qSfeETaUyaegTD4Ne/QVsHb8e9iJHbKjkkrocRj3vxt87gXAKIOZZcCoAGYFzKws/bcKYFQa/6/bxy0VHUINA1oIQg0BWrjxqxpa+m/hxsbKkVsh9B7b7+EBvngGypl/Bp89DGDlh658LrsAn/ZkIS8xF08ku9sEpT1VAPtW+6JVVwAAYO++/R8A8B4XgvJEtVJGIU/HAvuJPXQDrC2vhz16u7RmKz1FWI2EwDIBYQK2dfVXZluAsADb/NGvtgUmGqdoBFMbf8ZcBdiPfhVcafz3K/+fqYCiNiZ6Rt+TVdkW+OwhKBe+31L5Yc55cXpqkrKlHhCORH4QiUSddwTzzgcz6dR7V/uiVjti/BGAXwfgy/dSwVAYlXIFpunb+kWkTTx7Ejx7stFudcM9sDbe598jhH7AlMbJimUqCvdpVQHfYoWLjQ6Vk0+DGa2/nsznFycB+LmSHAHAGDsWiUT9fOzvEhpz9qpaWgEAgL379v8qgIyDoDxl1OtorJ6RfiVimxubBtff4/tCLmTAGGUoU09DufR4S22Jr8c5r0xPTYY8iIy4LJFMHtL1wO2y42jizZl0qqW5up2emJ8D8N8B3NdRSB7TdB2BYBC1alV2KMQjjSIpX4J6/Cuw194O4+ZfbrxzJkQSZlagHv08+MyhxquVDhWLhQsAqPCPzymK8riuB+6XHUcTPwTQcn/xlg/QToyPCQAPwMcripFoDIwx2WEQr9km+NSzAOh7TeQSQONedDD5c87rpWKRlv79r5JIDrlTytIbAsADmXSq5Tm6rQoaE+NjTwL463aj6hZFURAKR2SHQbpABJKA6suDKWSQqCGIgLMjjuVS6Swom/W9QCDwhKIoG2XH0cRfZ9Kptnpjd1JC610Aih18rivCkQi4QjuU+52IrpcdAiEAABHp/F7knJuFQn6Xi+EQb0zG4olXyw6iiSIac3Nb2k4AJsbHJgH8Ybuf6xbGGKJROknT70RknewQCAHg7F6sVipnQDX/fS8SjZ5hjPl55/EfZtKptntjt7MJ8Fp/AuCtAHZ2+HlPBYIhaOUyDIOOBfYrJ09dAKAe/wrAVdhDu2EndwKK7lJkpCdYdfDcafCF44BtwrzxFzoeqtN7kXFu5/OLVPPf5xhjz4fDkdfIjqOJM2jMyW3rKAGYGB+r7d23fx+A/9PJ57shGosju0C9tPuV0wSAzxwCq8xBOfPPAFNgJ7ZBDO9u9IyPb3OncQ3xD7MGnj8Hnj2+1Ob5XKMoEgARGgEcJQCdrQDUa7UzQgha/vc3kUgmO31Q7pZ9mXSqo654Hf/GJsbHvrJ33/5/BfATnY7hJVXTEAyFUK1UZIdCPOAoAbANsOo1yaGwwHOngdxpKPgWwBhEeC1EfAvs2JU2s5sBhZKCnmDVwPMXl1o2nwfLXwArzwAr1Dxh1flGQx6+TBWlFnSSADDGxGIuSxtZfE5V1Uc1Tf8x2XE08d1MOtXxg7jTzObtAJ6DT99hRaIx1KpVtFrsiPQGoUUc1ZdvNhk0LiDAStNgpWnwyaeXPtRICuz4Voj4lkZSEKOkQDqrBl5oTPYsfwE8f3717+/1hAArz0BEOyt02jiREgDM1h/CDMM4K4QY7IYX/ldMJIf8XJvBQuNofsccJQAT42PP7923/1MA/puTcbzCOUc4EkWp2Nsd1chLifBaR59npekOLtpICpTSNDD51NJADCI4DBFeBxFZ2/gnvLbx78EE6GSXWwRYdRGsPA1WngErLf1TngarLrQ32a+AlaY7TgAAQIRGW64AyBgTuWx2TccXI10RDIae4Zz7udvfpzLp1PNOBnDj3cZ7AfwygCEXxnJdKBxGtVKGZVmyQyFu0WOOPt5RArAcIcAq82CVeWD+yEv/n6I3koHIusbKQWQdRHgECAxB6DGACla9lBCN1se1LFh5Drx0ZbJv/Op1t0On94TQ4y2ne5ZlXRTC3uLogsRr56OxmJ8r/uUAvM/pII4TgInxsfm9+/b/TwAfdTqWFxhjiMRiyOdyskMhLnHaXpaVZ12KpAmrDla4ePWp8CXvyBiHCCRg3vm2xmuEAcYLF6Ee+BRYbREQ8lp6O70nWr0nGWPILsz7+TgZARCLxScZY34+ofH7mXRqzukgnRQCWs6fATjq0liuCwSC0HQ65tU3nCYANcmto4UNVs1CPfApwCi7N65tgpWmwMqzYJUFsFqu8VRtlAGrttQOuPneB9hm42uNMli90BijstAYszTlqOTtyxjlxuRfzUqd/AEX7okWV6Vs275s2zYt//sY5/zZYCh0r+w4mjiKxpzrmCvHGybGx8y9+/bvBfBPboznhWgsjuy844SJ+IDjFYC65ARgCatmoR35HIw73urOgFwFqyxAO/DJ5hMq4wBTAL6U/9t240jcKp8x7vyvjo9fXks78rnG5O8DTu8J0WICkMsuuPXQRbxhJZJJZ7Wdvbc3k065kom7djNOjI99C8A33BrPbaqqIhSilbd+IDRnewAgewXgGnzmIJRz33VtPHvkFpg3/1LzLxJ249ibWWv8YxurPoGbN/8S7JFbXItTOfdd8JmDro3nmNN7ItDSPTltmiYd/fMxTdMeVVXtBtlxNPEPmXTqW24N5nY2+iAA35bfC0ejYJwS8J7nZAXAtsDcXHZ3gXriq+ALJ1wbz9r0Glg73ujeeDveCGuTe4XQ+MIJqCe+6tp4bmBGGbA73yjcyqpUNrvg25+NBACQjSeSt8kOogkDwO+6OaCrs+HE+NhxAB9zc0w3cc4RiVCfgF7nqAZAPQ/fdbQWNtRDn3Z1Ody84edgbXDeu8Ta8GqYN/ycCxE1sGoW6qFPS3/n/3LC0WuA1ValGGPzpmEM9o5PnwuFw89zzn15mm3JxzLp1HE3B/TicfgPAMx4MK4rQuEwFNXvlR1JU05WAHzy/v96zChCO/gXjeV4l5iv+C+whzuvY2IP74H5iv/iWjywDWgH/wLM8GkzUSf3RpM9AIwxLMzPeXuOkTjCGDsVjcb8XO9/BsAH3B7U9QRgYnwsD2DM7XHdFI05fIdMpHKyB4DV/FsUiuUvQD3yeRcHVGDc8VaI6Ia2PyqiGxqbE5l7RT7VI58Hy19wbTy3Obk3mq1KWZZ13jTN9r8JpGti8fgiXNoU75H3ZNKpRbcH9eqF+KfRKBHsS7oegB6gEq49SQkA3MGkZFXdi8UDyuSTUM4/7N6AagjGXb/VKFfbIhFIwrjrtwA15FoYyvmHoUw+6dp4nnByb3B12bLQjHN7YX5uxEFUxGNcUZ4MBIJ3y46jiQMAHvJiYE8SgInxMRsOaxR7LRrz+0kPsizm7JZlDjZ6dYt6/P+AZ0+6Np4IJmHc9ZuAGmzh4kEYd/0mRLD1hGE1PHsS6nHfNg69yvG9scy9WSmXTgkh6PiRf9WTiWRn7Ry754FMOuXJphnPtsRPjI/9AMAXvRrfKUVREApHZIdB2uZwA5/vNp8tw4NNgSK2qfFU36x5kRJorBbEOq+Jfz3/bvpbhuMYX3pvcs4rhXzez0fKBp6u648rqrpNdhxNfCmTTn3fq8G9PhP3TgC+7ccbiUbB6Vhgj3GaAPh/BQAAWL0A7eBfurop0E7uaKwELNf2lmsw7vpN2EkXG9TZBrSDf9moRtgLHN8bL703c7nsJKgjlJ/NxhNJPy/9VwG8w8sLeDr7TYyPnQMw7uU1nGCMIRKlDYE9xekJvl54El3C8uehHf4c3Dy2aA/dAOPOtzXeWV/BVRh3vg32kJsPqwLa4c+B5c+7OKbHnN4bL/02zdSq1Z3OBiReCkciLzLG/DwBfCSTTp3z8gLdePz9IwCt9cmUIBgKQVWXeSIiPuVwMuyBPQDX4lNPQz3x966Oaa+5qbHDnysAb5wUsNfc5Oo11BN/Dz71tKtjes7xvdG4NxljYn5ulp78fYwxdjQSifr52N8lNOZOT3meAEyMj5UB/J7X13GCjgUOkB5aAbhCOfttKBcfcXVMe+QVMG57C4zb3gJ75BWujq1cfATK2W+7OmZXuHRvGIZxxrbtUVcGI56IJxIGuvMA3Knfy6RTnpcs7cofwMT42OcAPN6Na3VC03UEgi3skCa9z8kRQonUY18Cn33B1THttbfDXnu7q2Py2RegHvuSq2N2jQv3BufczGUX3NtFSVynKOpjuh5w98Z31+MAPjqx3J8AACAASURBVNeNC3UzA3oAvqvB+iORaAyM0aqd7zVrZ9sKrUdPZAkb2vOfAct7+krQEZY/B+35z/TkKgsA5/eGECgWC6eFEFRkxL8qiWRyu+wgmhBoHPvrylzZtQRgYnzsKQB/1a3rtYuOBQ4G4WJxm66z6tCe+yRYZV52JC/DKvPQnvskYPVuxVun9wbnvFAqFjuvvUw8FwgEn1AUZaPsOJr460w69VS3LtbtdyDvAuDbM0HhSARc6c0l4oFhG86OxvVyAoCl44HPfRzwU0dDowztuY/3znG/lTi5N2wDC3NT7hVuIF64HIvH75UdRBNFNObIrulqAjAxPjYF4A+7ec12MMYQpWOBvsequY4/K3r1FcA1WGkG2oFPulojoGO2Ae3AJ8FKvu3/1TIn9war5U2jXt/qYjjEZdFo7CxjzM9PAPsz6dRkNy8oYxfkBIDTEq7bkkAwCE2jY4F+xmoOemL0+ArAFTx3Gtrzf+18T4QTQkB7/q/Bc77969weB/eGWZx1MRDiNsbY86Fw2M/H/k6jMTd2VdcTgInxsRqAB7t93XZQnwCfqzlYAdCjQJ9s9uQzB6Ae+RvI2VsroB75G/CZAxKu7QHGmnb0W41dmvNzJ7lBZyeSQ37//uzLpFO1bl9UyjnIifGxrwL4joxrt0LVNARD/fGk2I9Y1cEKANcgQv3TnE25/ATUo19Ad5MAAfXoF6BcfqKL1/SWCI0sXyK51c+XF1yMhrhJVdXHNE27WXYcTfxrJp36iowLyyyE8HYAvi3LRscC/Ys5WAEAGr3u+4ly8VGox77cteupx74M5eKjXbteNzi9J+wKJQA+VUwkh26UHUQTFhpzoRTSEoCJ8bEXAHxS1vVXwzlHONL5kiDxDiUAL6dc+D7U494/RKjHvwLlgmfNyaRxek/QCoA/BUOhZzjnfq7K+KlMOvW8rIvLLoX4PgC+PToTCoeh0LFA/3HyCgCAHfHzMeDOKRceBvew+Q7PX4By4WHPxpfJ6T1hUwLgQ+xcNBq7X3YUTWQBvFdmAFITgInxsXkA75cZQzOMMUSoT4DvsKqzQjj9uAIg9DiMex6AHffuJJod3wLjngcg9P7bJOv4FUCJTgH4TSwWm2aM6bLjaOL3M+mU1KpeslcAAODPARyRHcRKAoEgdN3P99DgYbU8WLXzJy4RWQ+h909iJ+LbYNz3DtiJHZ5fy07sgHHfOyDi2zy/VrcIPQYRWd/x5+3SLETFtwuZA4lz/mwwFHq17DiaOArg47KDkJ4ATIyPmQD2yo6jmQgdC/Qd5uTsOWOwR29zLxiJrA2vRv1VD0AEkl27pggkUX/VA7A2+Pnna+vs0dscHQ21Zl90MRriAjORTPr9h/beTDplyg5CegIAABPjY/8MwN2m5y5SVRWhcO9XkOsnPOus+IzbXfC6jmswb3oTzFvf7Oj4mqPr3/pmmDe9Sc71XeT0XrBmjrkUCXGDpmmPqap2g+w4mvhGJp36luwgAJ8kAEseBODbTiLhSBSM++mPa7A5rT5nD98IKL3ZtE1EN6J+7ztgbXm97FBgbXk96ve+AyLaoxsrlUDjXnCAVgB8JRtPJP28vFcH8Luyg7jCNzPaxPjYCQAfkx3HSjjniNCxQN9gpcuAWel8AK7CHrnFvYC6gsHa+oalCdc/GxlFdEMjIdn6BgC9VTvDHrkF4J0XiRNGGdaidycvSHtC4fDznPMh2XE08bFMOnVCdhBX+CYBWPIBAL7tKhIKh6Gofq8oOSCEAM+dcTSEtfXHXQrGeyIQh3H3b8G88RcdTVie4SrMG38Rxt2/BRHw++vXH3F6D1izL8rtx0CuYoydjEZjr5UdRxMzaMxxvuGrBGBifCwP4N2y42gmSscCfcPxa4DkLtjD/m/fbq+9Hcb974K95ibZoazKXnNTI9Ye2GNhD++BndzlaAxa/vePWDyeB+Dnwi1jmXQqLzuIa/kqAVjyGQDPyg5iJboegB7ozXfH/YbPveB4DGvnT7sQiTdEcBjGnb8B447fgNB65/WT0KIw7vgNGHf+BkRwWHY4K3Lje29eesaFSIhTiqI8EQgE75YdRxPPAfi07CCu57sEYGJ8zAbwgOw4monG4n3TUa6XscIlMIeV7+yhG2AP7XYpIpdwBdaON6L+2vfAHvX/k/RK7NHbUX/te2DteCPA/fVgZg/thj3kbKO4NX8KVvacSxERB+qJZNI/m2KW90AmnbJlB3E93yUAADAxPvYIgC/IjmMliqIgHKJjgX6gXHrc8RjmLb/iqBe8m+w1N6F+/7th3vBznh+v49PPgc96XIacazBv+DnU73+3f15hqKHG99wh49S/uhAMcUrXA48riupdCUznvphJp34gO4jl+DIBWPJOAA62eXsrHI2C07FA6ZSpZwDL2elRER6FceubIXMHu4hugHHHW2Hc/dsQ4bUeX0xAPfF1aIc+De3AX0A99U143U5YhNfCuPu3YdzxVsknGBiMW98MEXbWH0aYNRhn+6sjYo+aiScSr5QdRBMVAO+QHcRKfDuDTYyPnQfwEdlxrIQxhkiUNgRKZ1agzBxwPIw9ehusnW90IaD2iOhGGLe/BfX73wV77R3eX9CsQjvwSShnv30lAiin/xHawYcAq+b55e21d6B+/7tg3P4WKbUDrJ1vdKUKpHn+hxBG2YWIiBORSPQ4Y8zPG2Q+kkmnfHtO1IfniV7iQwDeAmCz7ECWEwyFUCmXYZqG7FAGGr/0mCtlac2dPwNYdSjnvF/aFbFNMHf+9NJu+e6sPLDyDLQDnwIrTb/s//GZg9CfnIFx59sgQiNeRwJ73V2or7sTfOYQ1NP/CFa45PE1AWvbTzS+xy6o0/K/dIyxo+FIxM/H/i6iMYf5FhM+P8O6d9/+XwHwOdlxrMSo15HLUitQ2eqveS9ExJ2lcz71LLQjf+P41cLLB9Zgr70d1sZ7l96Hd++VA58/Au3QZ1ctniS0CMzb39Ll45ECfP4YlMtPgM8cAmyXE2o1AOOW/wf2ujtdGc7OX0bx79/uylikc4nk0PO6rvu56t+vZtIp385dQA8kAACwd9/+RwG8RnYcK8kv5lCrVmWHMdDstXfAuOOtro3HipNQX/wy+MJxpyPBHtoFe8O9sNbdCahBV+Jrh3LuO1BPfK31gjWMw9zzC3IKJZlVKNMHwCefAM+egrO9CQz2mhth3vgm15JDAKh8/49hXHjCtfFI+xRFfWx4zRrfzgkAHsukU35enQDg/1cAVzwA4En4tM5oNBpDvVZDLyRT/YrPHASfPwJ7jTvlfUV0A4xX/n9gpRkoFx+BMvkE0NI7XwYRWQc7uRMiuRP28B6IoJzKpKyWg3r4c+DzR9v7oLCXkp9jMG/+le5W9lODsDbdB2vTfWDVLHj2BFjuNHjubKP8cyt/x7QwrI33wdr8Y443+13PvHyAJn/5yolk0vve150T8PlR9it6YgUAAPbu2/9pAL8uO46VlIpFlEtF2WEMNBEeRf3+d3tTKldYYOV5sPIMWHkWrDILgAFqCEILNX4NJGAndgCa/COiyuSTUI992Vm/BADQwjBuehPs9fe4E5gTZhU8fw6stggYZTCjvJSU2RChUYjwKER4LUR4DcA8qDtgGyh+40HYhSn3xyYtCwSD34vHE2+QHUcTn82kU76dq67VKysAQKNE8P8NwJdb78ORCKrVCmzLkh3KwGLlWShnv+1NdT+mQETWurqU7AVWL0A98rfune83ytCe/yvY0wdg3vxLELrEv35q0HHnPidqh79Gk798l2Ox+L2yg2iiAOBdsoNolW+PAV5vYnxsCsAHZcexEsYYonQsUDr1zLfBKnOyw5CCTz8L7bH9nhT34TMHoT3+h+DTzo9c9iK7OI3a4a/IDmPgRaOxc4wxf1TtWt7+TDrVM1lizyQASz4K4JTsIFYSCAahad5WbyOrsA2oR780UB3amFGCdugz0A59BswoeXedehHaoYegPf/ZFvdD9AkhUH3qIcCi474yMc4PhcLh+2XH0cQpNOaontFTCcDE+FgdwIOy42gmGuudVqj9is8fgXr872SH0RV89lDjqX+6e/2z+NQz0B/bDz7rvBlTL6g+81mYlwdz5cNH7EQiqcsOYhX7MumU99W0XNQzmwCvtXff/m8D+Hey41hJIb+IasW3VYwHhrn7P8La/pOyw/CGWYF67MtQJp+UGoa18V6YN/6ib3opuK12+KuoHfD1Ue6BoKraD4aGh18nO44mvpNJp3w7J62klzYBXuvtAA7Cp72fI9EYatUqHQuUTD3xdUCPw9ro5z1D7RLgU89BPf4VsFpOdjCN4j0LL8Lc/fOw198Fn57U7Yhx+ns0+ftDIZFM3iw7iCYsNOakntOTKwAAsHff/v8N4Ldlx7GScqmEUrEgOwzCOIw73wZ75BWyI3FIgE8fhHr6m2DFSdnBLEtEN8Dc+TOw192BXk8EzEvPovzwRwBBp3pkC4ZCD8dicQlVqVr28Uw65du5qJme2gNwnfcB8G0N3lA4DEXx5QLFYBE2tEOf7uH31aJRp//xD0E79JBvJ3+gUT1RO/QQ9Mc/BD5zEF53GPSKeekZVB6ZoMnfBxhjZ6PRmJ83/mXRmIt6Us+uAADA3n37/zuAlOw4VlKrVZHPyV+mJQ3W1jfA3P2fAN4biRmffR7qqW+CFS7KDqUjIrYZ5q6fcaX7XlfYJqrPZVA/9k3ZkZAlsXj8qWAw9CrZcTTxO5l0yrdz0Gp6dQ/AFZ8A8JsAfLm+GwgEoes66nWXm8qQjijnvweePQnj9l+HCPu3oA+fOwz11D+A5S/IDsURVrgI7cCnIOJbYO76WV+/hrHzk6g88lFY2TOyQyFLOOfP+HzyPwLgz2UH4URPrwAAwN59+38SwD/LjmMlpmkiOz+YhWl8SwnAvPk/u9JC2D0CfP5o44l/8ZzsYDwhEtsaKwJrboaf9ggYpx9G9amHIExq6OUj5tDwmvOqqu6UHUgTb8ykU76de1rR8wkAAOzdt/9rAP6j7DhWUizkUSkPUOGUHmGP3AJr50/DTmyXE4CwwXOnwKcPgs8eBKsOxusiEUzCHr0D9ro7YCd3AUzOViRr7gRqz38Z5uXnpFyfrEzT9IeTQ0N+3vj395l0yrdzTqt6/RXAFQ8C+CkAviwUEY5EUa1WIWxbdijkGnzuCPjcEdjDN8La+VOwh27w/qK2Bb7wYqN74ewhsPrgNZBi1RyUCw9DufAwhB6FPXo77LV3NOr8d2F/hjVztDHxT7lfMpm4YiGRSNwhO4gmfF+QrlV9sQIAAHv37f8wgHfIjmMllXIZxUJedhikCRFZB3vdXbDW3QUR3ejewFYdfP4IlOmD4HOHnXfo61dqCPbIK2Ctu6PR1llxL5+3c+dhnH8cxrkfws5fcm1c4r5QOPz9aDT2etlxNDGeSad8O9e0o58SgBiAEwDWyY5lJQvzc7BMU3YYpAUishb20G6I2CaI2GbY0U2tTUhmDbx0Gaw4CVa8DFa8DJ47C9hUR74tXIOd3A4R3bj0zwbYkY2AGlj9s1YdvHgZtfkzFWv2RMicOQI7f9n7mIljjLETI6Nrd8KnRd4ATAPYk0mn+uJprm8SAADYu2//WwA8JDuOldTrNSxms7LDIJ1gDEKLAmoQUEMQagjgKmDVwIwKYFbAzAo93Xvtyp+9GoLQQoASAGzzR3/2ZhXMLCGfy56uVat+3kBGlhFPJJ8LBAJ3yY6jibdm0infzjHt6pc9AFd8FsBvAXil5DiWpesB6IEA6rWe6hdBAEAIsHoBqDeqO/pnD/uAuZJoYeXvQa1WPVGrVnd3LyjiBkVRnggEAn6u2/0sgM/IDsJNvVwJ8GUmxsdsAA/IjqOZaCwOMJo+CPGCEOJyfnGRJv/eU0skh1zceOOJBzLpVF/t5O6rBAAAJsbHHgXwedlxrERRFIRDYdlhENJ3OOfFudkZ/1Z4IivS9cDjiqJskR1HE1/IpFOPyA7CbX2XACx5JwDfvowNR6PgvF//6AnpPs65NTszbaD/XmsOgul4IuHnin8VNOaUvtOXs9DE+NgFAB+SHcdKGGOIRGOywyCkLzDGRHZh/qJt20OyYyHti0SiJxhjEdlxNPGRTDp1XnYQXujLBGDJhwH4tph6MBSCqmqywyCkpzHGkM/nT9Xr9W2yYyHtY4wdCUcir5UdRxMX4eOHSaf6NgGYGB/z/bJNNEarAIQ4USoWTlQr5S6UcCQeEPFE0oa/D9W8M5NO9W0d975NAABgYnzs8wAelR3HSjRdRyAYlB0GIT2pUikfL5VKtOO/Rymq+piu67fKjqOJxzLp1N/KDsJLfZ0ALHkAgG+PbkSjMTA6FkhIW2q16oliobBHdhykY+VkIrlLdhBNCPj8SLkb+j4BmBgfewaNAkG+xBUFobCf978Q4i+GYZyis/69LRAMPskVZb3sOJr4bCadelp2EF7r+wRgybsB+LZ2czgSAVf8WvqaEP8wTfNMLrvg5ydHsrpLsVj8PtlBNFFAY87oewORAEyMj00D+KDsOFbCGEOUjgUS0pRt2xeyC/M7ZMdBnInGYucZY37e/PTBTDo1JTuIbhiIBGDJnwI4KTuIlQSCQWgaHQskZDkCmJyfm/VzpTjSAs75wVAofL/sOJo4BeCjsoPoloFJACbGx+oAHpQdRzPRWFx2CIT4D2OzczPTfn5fTFpjxxNJPz/5A8CDmXSqLjuIbhmYBAAAJsbHvg7g27LjWImqaQiGQrLDIMQ3GGPZ2empIfj7rDhpgappj2qadqPsOJr4l0w69TXZQXTTQCUAS94OwJQdxEoidCyQEAAA5zw/OzMdAdX37wf5RCJ5i+wgmrDQmBsGysAlABPjY0cAfEJ2HCvhnCMcicoOgxCpOOelmekpVQihy46FOBcKhZ7jnK+RHUcTn8ikU4dlB9FtA5cALHk/gAXZQawkFA5DoWOBZEBxzqsz01NCCEF9s/sAY+xsNBZ/jew4mlgA8D7ZQcgwkAnAxPiYr7/hjDFEqE8AGUCc8/rszHRFCEHLYH0iGovNAvDzEaf3Z9Ip3z4QemkgE4AlnwDg2yWfQCAIXafVTzI4OOfm7Mz0IrX17R+c86eDwdCrZMfRhK9fCXttYBOAifEx32/6iNCxQDIgOOfW/NzsnG3bo7JjIa4xE8mhYdlBrOLtmXTKt5vCvTawCQAATIyP/QsA3x77UFUVoTC9BiX9jXFuz8/PTZqmSWf9+4im64+qqrpTdhxNfD2TTvn2WHg3DHQCsORBAL4t/BCORME4fZtIf+KcW9n5uUumYWyWHQtx1UIikbhTdhBN+L4wXDcM/MwyMT52CsCE7DhWwjlHhI4Fkj7EOa/Pzc3OG4ZBJX77TDgceYExnpAdRxN/mkmnfFsavlsGPgFYsh+Ab5s/hMJhKCrVQiH9g3NenpmZrlimuVZ2LMRdjLHjkWj0tbLjaMLXzeG6iRIAABPjY75v/xilY4GkTzDOczPTU0zYtp+fEEmHYvFEGYCfC5m8O5NO+bY9fDdRAvAjnwXwtOwgVqLrAeiBgOwwCHFqemZqMiaEoKYXfUhRlB8GAgE/v/t/Fo2f9QSUAFw1MT4mADwgO45morE4QH0CSI+ybfv87Mz0Ovj76ZB0rpZIDm2SHcQqHsikU7bsIPyCEoBrTIyPPQbgb2XHsRJFURAO0bFA0nsMwzg5Pze7VXYcxDt6IPC4oih+3tD5+Uw69YjsIPyEEoCXeyeAsuwgVhKORsHpWCDpFYyhUikfz2UXbpAdCvHUdDye8HPFvwoaP9vJNWgmuc7E+NhFAB+SHcdKGGOIRGlDIPE/xpgoFvInioXCHtmxEG9FItGTjLGI7Dia+HAmnbogOwi/oQRgeR8BcF52ECsJhkJQNT/31iCDjnFu53LZs5VyebfsWIi3GGOHw5GIn7v9XQDwYdlB+BElAMuYGB/z/XJRlFYBiE9xzs2FudnJeq22Q3YsxHMinkgKAH7enfzOTDrl29e6MlECsIKJ8bEvAPiB7DhWouk6AsGg7DAIeQnOeW12Zjpnmqbfd4MTF6iq+piu67fKjqOJRzPp1OdlB+FXlAA093YAvj0yEo3GwOhYIPEJznlxZnrKsG17RHYspCtKiURyl+wgmrDh86PdslEC0MTE+NizAD4jO46VcEVBKOznfTdkUDDGFmampzQhBDWuGBCBYPAprih+7uD42Uw69YzsIPyMEoDVvRuAb8tGhiMRcIXqqhB5BMTlmemppBCCSlUOjouxWPw+2UE04fvy7n5ACcAqJsbHZgB8QHYcK2GM0YZAIo1lWWfnZmY2gn6WDJRoLHaRMebnTUgfzKRT07KD8DtqMdeajwF4GwCpR5oSkVGMDG1BKBBDSI8iGIhCVXQAgGUaEELIDI8MFAbGWLVer22XHQkBAAYBFQIqABU2ArBFBF5szmeM24C4DwAELFhmGXWziFo1i4tTz+LS1EHXr9mmkwA+KjuIXsBo0mjN3n37/wOAr3f7ukOx9di2/lZsGNmFcJCapxFCWmMLoFLjKFYZipXuLdAo3EKtOonT5/8V5y491bXrXuP/yqRTXf9Z3YsoAWjD3n37vwXg33fjWpFQErfufD02r72pG5cjhPSxusmwUOAoVbv8psZewMEjGczMn+jWFb+dSae68jO6H9ArgPbsBXAQHv65McZwy47XYc/WV4Mzeq1KCHFOVwXWD1mo1G3M5BSYVpeOD/Nh3Hnr76BaPYVHnvwYbOHpqWoTjZ/RpEU0w7RhYnzsCICPezW+qui4/9afx03b7qPJnxDiupAusGmNhYDWvZVfASAQ3IV/97oPIBiIe3mpT2TSqcNeXqDf0CzTvt8HMO/2oEE9ijfc/avYMEJN0wgh3lEVgU1rTESC3a1xJlgcb3jN+5GMe1IkcgHA+70YuJ9RAtCmifGxLID3uTmmwlW85vZfQCI66uawhBCyLMaAdcnurgQAgGXruO/uvdC1sNtDvz+TTi24PWi/owSgM58E8IJbg91z889iKObnglqEkH7DGLBh2ISqdDkJEAH8+P3/Ay5OP4cB/Llbgw0SSgA6MDE+ZqHRJ8CxPVtfjc1rb3RjKEIIaYvCgfVDVvcvzIZw/91vdWu0t2fSKQm/id5HCUCHJsbHvgPgq07G0LUQbtp2v0sREUJI+wKaQCzU/Z5n8fitiIYd9436Wiad+hc34hlElAA48yCAWqcfvnn7a6CpVD6dECLXcMxGtxuL2oLhlbf/upMh6mj8DCYdogTAgYnxsdMAJjr5bCgQxc6Nd7ocESGEtE9VBOLh7q8CBIJbkYhv7PTjH82kU6fcjGfQUALg3H4AU+1+aOPIHnBOXfwIIf4Q7fKxQAAQAtiz4yc7+eg0gA+6HM7AoQTAoYnxsSKAd7X7uY103p8Q4iNBXUCRMCMMJTvaBP3uTDpVcDuWQUMJgDv+CkDLXS80VcfI0FYPwyGEkPaFA91fBQCLIdReo7NnAHzGo2gGCiUALpgYHxMAHmj16xORtVTqlxDiOwG9+83hhAA2rrutnY88kEmnqIudC2gWcsnE+NjjAD7XytcGA1GPoyGEkPapkmaESLjlKqh/m0mnHvUylkFCCYC7fg9AebUvogSAEOJHSperAl4RDg638mVlNH7GEpdQAuCiifGxiwD+aLWvC+qRLkRDCCHtkbUCoAda2gPw4Uw6dcHrWAYJJQDuGwdwrtkXKFztUiiEENI6xuSsAChs1Z+J5wF8uAuhDBRKAFw2MT5WAfBO2XEQQkgfeWcmnarIDqLfUALggYnxsS8C+L7sOAghpA88kkmnviA7iH5ECYB33g5AwqFaQgjpGzbaOGJN2kMJgEcmxseeA/CQ7DgIIaSHfSaTTj0rO4h+RQmAt94DYFF2EIQQ0oPyAMZkB9HPKAHw0MT42AyAD8iOgxBCetAHM+nUtOwg+hklAN77GIDjsoMghJAechLAn8oOot9RAuCxifExA8Dvyo6DEEJ6yO9m0qm67CD6HSUAXTAxPvYPAL4lOw5CCOkB386kU38vO4hBQAlA9+wFYMoOghBCfMxE4wg16QJKALpkYnzsKIA/kx0HIYT42J9n0qkjsoMYFJQAdNf/BDAvOwhCCPGhBQDvlx3EIKGuNF00MT6W3btv/3sBfFx2LMuxbIFi2USpakEIr5qCMCgcUBUOVWFQFAZVYY1/VxmYR1clhPje+zLpVFZ2EIOEEoDu+5SqaH8AYER2INeaXqjhxfNFGKa86sUKZ4iFVcQiKuJhFfGIhnBQkRYPIaQ7OFerAD4hO45Bw7x70iMr+eYXJ/8uHhn5BdlxXDG9UMMLp/Oyw1iWqjCMJgPYNBpEIqrJDoeQvmbZwNnp7v8905XyyV/59fDurl94wNEKgATxyMgF2TFcYVkCx84VZIexItMSmJyvYnK+imhIxcbRIDasCUJV6GUBIf1C04JF2TEMItoEOODyZROm1RurQMWKiePni3jk0Dwuz1Vlh0MIIT2NEoABV65askNom2UJHD1bwMGTi6gb1HGZEEI6QQnAwOuNp//lzOXq+OHhLOZyVDGU9CchgGrdRrZgIFswUKlZoG1bxC20B4D0NMO0cejUIu7cncBwXJcdDiGuyBUNXJqtYiZbg22/dMZnAIbiOjaNBjGaDIDRdhjSIUoASM8TAjh0Ko97bkwiGqZbmvQu2xY4fKaAmWxtxa8RABbydSzk64iGVNyxO46gTsdlSfvoFQDpC5YlcODEIqp12hNAetezxxebTv7XK1ZMPHUkh7rE+h2kd1ECQPpGzbBx2Kf1DAhZzWLRwGLRaPtzddPGbJb2wZD2UQJA+kquaGA+Tz8MSe/JFtqf/K9YLHX+WTK4KAEgfef0pZLsEAhpm+1kez+dDCAdoB1TxBHe9hZkAdvjH1b5kom5XB0jSToVQAghK6EEgHQsGlZx7y1DbX/OMG2UaxYqVevqr7mSiWrNvaJE56bKlAAQJnYsdQAAGtdJREFUQkgTlACQrtNUjoTKkYj8qOmIADCbreHMZBnFsun4GoslA6YlqGcAIYSsgPYAEF9gANYOBfCqm5PYNBp0PJ4QQLZAmwEJIWQllAAQX+GM4aZtMWxZF3I81kKedkYTQshKKAEgvrR7cxSJqLO+5Fk6DkgIISuiBID4EmPA7i0RR2OUqlbPtDomhJBuowSA+FYiojleBaB2wYQQsjxKAIivjTo8ymdQjXRCCFkWJQDE10IBZ13ODJNeARBCyHIoASC+Fg46TQBoBYAQQpZDCQDxNecrAJQAEELIcigBIL6mcIaA3vlt6nXfAUII6VWUABDfC2id36ZUCpgQQpZHCQDxvZqDo3wKJQCEELIsSgCIr1m2QK3eeQJAKwCEELI8SgCIr1UctghWFXm3uBCNY4j9sg3h6u+nX35Dq7BsQZUkSV+jdsDE18pVZwlAxOExwlYUyyYW8nUslkzUDRt100bdsK9OHgyNFsiaxqGrDOGggqGYjuG4Bk31Vw5eN23M5+ooVS3UjMbvo27YqBn2S05UqAqDqnBoKoOqMAR1BYmohmRM68qfuRtsW2CxZCJXMJAvGzBMAdO0YVgChmlfTXQ4ZwhoHLrGEVj6R9c4QgEFaxK6L1aZKjULk3PVtj+nKAzJqAbdwT4b0rsoASC+VnawAqAv/aB2mxDATLaGuVwNCwVj1XLDAo2JtW7aKAHIFgxcmq2CAYiGVaxJ6Ng8GnJ02sGJctXCbK6GuVwdi0WjpRUL0xIwLQvVq/2WDEzONyYgTeVIRjUMxzVsGAlC4fInyCvKVQuT81VkCwYKJaOlUyK2LVCpWcuuRnEGDCd0rB8OYiSpS/u95ooGcsXOu1/u2RJ1pQMn6S2UABBfm8123tEvFnb39hYCmFqo4szlsuNXE0AjMSiUTRTKJs5PlbFhJIht68OOax+0wrYFzk9XMDVfRcnhKsv1DNPGbK6G2VwNpy+XsHltCFvWhqSudhTKJs5OljGbrbn6SsYWwFyujrlcHQpnGEnq2DgSxHDcWQnrbjt+oYhwSEEy2ltxE2coASC+lSsayJc6f6pxMwGYmq/hzGTJ8SuJldgCuDRbxeW5KtYPB7F7SxSa6s3T5PxiHS+eL7qSxKzGMAXOXC7j/FQFG0eD2LUp0tWn5GLFxMmLJcwvet8a2rIFphdqmF6oYfPaEHZviYAz/6x+rObCVAXJGygBGCSUABBfsoXAiQtFR2OMJgOO4zAtgSNnCpjN1RyP1QohsLREXcetO+OOuyFeq1q3cfx8sWu/l2tZtsCF6QpyBQO33xBHUPd+lWMmW8ORMwVYEqpBXZypYLFo4NadccflrLtlPl+n3hkDhnZ+EF968VwR+ZLZ8efDQQXxiLP8tlA28eSRrJQJs1q38cyLOZydLLsyXqFs4ocvLEj5vVwfx1NHcsgWOl/ZacXpSyU8fyovZfK/olA28eTRLGaycv/M21Gte78qRPyDEgDiK6Yl8PypPC53sKP5WuvXBB19/tJsFU8fzXVlmXwlQgCnliYyJ0fvbCHwwmm5k+G16qaN547nML3g/sQoBHDoVB5nXEqcnLKWVpBk3kftqBm9ESdxByUAxBcsW+DiTAVPHHb+xMQZwwYHCcCl2SqOnSvA9smB95lsDUfPFTr+fL5oerZ3oVNCAEfPFlCsdL7Ks5xTl0qY9dkTt2U39kH0Ak1i3QzSfbQHgHROoKNCKdV640hVufqjXwtl07WiK1vWhRDs8EjdbK6GF893Ptl6ZXKuCk1h2L0l2vZn3d7l7xbLFjh0Mo9X3zLkyln6mWwN56b8OdE6OaLXTcGAApRkR0G6hRIA0rFixcTDz83JDuMldJVj+4ZwR59dLBp44XTBt5Xuzk9XENAVbG3zvHanyVA3VGoWDp/O447dCUfjlKsWjpz1X+J2hV9Wk5qJhVVHjbdI76HvNukrN2yJdPQ0Wa3bOHhyEbZP3pOv5NSlUtsbtbqx496JucW642X7o+cKsHxctjca8v+z1pa1VAho0FACQPrG5rWhjt/9n7hQdP0IlMKZ62VibVvgxIX21mjDQcWVVQBVYZ51Vzzt4B15rmgg5/GpAqcSEfeOc3ph40gQG0acbZwlvcf/aSkhLRiO69jTwftxAFjI1105qhUNqdg4GkQkqCASVK+W9q0bNspLex2mF2pYyDsrSjOTbYzRarU5xhrJ0cmLrSUOisKwdiiANXEdAf1H9e/5UgGfSs1CqWKhWDGRL5mYyzmvrlesmJjJ1rB2qP3aDWd9vsFOU5nnZXYjQQXDifaL+CicYSimYajHKhcSd1ACQHpeMqrhtl1xdFJ0TYhGGVQnQgEFOzeGsW5NEMuFcKUnQTKqYeNIEAv5Ok5eLKFQ7nwH/MmLJbz6ltZ/aG8cCeHCdAW1FfoWMAasietYvyaI0aR+dbJfTiigIBRQMJJsXL9QNnH0bMHR7wdorAK0mwAUyibmHSZU11KVRrOmUEBBSFcQDCjQNYa6IVAzLNTq9tXEp1XbN3T2Wqod8YjWcQJMBhclAKSnbVgTxE3bY+i0uuzluSpKlc53ya9fE8At29tLPobjOl51i44zl0odn1cvlE1UalbLfQM0leHOPQk8cyz3ktMWCmfYOBLElnWhjnsQxMIqXnlTEgeOLzra7V6qmChVTETaeF9+cabS8fWupSoMOzaEsXlduKV7qVq3MZutYTpbw2KT3/OGNUFqskN8ixIA0pMUzrBzU6TtHfHXm1rovOBQIqrh5u2xjlYeGICdmyIo16yOC+LM5upt/f6jocZEPb1QQ65oYDje6ELoRs8BhTPcsTuBx59fQN1s3h2xmYW80VYC4LSiIGON9987N0Wgt9GsKKhzbFkXwpZ1oauteCfna1c3aDIGbBoN4cat9FRO/IsSANJz1g4FsHtL1PHGtrphY7HDCSSoK7j9hrjjZi+3bI9drYPQrplsre0EKBpSEd3kzV97VWHYviHs6JXKQr7e8hNzdYUWve3YviGMnRsjjsYIBRTs3BTBzk0RZAsGLFsgGdU8X/YnxClKAEhP4IxhdEjH5rUhJF1qkDPjYPPaprXBtp4YV8I5w86NERw8udj2ZxeLBgxTeNY1sBOb1gZxbrqMWr2zVYBswYAQaGlVxenTfySodFwzYiVDMX/v9ifkWpQAEN/buj6M7evDrk90s9nON4+5eazLSdOiat2CpvrnrzFnDDs2RHCsw9LFli1QrlmItNBBb8FhAtDYO+Kf5ImQbqM6AMT3anXLk6fcUrWzXesMzibt6+ka77hYT32FXf0yDcedJUdGi3sInCz/r0norq0kEdKr/PPoQHoOY4DWwjK4bQtHdf6nF2rYus50ddIV6HzyDAYUKJ0eO1hBNKR01IrVjwlAUFfAGDouqWy0+HtqNVFYTi9U5iPEa/S3gHQsElJx7y1Dq35d3bTx2KEFR+1oT10q4a49zurFX8sw7I4nKC9WjTutQrjSuX6ZGGtsjOu0A2G9xT8LJ8lPK68YCOl39AqAeE5XueOz0Av5uuMKetfy08SZL5nIlzt7n+3XJjNhBxNsK0/2osNOlFc4iY+QfkErAKQrtq0P4+JMxdEP7Xar3zXjZPnYMO2Wy+o2U61bWCwaqHa4Yx5o7RWMDE76yreS1Dj5/gFAOEg/+gihvwWkK1SFYeu6ME5f7nziLJRNTC3UsH64/Xrx13Py4GyYwjd957UunDUXAOp1G1XDgmUJ2HZjt75lC9hLv17/x1msOCsLvBqnXRv9dHSSEFkoASBds2VdCBdmKo6e3k5fKmHtUKDj0r/9xu1Wv8WKiWzeQLFiolq3UalZqNYtRwkTIcSfKAEgXaMqDNvWt96VbjmVmoVLsxXqXY5GEaF41NlfYcO0MZ2tIZs3kC0YjpfWCSG9gxIA0lWb14ZwfrriaAf32ctlbFwT9Kw3fa9IRrWOC9nkSyYuzlQwna05Xk4nhPQmSgBIVymcYft6Z/Xi66aNc9NlxzXce10nZWxLFQtHzhaQLzmrokcI6X3+3EJM+tqm0SACDhv5nJ9ytorQ69YNB9quO39ptoonj2Zp8ieEAKAEgEjAeaP3uhOWLXBm0h878btty7oQXrEj3vLXCwG8cDqPY+cKtNxPCLmKXgEQKTaOhHB2qoKqg3rul2Yr2LouhFCg/4u6hIMK1g0HsH442HYRmzOXS5heqHkUGSGkV1ECQKRgDNi5IYwjZzvrGgc0nmxPXSrh1p2tPw27Qdc4dm50t43sSzEoCoOmMKgKg67xjpOchXwdZ11eKdE1jkhQgapyqLwRq7r0j8IZGAMm52pYpFcNhPgaJQBEmvVrgjg7Ve64ZjzQaBS0bb2JWLi9W5k7KCSgKgybRv1/DNGyBQ6fLrysSE+74hEVyaiGeERDIqIi2EIyslg0PU0AmMOGDJYtXG/oREivoQSASMMYsHNjBC+czjsa5+TF9hsF6Q4qwdk9svdwNltH3cG5/nhExe4t0Y7a5nq908BpJb9K1UK0zaSRkH5DmwCJVGuHA45bs3bSKEjXOt834GRS7aap+WrHnx2Kabj7xmRHkz8AlDwuBcw5c/QEX3Kw6kRIv6AEgEjFAOxw4X16u9UFNZV1XETHtoXvK+bVDBsLhc66JzIG3LI91vEEa9nC814AgLNGSE5eOxHSLygBINKtHQq0/Q7/elcaBbVD1zq//ecW3WtN7IXFotFx/f6RRKCl9/wryZfMrvQOcPIaoFz1PkFpl5N9DU66bJLBRQkA8YVdm5xX9Tt9qYR2jrmHAp3f/tPz/j5WV3NQJCkadnascr5LyZGTYlKzi3VHbZi94KSzY8XBcVoyuCgBIL6wJqEj0eH75iuuNApq1UhC7/ha8/k6sgX/HnOrOZjcdAdL64tFA+enu1OgqdP9CQBgWQIvnuv8CKoXnLzSqNSoYyNpHyUAxDfcOFt/9nIZVovLoaNDAUfXevFcAZZPK+s5WQHo9GnSMAVeOJ3v2kQ0FOs8gQMar3HcLpBUqVmYydY6SsCcvNKwbIGLM60nv4QAdAyQ+MhwXMdQTHP0ZN1Oo6BQQEE0pHa8Ya1UtXDgxCLu3J3w5Ex53bQxNV/DpdkKLEsgGdOwZW2opZUS0+o8AShWOksAjpzNd3VZPRZWoSrM0fvvF88XwVhjH0qnhABmczVcmq2+5DRKKKDglh2xllcqnKwAAMDpyyUkohriEfqxTlpDdwrxlZ2bInjmWM7RGOenKtg8Gmppk9/okO5ox3quYOC5FxexZ2vUtR+8C/k6Ls9VMZutvWRPw/RCDbO5Om7bFV/19YWqdD6Z5IoGShULkVBrewEM08axc0XM5bq7MZIxIBnTHF3XMG08fyqPZFTD7i3tfQ8LZRNT81VMzdeWPRpaqVl47sVF3Lw9hvVrVk8wIkEFnLOO+zWYlsBTR7MYHQpg/XAAusYR0PiyiYU64K20SQMlAMRXklENa+I65ts813+tK42CbtwaXfVrN42EcH6q4mgpf7Fk4KmjWawdCmDXpkjbtfoBoFq3MDlXw+R8tekSvG0LHDq5iHtuGmo6WTnZUGbbAofP5PGqm4ew2sb0+cU6jpwtSOvMuG4o4ErikSs2vocjCR3RsIpQQEEooCCocwR0DsMQqBk2anULpaqF6YVaS4mjLQSOnM0jGh5atd4F5wzJqNZ2TYvrzWZrmM02f7WhqQzRkIrhuI6t68OgooiDiRIA4js7N0UcJQBA642CAjrHjo3htusILGcmW8NsroYNa4IYHQpcnURW+uFaN2ws5A1Mzlfb+qEvBHDyYhF335hc8WtUh5XyCmUTTxxewO4tUay5brXBsgXypcbT7+W5zosNuWHdcBCnL5dd2wU/t1h3/YinEMDx882/X1cMx50nAK0wTIFswUC2YGAmW8OtO+MdJa6kt1ECQHwnHlExmgxgNtf5Bq12GgVtXRfG5FzVlepwQgCX5340MTIAAV1BOKggoHHUTRvVmoVK3XbUmvfKD++h2PLvlyNB53+1r+xx0DWOcFBBUFdQqpgoVrpzzr8VjAHb1odxzGc7+q+XLRjIFY1V9wOsies4CefJaDsKZRMHTy7i3lcMd/W6RD46BUB8aecm5ycCphdqKJRXX6ZlDLhxW8zx9ZYj0FjeX8jXMTlfxfxiHaWq5WjyvyJXXHmz5EqJQSfqho1cwcDUfBWFsn8m/ys2jAQQcFDUqVtauRej4cayfLeVqxYudun4JvEP//+tIQMpGlKxbtjZMT0AOD/d2tGooZiGbeu9bPHrvmb19q+07JWFwVmlxXZwxnDD5tX3e8jWan8EN4pideLirNzXOaT7KAEgvrVjY2TVTWirmcvVWn5ivWFzBFvW+b/N7xWr7W9wcrTNqZu2x5CIuLcKsZr1awLY7PMWza0WWIpHVMc1KjpRrVm+rWtBvEEJAPGtSFDBuuGgozEYQ+NxtEV7tkR9P5EAaOns+pZ1ISk97/dsjWLjiLPvWyd2b412NeloV7KN1zI3bY2umuC5TaCRBJDBQQkA8bWdG8OOVgGG43o78z8A4MZtUWwa7f4E1o4dGyKrNlDSVI7Na7ubzOzaFMGWLl/zCs6A23bFu/bqoR0jCb2td/u6xnHn7oTj4kDtCuh0EmCQ+O9vCukq7uAJUXG6Pt+CUEBx9DTZab3/m7bFcOvOuO8KpnDGsGdrtOUWyjs2hFsu6OPUjg1hbN/wo7h0rbM/OyerFgGd41U3Jx13l3RTMqrh5u3tbzINBxXcuTvuqDdDOwIa9939TrxFCcCAG3LQUCUR7c4P2e0bIuAdJBvrhgNYv6bz5GHdcAD33Tr8snPwsoSDCu65OdnWE7aiMNxxQ8LTH+yaynHbrjh2Xrd5LdlhrX6nNf6DuoJ7bkq6sonUCYZGUnT3jcmOVyXiEQ333jrUlf0cI0m5f16k+ygBGHDBgNLRkTHOmeP3860K6vwlT5atSEY13LLD+dG+wNJS7E3bYlKPmm1YE8Srbxnq6Mk2FFBw5+6EJ0vja+I67n3F8hPUaEJHZJXqd9dLRjXEXCipzDnDrTvj2L0lKmUfREDjuOvGJHZucr6RVV9KsG7dGUfQoyV6VWGuHL0lvcU/62REmjt3J/DC6ULLhXdUheGO3YmuNh3ZsTGMYsXEzColTgFgJKnjlu3xjlYNVrJpNIiNI0FMZ2u4MF1B/v9v715C66jiMIB/55x53Zt3mjRJG1oLtUoRrQqKmLWbQBSxND66dSWKK3HrpgsRBFeCCzfu3ChkpYJINi4KRUFEEVtME5s0yc1Ncl9zZo6LaUKbJjGP23Mmne+3yfL/T+bmzjdnzmPdzlHA/d0BTg+XDr02vKfTx3Pn+/DrX1Ws7LJ/wF4pKXB2tGPXOQZKCVx4tAdXf1/e0yFBvZ0+Lpzr2fecjd2cGirhxECEf+brmLlV33bP/nYKA4mh/ginh0ttH7of6g9xvD/MzopYaGBhHytcdqOUwPlHuhB4Eoc4Q4qOIAYAgpQCT57txlK1hZu7fLGUo+x9/MhAZO295N3On+lCvZnsuKFKFCicO9WBwQc0lCkEMNyfHbRSXdeYma9jsdpq+z74YSAx0BNgdLCEzja+yw59iWcf68XcYgPX5w62fW45UhgdLGFkINrTa4UokHjhiX7MzNdx41Z9279Vb6ePU8MlDPSGbb35b/CUwJmRMk4PlTC72MDsQqOtuxkqJXD8zgE8fQeYdLofAtmoy7HuAC2dYmUtxuq6RrWmsVrT+/osSpG9pnn8tP0VB5QPwuRtW68CmJ6KPwXwnus+dmIM0GwlaMTZdrWBLxEFKhcThFKT7WF+u9LCcrWFMFDoLHvoKnkY7AucDPfWmwkqazFW1mJU1jRqdY29/Ff5nkDgZ1sEh75ER0nhWE/wv4fGtIMx2dkFiystLFVbaO5w45Aie03UVfZwcrB06B0GWzpFvZGtN4+C7LCdw0xEPSidmDvXK0ZlNUa1pve0O6OSAmGQXa8wUBjoCTDYGzj5HbaTJAY6MdCpQZKk0Im5b22/gEAUSnRE3n2vJ5IUuH7L/lLKjii99tpb8mnrhQuOIwB0H3HnSz/K4VOBFGLzCSgvNg79GblrwqFODGKdbv6MtYEQ2DyiNfTd3Pg2CJENKW9MlKs3E8Q6RUsbJIlB6EtEoUIYyLY+0QaeRNDpfuqRpwSO9QT3TPBMUoNYG+gku15ap0jNvddM5SAE70YpAaUEsquav/9fyhcGAKIHwFMCnjo6X8AbIabIlBRQgQDnRlNR8JNORERUQAwAREREBcQAQEREVEAMAERERAXEAEBERFRADABEREQFxABARERUQAwAREREBcQAQEREVEAMAG7UXDdARLRVapxtdVx3VbjIGADcmHXdABHRVsn+D4hsCykw46ZysTEAuDHnugEioq106mYEQAhcd1K44BgA3OAIABHljqsRACHwh5vKxcYA4MY1cB4AEeVMo2V/BEAIQAp8bb0wMQC4MDbu1wF857oPIqINxgC1pv1bQuib2YlJWbFemBgAHPrWdQNERBvqLYHU2K/rKzNlvyoBDAAufQNgzXUTREQAsFa3fzuQAkZKXLFemAAwADgzNu4vAvjYdR9ERC0tsOogAJTC9IdXXpd/Wy9MABgAXPsEwL+umyCiYlusKus1lUTqe3jDemHaxADg0Ni4vw7gA9d9EFFx1ZoCtab92f8dUfrFy5NywXph2iSMcTDrg+4xPRV/BuAd130QUbHEWmBm0UOa2q1bDs0vFy+Lp+xWpa04ApAP7wP43nUTRFQcaQrMLSvrN//QN0uhb563W5W2wwCQA2PjvgZwEcCPjlshogJIUmBu2UOs7Q79h76plEPzzMSkbFgtTNtiAMiJsXG/AuAlAJ+77oWIHl4tLXDztmd9179yaH4rh+bkxKS8YbUw7YhzAHJoeip+G8AVAP2ueyGih8dqXeL2irK64Y+UMB1h+tWrb8rL9qrSXjAA5NT0VNwL4EMA7wKIHLdDREdYrSmwtKrQjO099QsBlMP058DDJT715xMDQM5NT8UnAVwCMAHgRQCe246I6CiIE4H1hsB6Q1ob7hcAAt9UfM/85Ct8NDEpr1opTAfCAHCETE/FfchCwCiAEwBGAHQ5bYqInDMGMk5EpBNEOhGlZix6Yy26H3RdIVCXwswLgRkh8KeS+HJikjv7HRUMAERERAXEVQBEREQFxABARERUQAwAREREBfQfkPT/wwZJ8Y0AAAAASUVORK5CYII=;" parent="164" vertex="1">
                    <mxGeometry y="192.5" width="100" height="100" as="geometry"/>
                </mxCell>
                <mxCell id="108" value="" style="shape=image;verticalLabelPosition=bottom;labelBackgroundColor=default;verticalAlign=top;aspect=fixed;imageAspect=0;image=data:image/png,iVBORw0KGgoAAAANSUhEUgAAAIAAAACACAYAAADDPmHLAAAABHNCSVQICAgIfAhkiAAAAAlwSFlzAAAD7AAAA+wBSobVeQAAABl0RVh0U29mdHdhcmUAd3d3Lmlua3NjYXBlLm9yZ5vuPBoAAA9bSURBVHic7Z17VBXXvce/vzkPHgLy8I010fqKj0YB0whoUBBrGvO4iaTRqEmtSW+ymrXa1ax127Xay7239zarXe299V67itVlJI1p1STN1RoDCIqAjxpf10dCTIhBUUFEBOE8ZuZ3/wCRA2fOOcyZw5nDzOcfmD378TuzvzP7N3vv2ZtgAJbt3RDlTkh8G+DHAdgCSHKWZcuz+xc+fz7UtoUbIdwGDAbuhMSnAX4agVU+AMwSSPqXUNqkFwwhAIDnDzgFYcBpIhFDCIAYaSqSpeZUbB2juTE6Y8gLoJALBSZ8Q01aixVztLZHbwx5AVQdmTQNQJyatAIJap4cEcWQFwBLsvpKZMzV0BRdQuE2IFQs27shSkxIWMqgfwJUO3TNIPqJ6JJ2Hlj04i0t7dMLQ04AS6qKM2TIrxLoSQCJGmXrAPCBQLSpJGtNuUZ56oIhI4C8mq2zwcLPwHgGIfxdxKgh0BslC9bsDlUZg0nECyCnYmui1Wb5HcCrMai/hw9JwD9WZL9wbvDK1J6IFkBu1VtLCPIWAF8LkwluEH4ruuTCA4tedITJhqDQnQCyqrbEx8K2ioHbolva69X5Yqa8qm3/BqKfQh+/4axFEJ76KHP1xb4nciq2JtrslieZOQ2E/WVZaz8Ih4FK6OHi9VDIhUJVzcRyMB7pDnIC+Aigv4ju6P89sKigPf14kS3ZEf1HBtYONH+WAbgYsigDEgDuPkEAWQhkJcBOIHUvxy1E/J3SrBdK8j8qHsax8uNM9CyAbwGI6rGBsGJ/1tpdqkoIAboSQF518Xowb1I43QnCHmakELA40DzZxZDvSJAdDHaz/wQAyEagGAFCrADBPqBLJIFRBsICALFe82Zcpg6aXrJ0zZ2BZBwqdCOA/OriUTLzBQDJWuQnd8iQWiWlSpcA3ATQ1n2c0F1uv3tfsBGE4RYIsRr2mRH9oixrzc+0y1A9uhFAXvW2YjBWB5sPOxniTbFvxbcxsAegcpKlo8OSnbUfPvqas3eEZXs3RLXfipkmEH+TZcoF4dvo1YVMNoIlyQohWpNL5hAkmlHyyJo6LTILBl0IIL+6eLHMXIZg7GFAapEgtUu9A88z49cxUvTOkjUDe+TmFxcPc1qdBQy8DuCBu+GWOAssyRbVZt6D3i3LXvOMBhkFZ0W4DeiarTP8DICpqjORGO4mEezqueuvMfD6odor21FYKAdlYGGhsHDq+NUA/wrAKAAgmwDrKCsoSB0wsHh/9tqK4HIJjrALIK962z+DUag2Pbu7Kh9id+UT3pNl9/eqVr3SopGJAID5OzYn20V5C3d1MQNWgm2UtevNQT1nkhpi0nYWFEj+o4aGsAog99C2qUQ4DSBaTXqWGO7rPZXPAH5auXL9G1ra6Fkg0yPbN/+ECb8AQGQBrGPsQT0JmPHq/gVrf6+ZjQMkrMPBRPQ7qKx8yIDY2KvyGetDWvkAQMQHV63/Dwa9BIBZAsRGN8CBvV56zxL/mlOxVd010ICwCWD58aJYgJeqTd/b02fgR5Wr1m/RzDg/HFr5vc3ocg7BbobYHNQTPMUmhK0rO3wC2J3xcgeAE2rSyh0y5I4u346I3jy0cv1/aWlbIFSuXP8bAv7UY0+nSl+T+ETpwhf6dSEPFtZwFQwAsoAnBBn7AMwKOBEzxFvddxzhYnuc9KqasnN2bIyDaB0PAHYxpn6gr4kAECVGfd9hdWYCmCTdlEDjBNDAvKozxNJyEKlvQ4Ik7G8B3cO57wOcE0h8+bZ0TwCCsLTyO+tKAi5re9F0ZnqJiZ4AMKnP6S8Y9FdZok3Vq9d9GmieC9/+46Mg/A0ArIkWCAmBeYQMlFO04x/KMl5uDbSsUBB2AQDAinM77C23Ot8E4zmfERlwXXEBXU/b0sqV6/MDyT9nx8Y4WbL/Bozvwv9TTwRjc7QU9eNAnwoLt28qB2gRWQi21EC+PaF3Rbf0vB6GkHUxKXTnzAJXdmbd8wD9p694cqd8t/JBLPwykLyzdxRNkEV7NRgvIbAmzwrC951WR3X2jqIJgZTBJPw70PVaetc3UYIYv83O+qJAD5UP6OQJcJfFNdtSBRmXlc6LTWK3s0WfVT63bpq/tjNry5Z4a4x8mIGZKk36RHBa5x940c+EUGZa+M7miwAmCTECrCOVdUYQU0uz1zWotEdzdPEEuIvAyFA6xwywo+vuYsjvBOI4WWJ4axCVDwDT5SixyG+sLlveAQDZwffmGXi3SvE3hgNdCYAZDymedMk9/S0CUZm/vHK2F2V3fxAaLAUL/rQ5y18kBpd2/cOQXcoKkIF0DWzSDF0JgEAPKp3rdVHdNyzDj/rLS4blda3sEgT5x/7ixCU6jgAQAYDdPv0AXX1soisBoHu0zSvurj8EfHGuoMDlK5P03UWxYM7TyigGLU3fXeR1hs9dPnz0NScIXwLwOfOIQMq/MQz4dAIzn31lHkv4rkCYPCjGjEvIJAt5vdDsZkBisCg3o+XOSZ8Z2WyJlBitaVvLrZ1/h0v0/c6eFJtGVksyLASyeb+0LModfLWtRkvblJCZrgB46/CujfuV4igKYP4zr+YS8T6EubfQJGgYTE/V7NrodTayYhNAxD+HWflDASKSFf0hXz7A9BAYYxIGGDRF6ZwvAejNQTRRj2JdmpVscFS18XGxMSBBV73IhodlRntH54DTqRLA2FEpsFlN/1BPuEURn32pOIyiiNkEGBxTAAbHFIDBMQVgcEwBGBxTAAbHFIDBMQVgcELWmxNrlzEu0ffE1ztOK6622vuF35fSCZslbN9K6IprrVFod2qxHoF3QiaAiSM68YNF9T7jnKqPxx8qU/uFv7zgCpKHiaEyLaIoqhyPk/Wq1roOCLMJMDimAAyOKQCDEzIfoM1hwfmrw3zGqW+J8hpe2zgMCdGmDwAArZ2hcwCBEArgq5vR2FCubt2DN2vGamyNiRJmE2BwTAEYHFMABscUgMExBWBwTAEYnIic2jt35hTMmjLRI2zvwaNobhn4ektzZkzG7Kl914vyRJJlOJ0udDicaL51G5evNuLajRbIcmBLw+VmpiF19Mie49q6ehw5pY+NySNOAIJAWLEsByOTPXeEc4si/rxn4Du63Z86FgsfUlyWQJH2jk4cP/MJKo6cRENjs8+4s6dNwsw+gtWLACKuCUibObVf5QNAVvpsxEZ771kMBXGxMch5eC5+/oMX8ERe9kDXB9QNESeAvCzvn/1HR9mxYJ6qPaKDwmIR8Nji+Vjx6KJBL1sLIqoJuH/8GHx9wjjF87mZ6Sir+RiSpH6LAFGUsKH43X7hAhESE+KROmYE5s6YghFJwz3OL8nKwImztbh46YrqssNBRAkgP3uex7HT5UKU/d6MoqTh8Zg7YwqO/1/AC332Q2YZFy5e8hln14cHkZ+dgafyF0Lo9Y3kske+if8ufk912eEgYpqAlMQEpM/y3FTkzXf34Xa752KeSxcoLzSmFbIsY1/lMZQf9lzretqkCbBaQjt6pzURI4DFmWkQhHvmNja34OOztTh47LRHPH/NhJbUnDjrcRxlt2HMSE02PRs0IkIA0VF2ZGd4Onhl1R+DmVFx5CTcoufcASVHUWsam/vvShM3LGZQytaKiBBA31e8jk4Hak507dnc1t6Bo6cueMRXelXUGtnLTiF2WyCLResH3QtAEAi5mWkeYQeOnoLTdW+pwNLq4x67tggCYdHDoV+PMXl4fL+wOyoWaQgnuhfAnAemeNzNkiTjwNFTHnEart/A+YueezAumPcNxIS4Y6hv7x4AtLS2eYmpX3QvgCVZnkvrHjtzwetFLq362OM4OsqO7PTZIbMrym5Hfranr3H9RgtumgLQjvtSR2Py/eM9wsqqj3uNe+6zOtRfbfQIy81K93hz0IrRI5Lw2tqnkdKnM+jY6QsKKfSLrjuC+nb8XPj8Er5qaFSIDZTXnMDap7/Vc5ySmIA5MybjxNnagMu0Wqx4+bnHFc5ZMGpEEsaOTOnX99/adgclVX8PuBy9oFsBJCbEIX3WNI+wsirvd/9djpw+jyfzF2B4/L3p6He7aANFEAgZs6f5j9iLTqcL//PWe3A4fa5hrUt0K4Dc+WmwWDwf3+uefczvJo29u4YBYPJ9qZg4fizqLl/V3EYAqK27jLc/KPE7JKxXdCkAu82GbC8je2qHe5dkZ2DTn3cHaxYAoNPhxNWmZnz+VQOOn/kUdZcbgtk4NOzoUgDZGbMRF6tdj1r6rKlITkzAzVu3/ca9cv0GNr71fr9wtyjC5XKjw+HUzC49oDsBEPXv+HG53RDFgW3PGh1l73kDEAQBi+fPxa4PD/pNJ4oSmm763iNqKKE7ATz4wNcxKiXJI+yNP2zv94rnj8dzs7A8N7PneOFDc/C38sPojEBHLZTorh9gSZ+BnAsXLw248gGg4qjnIFFMlB2Z6YHvUGsUdCWACeNGY+pEzw9KSxU6fvzhbZAoLyvDYwKHic4EsKRP1+q1GzdxtrZOIbZ/+g4SjUgajgenD8r2RxGDbgSQmBDXrwOmtOo4OIh3LG+DRIM1VyBS0I0TOGHcaJw6f7HnWJZlHD55Luh891QcQafD0/GLj4tFW3sHAOCzLy9j38F72xC23G4Pusy+XLx0BS7XPX/kUsN1zctQi2KDmLnilSYAI7ydm3L/eHO/AJ3hZ7+AGzU7fz/S2wndNAEm4cEUgMExBWBwTAEYHFMABscUgMEJ2btcfLSIefdF1gTJUFL+aZLX8Nnj2jEy3u0z7enLcWi+E5rvDUImgKRYEQUZ+unwCDdKAsia3Io5X/N9o1xvs4dMAGYTYHBMARgcUwAGJ2Q+wG2HFfvOpYQq+yHDifp4XLvdf9uc3jS1he6D05AJ4FaHFX895XX8waQXx+oSwlq+2QQYHFMABscUgMExBWBwTAEYHFMABscUgMExBWBwVHUE3Wpth2AxtaMnZJXrI6sSQFOLcb6eHeqYt7HBMQVgcEwBGBxTAAbH2tDAsd5OrHr9h+aH9EMHUqpnarrVFsFrXJkEi9kEGBxTAAZnSH/kf7Op2e/Kon4hQvLIoTu3cUgLQHSLAIJ1cYa2LzyknUBZloOuPgZCsuS8XhjSTwAtKm5o3/+mE2h4rE6nuLaz/c7DouhKA+D7CwWToYLLarWfiIkbdqTnCVdfXx/T2u7II5kfAwnLAR4bTgtNNKcZhHJi2iMI4vvTp09vAxSaOGYWPvnk87myzMtBKADwwKCaaqIVdSDaTSzv7ui4fTAjI6PfQgT/D3Ki/ZLszzJoAAAAAElFTkSuQmCC;" parent="164" vertex="1">
                    <mxGeometry x="205" y="190" width="105" height="105" as="geometry"/>
                </mxCell>
                <mxCell id="109" style="edgeStyle=none;html=1;entryX=0;entryY=0.5;entryDx=0;entryDy=0;" parent="164" source="106" target="108" edge="1">
                    <mxGeometry relative="1" as="geometry">
                        <mxPoint x="135.00000000000023" y="243.95833333333303" as="sourcePoint"/>
                    </mxGeometry>
                </mxCell>
                <mxCell id="110" value="" style="shape=image;verticalLabelPosition=bottom;labelBackgroundColor=default;verticalAlign=top;aspect=fixed;imageAspect=0;image=data:image/png,iVBORw0KGgoAAAANSUhEUgAAAIAAAACACAYAAADDPmHLAAAABHNCSVQICAgIfAhkiAAAAAlwSFlzAAADsQAAA7EB9YPtSQAAABl0RVh0U29mdHdhcmUAd3d3Lmlua3NjYXBlLm9yZ5vuPBoAABA5SURBVHic7Z15lFTVncc/tXTT+4LdIGtaaQTCEhBcISpbEBjcEM0xM4mJzqDDxBOjw8xojCZmxtE5nvwRo2bMyYgekhgQFxDccG1AEAEJIEZokKUXuruqu6u6qrvW+eN2db/36lXVq673qpvmfs555/S9dd97t9/9vrv+7u+BRCKRSCQSiUQikUgkEolEIpFIBjm2PpyTBwwDnBneOwicAqI6v5UC52V4/XONEHAG6LTqBpOBDYAfUWhmHNsQglLyfSBg4j3OpcMPvAxMwmQWAx1WZPrO265/IPr1pwtiR3FhwbEsPazBfHiBRYmLMz1GA+1WZDTH6Yx+9dGGaPTEpz3HiqUL+vvhDZajDRiZsFS7MdKO/xQojgVKigpZMm82JUWFBk5NTG5uDjcvmU911RhV/HNPPMiUCeM43XAmo+ufa7R7O9j83jbavR2xqBJE2d2f7DwjncADiPYfp9PB3i1rmTJhXCZ5lVjEXw8f4eIlf08oFO6JAqYlO8du4LojYn+MrxorC38AM3ViNeOrxiqjRqU6x4gAHLE/cnMzHflJrEZTRo5E6WLolWgOQjmxcXjKi0gGLA5gZvffLsS8S1CZQCmAYcDPge8BZdnIncRyioDdinAb8BLwCFAPvU3AZGAPsApZ+IOZUuCfEGU9HYQASoCNGOgwSAYN5wOvAWVO4MfABYofQ8AbQGN3+HYgN5u5k5hGAHi+++/hwFJ6m/2xwI+dwArFCVHgemCzIu5WugUQCQeJhkPYHHI0MBCJRkJEwqo+nh9YqQj/HfA6vfM/y51AtSLBF6gLX3ODMG1nDmG3ywphIBKJBIhGwsmSbAIO07tYVK19lfWWEtsQnQdONbTQ2RUkT5b/gKSzK8DJhhZlVKtOMr8y4ES09Rd2hyt0TvgM0V7Q6vFx+wPPcPetCyktLsg8x4OYcWOGUVyYHxff5vFx7HST6fdr8/j47Z/eps3jU0bv1klaqfi7wQbUALO7I3yAdpVnEfCmWRk9VygrLmDTM//G5OrRPXG7D9Ry4z1P4vVZZrOhZSHwribOB8SUWWMHGhQ/FgBDNSe8BTxnSfYGMa0eH2vf3BGIDHF4YseLm2uCWSz8Z4kv/Ap6Cx+gwYlaAADjgZ2auLsQM0eribfgkSTAM3F/7h86j/X0mPwT27Jx207gMeBXOr+N14TrnUCtTiKtACLAw8DTCOugCxFDw1tQzCF8+9ZynLl9MTMcXNhsNr4xNY9vzilSxV+6rJT8IjsnD3eKAXcfCAWifPySWxl1DPgLYsxfixjFJTKm0ArgqBOx3q9kQpL7N9I7sQBi9rBHAFcuL6NijBwiJGPq3GKmzi1OnTABzScDWgFsA/7d4Onasj1oBw5qIi9NIz8nlAF3YyiNUyV9QecZn9BLlwBt2R50Aqe7j9hawOWINYKIgQuqbu5vDVNYLFePrcTXGjfR87XBUx2oBVBHdx8A4BNgefffJYiZIm3NoIe6BmgIYpflbymtDUFtlNEaYAqibGPUQO9y8HZN4tkYQ6U+V31c5iQmo/OMjQpAW6afQK8APtD8eJ3Bi6pu7qqTArAanWdsVADLNOEPoFcAexH9gBgLUFcXifAiTI1E5mQNYDktagG0IMogFaXAPEW4DtgHvQKIol4FHAJcazBPPQp01QeJ9nF8K0lNNAqtjSoBGH37l6K26Xid7pkIpVXwJs1JNxm8eE8/IBSI4mmRQ0Gr8LSECHap3jCjArhBE+4pa6UA3gSUy1Q3IKxIUnFSGZDNgHX0sf2vRN3+nwHejgWUAggAf1KEhwB3GLiB7AhmiZa+CeBu1Os3a1GYhms3hqzRhFch9gkkQy0AWQNYRh+GgDkIK2AlqjLWCmAP6oWgkcS3H1rkXECWcKc/CbQctbX3DuBzZQK9rWFPaMKrSb6JVDYBWSLNPoAN+FdN3OPaRHoCeAU4pAjPAm5McqMGRP9BZFLWAJahEUCAeFsOJbcAFyvChxH7P1ToCSAKPKmJ+08S7w2IoBgJyBrAOjQv10kSL9gNAR7VxP23XvpEu4PXIPaWx5gI3Jskbz1VkdcdpstvZCFRkg6Bzghet2olMNkq4P2ojT8OInr/cSQSQJj4An8IqEqQXpUZt2wGTCeN9v8C4AFN3D2IHV9xJPMPsBXRH4hRCLyI/nZxORlkMQYFYAf+D2HcG+Nl4L1E103lIOJ+hHewGHPQbwrkSMBidF6qkzrJVgNXK8IdxI8EVKQSQC3C0ZCS/9LcBLSGIfVyPcBsdASg7QPMBn6pibsXYTSaECMuYv4XsZU4Rg7wZ9QTDKrMtNQFkJhLiiZgNMKJp3LW9lUM7OcwIgCAf0Q95jwfsaJU2h0+icLQ2SVrANPRPNMovU1AGWI7/zDF7/WIMkuJUQE0IVaUlBvPpiNqhrzu+ObezMo+gNm41LVqE+KZ5yHKQOkKrhMxBdyMAYwKAMRGwztRb2m4GtHLzEfRDLQ2BInKqQDTiEagVW0OfgLxzF8BrlImRTj02GH02ukIAMRy8S80cUuALUDPboVQMEpbs2wGzKKtKUQoqDIEaUZY9Witth5GOIEyTF9cffwS0e78RBF3NZrNTq66IGXDpCcRM9BpUhcRv0D3a/T3AyYl3RoAREHfixgOKlFlSPYDzENnBKAt/CcRw/W0LTL7IoAYD6KzvBhDTgaZR4qX6TFSOIRORiYCALEpcRUa75MA+9/3SANRE2hvCbH/fY/eT0GEuZd23j8tzNjI9Slik8FSFN5FXPVBtq1rJWeInaqp+djkrvG0iEZh5+ttPLPqJA21cRNrLoQ3t3WZ3sfMYhmH2Goe50CiemYBtz0ygpHVQ0y83eCl7qsu1j5Sz9E9Pr2fOxH7/I6acS+z38svgYv0fnA4bcxaUsKSuyoZfoH0IaBH86kgbz3XzPYNrYRDCftzXyLsM0zBbAG8jXBMlBC7Ay5ZWsrilRWcf2FmNUI0Khwm+D39M+uUX2ynYkxuxs1bw9EuNv+umd2b20ju5g+Ad4DvZHbHXsweqKtWBa+8qYw9b7fT6e0toEhYtG27NrVx8XdKmL28jIlXFKW1rbzTG+Gt3zezbX0r7f3c0SypcDL75jIW3VFBXpHxPnUkDId3eKlZ38red9p1Z07zi+3MWFjC9g0qd3/pOIRIidm7+WcA18QC1/9kGMtXD8eGja8P+NXqjkL9kS52bmyjZr0bd32QkkonpRXJNemqC/Lk979m37ueAWF61uWLcGS3j31bPUybV0x+CgcZDbVdfLDWzQs/q+ODtW7qj3bFjd4dThtzbi5n5W/GUFDiYNcmlXOp14APzcq/2U3A7QiLFABue3gEV323HICmEwE2PtXEZ1vak7VvVE3LZ8bCYiZdUcSYSXnYFC+VzxPm0etq9ezjBwRDR+Tw0GvjyC/uzXQ0Aie/6OTQdi/73vFw/K/+hOfH+knL/qWyx9fSR39288df1CuT/RC1n6aMsLQJUE5gVI7N5UdPjOLGnw7jwz+6+Xidm454dycc3+/n+H4/r3CGonIHEy4vZNKVRUy6opB3n2+JK/xrrpjJjMkTyM1JtYHJXALBIHsOHObDT/b0xLnqg2z8zRnm/+A8vtjRwRfbvRze0aH7fyopKncwZ0U519w2lLLh6iLJwCGEIcyuAaqBr2KBS5eV8qMn9D9DEOyMsnNjKx+95ObEwfSdJ9rtdv7y9GMsXzIvdWILWffGu3x31YNEIuk3R9+Yks+3bynjsmVl5OTpF8UfVp9m10ZVEzAeONKnzOpgdg0QMwyxQfLp4Jw8G3NWlDNnRTlNJwLs3tLOZ2+2c+qwMTH84Oal/V74ACuWLuCNrTWsWf+GofRjJuYxc3EJM68toXJs6uGw5hkqDUFMwWwBdCEsh0aA8QWhyrG5LF5ZweKVFTQeC7Bvaztf7vRx9DNfwo7eJZNGEQ524sjpX8el4aCfyyaPZs16/d+H5NsZN7OAiZcX8q35xQyvSm8ORPMMGxDP2DSsWK89QbcAWhtDRMJR7A7jLc3wC3JZdGcFi+6EcCjKsc/9fLmrg8+3elRNRX3jGTxNf8PuzMXu6J+JpUgoQCQcoK5R7Zhz7OQ8vjW/mImXFVI1LR+Hs28tbSQc1TMEMRWrBHAZiH+grSlE+fl966A5nDaqZxZQPbOA6fOKefSGXq+2v3/5fe5YPpfSYlEQ/YWnw8/zr6pHZT98fBQjxmU+7d16RrxACoz6BDSMVQLooeV0sM8CUDLyojxGXTSE038TNWB9k5trVz7GQ3fdxIxJVeTnZXedwd/ZxZ5Dx3n02Q2caujxk8XoiXmmFD7o9qFMbf8hCwIwyzDEZoMb7xvOUyt7L3+4to7vrX7KlOubgc0GN903LHVCg1g9BITM7QH0sGyX0JSrilh2T2XqhP3EdfcMi/MQngkZ+AQ0jBU1gHqjqMmzdkvvrqRydC7rHm8cMAYnJec5WfEfw7lkaWnqxGmg8+zOvj6AFaZhly4rZfrCYva/56V2n4/25lDW/RPabGIh6MIZBUybW0RunvmV6dlaA7QgNiUWgnXGobl5dmYtKWHWEiMOTc9ONF7BOhDP1lSs6AOAQqk6rs0kBtG8PKZX/5AFAXR6I/g8qa0cJGp87WGVHQUWVP+QBQEAuGUtkDbZaP8hSwKQm0TSJxtzAJA1AQyM4drZxNkuALX3UNkEpI3OMzs7O4Egm4C+cLbXAKcQruYAWQP0Bc0zC6P+ootpWCWAIAqXMrIGSB/NM6tHZ/+lGVglAFBUWW1NwaSWwBI14VCU9mZrDUFiWCmAnk5LJBzn4kSSBHdDSLtDyJIOIGSpBgDZDKRDtjqAkE0ByI6gYbI1CwhSAAOSwSkA2QQYZnA2AVIAhhksAnAD7bGAbAKMoxFAO9CaIGnGWCkA0HxWVmIMdxYMQWJkTQBdvkjKXbKS7k/u+Kw3BImRNQGArAWMkM32H7ItANkPSMngFoCsAVKSzTkAsF4A8rOyaaLzxbXB0QkEKQAjDLYm4DSK79W5TksBpEKzjyKEsAWwDKsFEAbqYgFZA6RG0wdQvUBWYLUAQNGGtbeEBoRvv4FKlz+Cx5UdQ5AY2RBAzzeIoxGo3ZvYT965zpHdPq3H0P1W3zMbAtimDGxdY/r+xkHD1hdc2qgaq++ZDQG8ivBvD8CBj7y892LcP3rOs/UFF4dqvMqoFsSzsxSzfQXrEUT4DVwQizhU48XrClM1LZ/c/GxocODidYd5+X8a2fJs3Gf+fg58bPX9s/UdDyfCwfGVqshcG+NmFDB0ZA7OnPSyUlTuYO4/DKXkPLWLg+P7/eza1Eawa2BbIYeCUVx1QY7u9REKxOX1Y2Auir0VVpHND7kMRXySfrpZFxw/q4D7XqzqCXtcYX628CvtatrZxh5gPhbaACjJZv3rQnzh+jnAlBKq3edvs0ejC2PHtnXufz6LCz8C/A6YQ5YKvz+ZDDwDHEf4v+3LEUb98UoQgn49g2v2x3EMeBr4Zh+eY8YMhG95FSC+fJ1ubeRG8blaDSPR+XjVACMCnEH9QW6JRCKRSCQSiUQikUgkEolEIpFIzOb/AbEJL2ua51RNAAAAAElFTkSuQmCC;" parent="164" vertex="1">
                    <mxGeometry x="395" y="40" width="70" height="70" as="geometry"/>
                </mxCell>
                <mxCell id="113" style="edgeStyle=none;html=1;entryX=0.5;entryY=1;entryDx=0;entryDy=0;" parent="164" source="111" target="110" edge="1">
                    <mxGeometry relative="1" as="geometry"/>
                </mxCell>
                <mxCell id="111" value="" style="shape=image;verticalLabelPosition=bottom;labelBackgroundColor=default;verticalAlign=top;aspect=fixed;imageAspect=0;image=data:image/png,iVBORw0KGgoAAAANSUhEUgAAAIAAAACACAYAAADDPmHLAAAABHNCSVQICAgIfAhkiAAAAAlwSFlzAAADhAAAA4QBAwW54QAAABl0RVh0U29mdHdhcmUAd3d3Lmlua3NjYXBlLm9yZ5vuPBoAAA1mSURBVHja7V17cFTVHV4eMliy99wNCGUozoiIQ4faOhSNiYaEPHYTBrUdGYt1ZKjtVKE6tZUy0JZseJSEZ1jWZSEkmw2UaphSqPZBW4vWViuPIn1ZkYJURAoi+AB5SLa/s92Ny2b33nP33nPu7z7++GYYQti99/vOOb/38SQSCY8L4zFpNZlphe/pksUJVWESrwqRJa4AnLsDfDnQJl+uXCmNdQXgRAG0kP6BmNxds5YccwXgUNSuJ2fqOuQEHAVtrgCcKIB15CQVQKBd7q5YIZW6AnCoAChqouR0aYO3nysAhwogdRRscwXgYAHAUZAAr6DGFYBzBPBOpgAo4O/edbQAKnZ6+sOLeKA+5ovWxXx/hj9vrYv75vk3SqPtJoBAm/xxtgCSR0GYLHekACZ3Dh4LL2B3rpcCOFsXkx/xJDx9bBIHGJ/nORP+DfIl+LnkKAHUx675NDz8qXwv5ROQ79kiFLyGLFN6zuow+ZWjBAAPvV2d/CTO051C9Iu4s3XQsPpYcSAQ9900tcuj212rjpBdSs9JYwNgEI5zhAAmt5NRjOT/H3E5JE6YvjL4zL/3Oo46yCIQwgAdUcD31J4TRPKaIwRQFyf3ahJAB3lJEPkPw+ddVvgue6d2febqAs7/gYEYw3PGkm7hVxwgAN88bQKQT4gxSMlHDCS1aD7/Q2Qu67PWRMmZ0gZvH1sLINAh36lFAPDvfy9gV/ox4/fppvaBpu0/So5red7KVVKTrQXg3zhkOH2RzC8l5msSYJQeYBZkzFevoQ6gUuNul/C3yucrlktX2dwLIGsZX8gpKhi+D+3pA59zgZWg+g7fLA3W/ytaBZByC6O2FkBF1zVF8KAH1bd/3zRBbul+VnImx+VKxtVfVRfTTn7yudvki4BP2ToS6N8gFcNO8JM8L+FN+FmtuMCUL8oal7g7JsuMsf//FkJ+hlsYdkQyKBCTJoBn8C1ww9bBgzfCqrm7blOxJDrwA599koGY7zJa/g16yE+FiM+52UCRQuyU/PDiTyuQsikY9PRl8PuHAXkX9QogmShaQ2a7AhCZsm0vHgkvfkvGbkCJ3AdHxH2s/wf48keMID+ZLo6Sd1wBmATqfWgN/1aFyVNGkd8TF1gp3eMKwBq1/9MLtfoVjcEnyCFXAPjJL/XnKfjQC5pHKG+SSlwBaHHr4t4xtZ3kOkHFHrcaZfTlw6QQ2esKgD3X8INUqPkyrSriXenDm/yUS5goW+Ad7QqALaqXGYA5wJH8LwAxF3iTn5Ek+pkrADYBbM14ce2czvwpIlZ+VgXxBd7NJLYQwJTN3iF1cTIHjoLHWMO2Guv7mmgJl0jyM1zCx1wBmNjhCy7ZC2YQ31Mwspb8xxWAOeSP1JvcMQTgEsJ3uckVgMiS7hB5nNbum05+ChObpVWuAMSs+hGw5b6Khfg0yhq9r9taACKDOAqrPhjgFNnTFRVslxPgCVB83pYCCMTkbekgTiAud5qw6q+HVf9vbMT3uILrSVoAjbYTQF07mdSr/KqDjBdE/BCw8HeY5d5pSAylBfBXSwigIujpXzbfO/u2Bu/O0qD0u9L50iOePEUV9R3yjF5bXlz+Emfii6rDpItO8MJMfE9OYHWPACiuRy8A+JLbM75wEmUN3njOYozOYYPgIc9kPPCx8es8V3EifkDVGrIBk3XPgooVUua7nI1aACXBQdXZ5PeIIEi+mFsERUPTUTxaNMqB+IFAfAutvbcS8WmUN18hgBdRCwC2/rn5BFA6v+hhwcbdmOQZj9Cy14LbF17xHrsBwxELQPpqfgFIkwUVakwDq/4Aj0od4S5gm5zrXT6IVgC3Boul0oaiIzm+9KtgHA7kuNrpNr+KpSXbSgAh5xJAHLcRGCwaVxr07vnk7Pf+8bYgn/k/tBwbLPqfW32bz+sBtOQUwGFLxAGA9OLxc3yEV/AGzvfnsPvwunMAS6VEniP1WkfmAoD4m6sjZE8gZl/SFQzATNzvKAHQlms4D/9Z5xDis3IAubDeEQIA4icD8W84hfQrDMAIURLAv2wtANjq+1LjzkkrXiUCmAvDbCkAIH8CHafqVOJ7zv9FXjUB1NtOAODLh+xu2bP2BKiQT/Ed2wiA1t/BWX/Y6cRntIizCGC9LQRQFSKP+tuslaEz0f/PxB8sLQCangWf/iXMRNA7f2BnOiiyGyhVA8gigBOWFQAtyqiJkqPofO9YcnDjW7AFt4ILer8ZpWK1UabtP41iywkAyC8GK/8EMqPrErid2+C7DU+GmSPkL2a5oAzuXyZKLSUA+oKB/NOItvgPaRaRHkcpe2Sm2YmlsgVeLQL4mmUEAC9Zhhf+PgriYQeaFCIPXRF4eoL82uzAU570rxIWWkYARg5S0rHVX4RV3phdOYTlSKpYLmkVQMQSAqCpW7P76+A77KS7UJYLOgtNLUGM2frPxJPoBQBnbNjU7T5KjoNFX57zShdEuYbqiObtn+I3qAVAhyqY9pJjyQHMW/KIshlbookx+JONPWgFQC1ramWbVEz5MRh538xD/hJs5CeLP4PeQgRwCK0AaEm2SRb+uyC+z+YhfzHGFHPlqoJWP8UZlAKArf8uM140DeCkffoc5C9EWV8Q0+z7Z/cJ9EMnANj6PzChifI5BUO0EWtxSVWYFEp+GoNRCYD22ZtA/g4F8udiriy6Y7GkVwA+VAIQbfjRGL7CUVSBucCkJqp79VNcjUYAsPp/KJj8LgXyB/tb5Y8wp5sLdP2y0QeNAESe/bSWQDH0vJYcQl5rYAT559F4ATR/LnDrfIsmcBRm+Hehr/ppNmT143EDYUW+LCSh0yqfpeNdlHoJsJeT164zZPVTHEcjABGTN5IRvhZys0r08QPsq7+8STJKAIdRCGBSiHxdiM8cIjNVoo9Po+/4iRq2+pNt9ygEkCyh4t8q9Q8VEfqt0ElUvkQyUgAvoxAAb3crtfWPUFj5/bBUGxlc8aOGzaYLgBZZ8F55NIOncnNXFDv59B0xtHtpRdB8AawmMzifmUdVPp8ELNBYkmfah17cZ7oAYPVt5tgj302vaVEx/J6xQq9fWdDLQwDjTRcAz+naIK6NKobfKCs0kxoU9MkFyXQB0PYpXm1ZStG+pPgiZI/FBz3owdsoWsO4eACx5IzcgMrZX4Ld7aOtZgpzfvTieRQC4FFWDef6swyxh902mPKhB604BGDwGZwy/IarzQfEfvZz3PrTmGW6AGjsnUOad7fq6g+TLdhHvOqo82PFjRgEcB2Hs79E7So30Rc46pzwzQOGXSWnu9vX4KDPEYaqo8Wox7uEuG/9FG1oxsQZaYnTqKKq24movTxHrQKvgE827kUjAKOuXqGTvhl2nHrMkz05xPrz9QIMQSMAo+bnVK0hSxm6jXY6MNqXjb2opoUbUYFDjTpq3DEEnS5gJF9Ha1chaMIlAAOGK4Bb91OGrONUlNe6RYhI8imqUAkAXsA+AwI/wxi2/xcxlnYXMNRBVxEoYAAqAcDZHdVZJXOI0da46FCjz9CZQDwKQqbwNv7At56Ojfw7fiSJJv8SYAQ+AbSQAYXe4EF/D35/KMMxswtTaZeBZd1a0IX26thCCzJrouRtDEWnJvTzFYJytAKoiZBXCtz+NzAcMaPRpHeXm0b+fl6TXIyaBLaqwELJGxj+7yYUvv5K08ineAC1AJJJIY12AI3p89xdLBzo6dX8obcFXEhvoNaAEEvwB8P5z7mqhyXufwvPUX7GDYcIk06Nmb8S7Of/xGWmkm9o2pf/fIAWMk5D2vQco23RZJarJzC5k7f3HzDUMgJIuYPvMdbL7Wc8//cJD/KY5+dn49si5jgbOxyS3vXH5v5FeMYX9NTymRDhy4VfAvpaTgB0QieLN0CvgjWj4lhtasftC7wYyD8IkEWN8Tf+XoC15KDKKrvMKKZbBE4bK3RWr9H4EPA5kbe48BgTO01tfDvjyLl5DgjwcKv1M3tU7BmFrp/fMtoT23ln9MqbUZG/2Iwb3HhdErFMoWz6ccaj5DWeV7Nx7NkrBI1m3d/I7a6AfLeBqrV98R46aXJYl9sdwPjuCwj3Htzgb5WZJ1sa7QHQIQ1IXLw0LgMeNPvqXp43hgzN7hmgEz4ZDckSo0eyC67dY7H278FwcTffC6PCZJOW+b4ZHsAco1b9xGZ0W/4ewBgM5PO/NIraArDtZ6zEuIhC01STKbZVTzN7y4yu6sV/bVyILMrwAB5ltB+e1mPhG3AJg9E4BqjBRLzQiyPTcQGlOb96i0CpX29iyVY+nKP+PcCLkXxhAqBdv4GY3G1UOLlXZTHO7b4TMBIr8cLvDla61ydHddFJlnMebAUsCZxM4n9hxPw+2wkg33VuecrAzqkMkTKjK0cJp1IG3iirEC9cAEZMHqONmIgMPLra/wSYARhoNeLRCgCI7ptt3NGxK0hW/EXADsBDgOFWJR21AIDsG9JBHJqqNdm4o1v7s4AVNFULIHYgHbUAKldIEyYulc6ZQPYbgG2ABsBdgGvtRrZlbAAKOggZMBZQDZgO+D4gAtia2oafB+wC/A3wOuBoasWeTSVa3ge8mfr5C4BnAJsA4ZRvPhvwDUCl3ts3rYz/ASgh2FxPa/nuAAAAAElFTkSuQmCC;" parent="164" vertex="1">
                    <mxGeometry x="385" y="197.5" width="90" height="90" as="geometry"/>
                </mxCell>
                <mxCell id="112" style="edgeStyle=none;html=1;entryX=0;entryY=0.5;entryDx=0;entryDy=0;" parent="164" source="108" target="111" edge="1">
                    <mxGeometry relative="1" as="geometry"/>
                </mxCell>
                <mxCell id="114" value="JPG&amp;nbsp;&lt;br&gt;Image" style="text;html=1;align=center;verticalAlign=middle;resizable=0;points=[];autosize=1;strokeColor=none;fillColor=none;" parent="164" vertex="1">
                    <mxGeometry x="435" y="130" width="60" height="40" as="geometry"/>
                </mxCell>
                <mxCell id="115" value="" style="shape=image;verticalLabelPosition=bottom;labelBackgroundColor=default;verticalAlign=top;aspect=fixed;imageAspect=0;image=data:image/png,iVBORw0KGgoAAAANSUhEUgAAAIAAAACACAYAAADDPmHLAAAACXBIWXMAAAOwAAADsAEnxA+tAAAAGXRFWHRTb2Z0d2FyZQB3d3cuaW5rc2NhcGUub3Jnm+48GgAAEVJJREFUeJztnXmMnVd5h5/3W+4ym2e8zDjj2InjxI5DUyU1bcUSNaUqJIEiAiI0CIrahBahAgHaKmoFQmol4I+SKi0RotCibkihaUggYEAlUBYlQBJICPGWTMZ2Zjz7dpdvPW//uON4bM/Yd+Z+d5v5Hmnk0dX1Oefe835neZffCOuAgz+e2xza3k7F2onFDpRBxboE1T4R+hB6UekD7UUQAJROILPYRIBQXHxdQWYRnRFlxiiziMwIZhThJQwjgjnhxrkTN71603RzPnFySLMHsBq+/oPZvigXHbDR61XZi3I1wtUgW5s0pAlFDgnmsAhHYuQpx3OeeNMNvTNNGs+qaVkD+ISqdeAn49cacW5E9bUiegBkd7PHVR3ygog+YVR+hJFH3/zbfc+IiDZ7VMvRUgbwjSdHt4Vx5g9E9RbQ32nik50wOgny/WIQ/ShQ+5H33LDtSLNHdJqmG8BDj40NiO28E2PeisirALvZY6onc15spgvxhGPzAzHx377/5p1PN3M8TTGARx9VZ6Fr6o2i/InCLYDTjHE0i1iVkzMhM+WYvGtN5F3rS1fE2z92yy3iN3osDTWA+58d78qV5J2q8lGBvY3suxWZLEScnA0ByNoSdmWtb+cs90/veP22kUaNoSEGcP+PT+SzTv4uEf4Spa8RfbYL855haMpHF4+IjiWmJ29/o98qveu2398zV+/+62oAqipf/8nk7SrySWBXPftqZ+bKMUNTwVmvuY5EXTn53Adev+MD9ey7bgbw0GNjA5Zlf17hzfXqYz0xNh8xOh+e93pX1h7rsO03vO+mgV/Uo1+rHo0+/PjEm8Syn00nv3oGehw6M+dPR8GPB6a98Mn7vj368Xr0m/gK8NBPJt4ryH1ssJN9EhR8w7GJlS8CfV32lz/w+sF3JtlnoivAwz+d/GtBPk86+WuiK2uRd1d+JmcK8e33Hhw5mGSfiRnAw49P3I7yd0m1t1HpyV342ZktxW/47LdGvpBUf4kYwEM/ndiHyL/SAp7Fdid3gRXgNNPF+I77vjP6xiT6q9kAVFVE5T4gm8B4Njx2FTOiQNE3/55EfzUbwMM/m3k18LoExpICRKa695UD0/e5gyPvq7W/BLYA867a20g5jV+tBQCeoWYnUc0GYCmvqbWNlDPMleKq3+tH8Z5a+0viEJi6eBOi6Bu8qPq8kSiWzMXfdWFqNoAg0k21tpFSOdidnAsu+r5zqPnWVbMBFPzql6yUlRmfDykHq8sasxJYv2tuYnwhqn0UG5zZUszo/Oq/x7j68+KK1GwAx8YbnsSyrpgtxwzPrHrpB+DU6reM86jZACYWQkbnzg9jplycyULEi9PBy8kgqyFjCyNrNJylJOIKfuz5QiLL0UYhNsqLU0ElHWwNky8Cxya8RMaSiAHMlWN+eGx+LZ9lwzFXjnluzGe2vPbDc9mPmU7o7JVY2HZoIqArW+TAZZ1JNbmuKAfKS3MBBb+2pVKNcmg0macfEo7bP3OyjB8qr9rTiUgaGAQoBcpEIWKmHK1puT+NAGGk/PKlUmJjgzokbhwZ8ygFhtde1UXOrUvGWVsw7xnGCyEFr/bDkW3B9ELE0GTyN666ZO6cnAn46lMzvPrKbnZtrtlb2TZ4kWG6EDNTjgnjZE5EGUc4NFJivlyfU3bdUre8UPnuc/Ps3prlwOUddGXXZ8VXKTDMeTFzZYMXJjdJjiXMl2N+PlxOrM1l+6lr68DQpM+JGZ/9l3RwSa9DV9ahMyPYVnueEfxIWfANRT9mwTdECT3pp7EFwlj5xckiYQO87A1J3oxieOZkiUOjcGV/nq68jWNBZ9Ym7wp51yLnCFaLGUUYK+VAKYUxpVApBclP+GlcWygHhl+Nlgnq1MdyNDR7N4zhudEylgiXb82wtQemiqCLrjDXFnKORd61yLhCxgLHFlxbcC0qHpAEMVqZ5NAoYaQEkeJHlZCsHyrxWlx0q0Ck8rmmCiFD4z7N8KU1JX3bqPLChM8LEz6dWYvd23J0ZCzCWFmIYxZWiDA6llQMwqrYgiWy+G/ly1xuAYmNLvYpRHFlUo1RIgORabzrSgDXEUqeYWjSo9jkaGrT8/eLvuGXJyt3246Mxa4tWbpzFsr5+XGRUSKjJOcGaQy2JVgoC57h+FRAKWidEHrTDWAppcBwaLRy6hVga7fLQI9LR6ZiEGETnti14NqCKJTCmLG5iImF1g2WtZQBLEWpRBqXfnl5V+jvcdnU4ZBxLERAtTlLOVSebFsqZ4kgNMyVY8bmA7ywPQwVWtgAlqMcKsNTAZxTSp1xhN68Q1fOIudaZBzBtpdcNbViUALEymL4VTltNyK8rB4nUomQnTlvKrFCHFcydv3QUPAN8+WorSZ6JdrKAFYiiJTxhZDxhWaPpP2omwEUI+XZ2QAE9nQ7bMmsT09gu1M3A3h6xmdyMfQ5Vo65pMPmmh6XDmfjBoguxGXxS9xZvB8V4YsdtzFsDzak37rNxrnOrNFSzHdPeTw1HVBI0Ge+XrizeD/7o2NcEx7ljtL9Des3CQNYVsjoFb0uOftsz4wCJ0sRj457PDbpccqL0iyiRXSJl1Or90DO1tpvzVuAwHGFa899vS9j87rteYYKIUcXwrOdOgoTnmHCC8hYIZfkbS7tsNmcsTdsgfkXO27jjtL9qCr/0vmOav/bcK391mwACj9kGQOASmTrym6XnZ0Ow4WI5wvReXf2wCjDxYjhYkTWhs1Zm21Zm+05m6zdvtZwWdcY7917EEX4wpGbGC70X/D9w/YgH+++a1V9CPrDWsYIyWwB/3mxN2QtYW+Py+sGcuzrOX9rOI0fV84KT88EfGe0zP+NexyaC5jwDEGbHRveu/cg+3uPc03vMHfuTVTV5Qxi16wRUPMK8PBImVdtzrAtd/FrXtauGMJVPS5jXsTxYsxEOV42CqbAXGCYCwxHFzNgc7bFJlfYlLHocSw2ZYQO22rJbUNZuqcn3/6EZ3hsoljzJ6/9DGD0Xc/MBtw4kF82Grfs/wG25xy25xwCA6PliFPlmEk/5kJeXS82eDGMeWeCKTlbuK6vOgNsJF84chN37j2IKnzx6E2Jth2jPDPrg/Bu4LFa2qrZgtyPPvk0cO1g3uHA5kxNLUYGJv2Yca9iDMUqS6V7MxY39OfW3nE7ofDUTMDJUgTwi/Dvf+O6WppLwhG0C2CkHNE5L1y9yV37YCzYnrfZnq88zV6sTAWGuSBmPlDmQkOwzBKRbbFMonry3Hx4evIBLqu1vZoNwBXZFC5uckcXQnyjXNubqXo7uBA5W9iRt9mRP7O8e7FhbtEY5iODK8K+nrUbXbugqvxyLuLFwpnoqGtJb62B5poNIOcI4ZKo2PFihBcr12/OkKnDk5mzLXJ5GMi31p5fT/xY+flMwLh3diJJ3hZqLROp+Rq4JXt+E+NezPdOeZyqof4tpcK4F/P9ce+8yYeKz6RWajaAHfnlFxHfKD+d8nliOqC8Ct2blAqlSHliKuDxSR9/hSzhSztqd+PUvAVszlpsy9lMLGOhACOliFPliCu6HPZ0u3XZFtYTgVGOLYQMFaILXom35Sz6EgixJxIOvrY3w/fGyisO2CgcW4h4oRAx2OGwt9ul00kNYSnlSHmhEDJcjM6LpJ6LjXBtbzLCrIkYQKcjXL85wxPTwQUrYI3CyWLES8WI/rzNrg6H/pydyI2hHTHA+KJHdNwz1UUBBX69L7kHKLGEkMG8Q7FHOVSFXIxSSRIZK8dkbWEwb7M977AlI+u+rFyBKd9wqhzxUile1q9xIfb3uFzakVweT6IZQVd1u2Qt4ZnZ4IL711L8WBkqRAwVIjKWMJCz6M/bbMna68bB48cwFUSMeYbx8uonHSqFL7+2yeHyrmR9HomnhO3qdMjZwlPTwao/aGCUE6WYE6UYBLodYWvWZnPWYpNr02lLSwZ+zkKhGCuzgWE6MEz5EQs1Zg9nF+Md/XWId9QlJ7A/Z3Pj9hxPzwRr9wUoLITKQhgxVKi85FpCb8aixxW6HItOx6LLsWhW5bkfQyEyFCNDITTMhcpcYAgTDP/152yu68vULTeibkmhWUv4zS1ZRkoRv5oPE/EFhEaZ8GLOFchyRcg50GFbZG0ht/iTEcGxKrWEriU4S+oHLUuxF5eTGMWYyu9GIdLFgtHF+sFAFS+u/PixUooNXkSiE30uHY6wf5PL4Ap+lqSoe13AYIfD9rzDC4WI5xfCNe1/FyNUJQxhoREF9XUmYwlXdrvs7nIacjtqSGGIJXBlt8MVXQ4jpYgjC2HVod6NQt4RruhyuazToZGZcA2tDLIELu102NHpMF6OOV6KGPcunASynrGA/pzDrk6b/pzVlCtwU0rDhEo0byBv48fKSDnmVDliKtDVpES3JUIlgLY977Cjw266a7zptYFZW9jd5bC7yyEw+vJdecqP8dfJ0pC1YUvGednH0exJX0rTDWApGUvY2WGzs8OuXAMjZdKPmfYNc2FMMdaaxBYbgkCnXbmubs5YbMk6dFfxp+CaRUsZwFkIdLtCt+uwu6vyUmgqDpb5UM/cvyNDs1RWsjZn/BHumYxlt43c2a1rAMvgWsK2nM22c/I/Q1W8CEqRwTdn7uyBViRlQlMxnkjPaAIYI8SLy4mNYFmV3y0BRwR30X/gWBV/wmnfQtYSOhyLnENbTfRKtJUBrIQrgutCt7tx0sSSItUH2OCk+gAtwmprCZMi1QdoERpSS7gMqT5Ai7DGWsJUH2C9sMZawlQfoFVZrebPcKGfjz35R6vqI9UHaGEaovmT6gO0sD7A2jR/qibVB1ikVfUB1qj5UxWpPsA5pPoAayfVB2gzUn2AVB/g5ddSfYANQqoPsIFJ9QE2KKk+wAYl1QfYoKT6ABuQVB8g1QdI9QFSfYDqSPUBUn2AVB8g1QdInlQfgFQfoK6k+gCrI9UH2KCk+gAbkFQfINUHaLprvOm1gak+QHNpugEsJdUHaDwtZQBnkeoDNITWNYBlSPUBkqetDGAlUn2AtZPqA2xwUn2AFmG1tYRJkeoDtAgNqSVchlQfoEVYYy1hqg+wXlhjLWGqD9CqrFbzZ9ge5OPdd62qj5bQB7As/Y+LvWcj6gM0RPOnFfQB/vtD+39862cO/a8Iv3ex924ofYC1af6sAvnOA3ftfbzWVpK5Bqq+H5GngaqS1TeCPsAaNX+qQ/BsE70/maYS4tbPHP5DEf2vWtpM9QGqQkHe8z8f3lfz8g8JL55v+8zhu1X0k0m1V60+wEDO5re2JlMp0+qocPeDd1396aTaS3z3fOs9h+8EvQ+oS9H+SvoAKx0s1xGxIh968MP7Pptko3X51t5yz+GbLfTfgK31aH8DMiGi737grv3fSrrhuriCv/rhfd/UyHkF8NV6tL+REPhm5HBdPSZ/sf368tZ/OPwOVD8FXF7vvtYVypDA3Q985Oq6BgYasnHefO/RbIeJP6jKX5FuCxdjUtFPe7bzj9/84FV+vTtr6Mnp5nuPZnPGvENU/wbY28i+24AXRfmHoLPwz1/7s1fWKv1TNU05Ot/4iUedzb2X3ILyx8AbqdONoQ0IEH0E5Ev24L5HvnKbNDy7sel3p7ffe3RbZOLbUW4VuAFoLZde8kQIP0D1wTC2vvy1v9g32czBNN0AlnLrPz23xQp4kxG5ReBGoDF/NqPuyJii30fkERzzyIN/vn+q2SM6TUsZwFmoytvu+dU1WNbvKrwGtV4JuodWHnMFBY4p8jPgR5ZG33vgI694ttmDWolW/zLP4i33DPU6VnAgNuZ6S9mrIntBrgYdaM6IZAz0kKgeUTisIk85vvvEV+7es2yWVCvSVgawEm//1PObory/04rsXWoxCOZSERlA2aJIL2gvSB/QLWgGQIU8SiWCJHiilAEUCYAF0BmQWUFnEaZUdQyRExLLqHHi4045e6KdJnol/h+TapJAQ2wLTQAAAABJRU5ErkJggg==;" parent="164" vertex="1">
                    <mxGeometry x="580" y="60" width="90" height="90" as="geometry"/>
                </mxCell>
                <mxCell id="117" value="Metadata" style="text;html=1;align=center;verticalAlign=middle;resizable=0;points=[];autosize=1;strokeColor=none;fillColor=none;" parent="164" vertex="1">
                    <mxGeometry x="505" y="240" width="70" height="30" as="geometry"/>
                </mxCell>
                <mxCell id="118" value="ImageModel" style="swimlane;childLayout=stackLayout;horizontal=1;startSize=30;horizontalStack=0;rounded=1;fontSize=14;fontStyle=0;strokeWidth=2;resizeParent=0;resizeLast=1;shadow=0;dashed=0;align=center;" parent="164" vertex="1">
                    <mxGeometry x="565" y="430" width="125" height="120" as="geometry"/>
                </mxCell>
                <mxCell id="119" value="+ ImageURL : URL&#10;+ tags: List&lt;String&gt;&#10;+ Data Added: Date" style="align=left;strokeColor=none;fillColor=none;spacingLeft=4;fontSize=12;verticalAlign=top;resizable=0;rotatable=0;part=1;" parent="118" vertex="1">
                    <mxGeometry y="30" width="125" height="90" as="geometry"/>
                </mxCell>
                <mxCell id="161" style="edgeStyle=none;html=1;" parent="164" source="160" target="115" edge="1">
                    <mxGeometry relative="1" as="geometry"/>
                </mxCell>
                <mxCell id="160" value="" style="shape=image;verticalLabelPosition=bottom;labelBackgroundColor=default;verticalAlign=top;aspect=fixed;imageAspect=0;image=data:image/png,iVBORw0KGgoAAAANSUhEUgAAAgAAAAIACAYAAAD0eNT6AAAABHNCSVQICAgIfAhkiAAAAAlwSFlzAAAOxAAADsQBlSsOGwAAABl0RVh0U29mdHdhcmUAd3d3Lmlua3NjYXBlLm9yZ5vuPBoAACAASURBVHic7d13vBXluf7/65mZtWkbQVGMvQbR2GJBsQVFTYwaYy+xi0CMNTknOfmdnJN+zvmlWaKJIMEWK2JBExsoiRUM9oK9gooidW9gr5l5vn8QCNtF2Xuvcs9a83m/Xv6RiM9cCbLnumetdS8JAAAAAAAAAAAAAAAAAAAAAAAAAAAAAAAAAAAAAAAAAAAAAAAAAAAAAAAAAACsgbMOYGnOkJ37urg51/8fAEBepd0XpetMnDbPOoeVhrz5+YN37NXqu2/rU7+N98HAIPDbeK/NndPa3qtZUi9Jva1zAgAyYYGkhUv/cnPk/Tve+enOu+lOwas9exWnu7untVqHrLSGKAB+yJCo1S3ayTt/oJw7UPL7SWqyzgUAaAixnJ6TNFHyE3sV5jzi7n1jiXWoctVtAfBDhkStUetXfapT5XS4pB7WmQAAudAi6U55d12vfptOcuPGJdaBuqLuCsD8oYMGBNIISSdJ+oJ1HgBArs2QdEPsk9F9H5r2pnWYzqibArDg4N22d2nwfXmdKCmyzgMAwApS5zQ+VfDj3hOffMU6TEdkvgAs3H/QTj7QT530DdVBXgBAri0tAt79pPekKS9bh1mdzN5Q/cE79mpJu/+XvL4nJn4AQH2JJfeHRYujH6332GMLrMOsTCYLQMsBux/unbtC0ibWWQAA6Do/U879sHni1Ousk3xepgrAnCE7943CprFOOtI6CwAAFeN146IlhZFZehqQmQLQsv8euyrwt3hpK+ssAABUwWtKdVzzw1Ofsw4iSYF1AElaMHT3833gH+fmDwBoYAMU6ImWAwYNsw4iGT8B8JJrGbrHryX/PcscAADUlrus16QpFzrJmyWwurA/9ktNLXN6XfPPz/UDAJA31/VKep7lJk+OLS5uUgD8wTv2akm6j5f0VYvrAwCQBd75Cc1xr+Pd5MmLa33tmhcAv+uuhZa+0V2SP6TW1wYAIIPu7pX0PKrWTwJq+iZAL7mWvuFV3PwBAFju8Jaodayv8VBe0wLQcsCg30o6rZbXBAAg87xOWTh00C9qecmatY0FBw46z3ldVqvrAQBQd7w7s/mhKVfX4lI1KQAtBw3azad6VFK3WlwPAIA6tVip9qzFsqCqvwQwZ8jOfdNUt4ibPwAAa9JdgW79ZO+9e1f7QlUvAE1hYYyTtqz2dQAAaBADenQvXl7ti1T1JYAFB+5+nPPulmpeAwCARuSkw3tNmnpPFc+vjk/23rt3j+7FVyRtVK1rAADQwN7t1TPZzt09rbUah1ftJYAePdp+Jm7+AAB01WYLW6P/qNbhVXkCsHDoHjtKfpqkqBrnAwCQE0uSwO3Q58Epr1f64Ko8AfDyPxE3fwAAytUtTP2PqnFwxZ8ALDhwz22dT19UjbcMAgDQoJIkcNtW+ilAxW/SLk1/VI1zAQDIqTBI9O+VPrSiTwDmDRm8dRgm0yWFlTwXAICcawtCv3XPB556v1IHVnRSD8NkuLj5AwBQaU0+dmdW8sCKFQD/EwWSTqzUeQAA4F+802mV/MrgihWAlkcHHSRp40qdBwAA2tliwf677VWpwyr5EsBpFTwLAAB8jgvcqZU6qyIFwB/7pSZ5faMSZwEAgJVzckf/8yX3slXkkIWze+4pqVclzgIAAKvUr/XR3XaqxEGVeQkgcAdU5BwAALBaPg2HVuKcihQA50UBAACgFlxl7rllf5zADx7co6VnMldSUwXyAACA1WvplfTs6yZPjss5pOwnAC3N8Tbi5g8AQK30ml9YtEW5h5RdAHwaDCz3DAAA0HFRkpZ97y27AATeb1PuGQAAoOO8grLvveU/AQhEAQAAoIa8K3/4Lr8AeJX9OgQAAOg4J21Z7hllFwAn9Sn3DAAA0ClrlXtAJfYANFfgDAAA0HG9yz2gEgWg7BAAAKBTeAIAAEDeOOsnAH7IkEhSVG4IAADQcV7qXu4ZlfkyIAAAUFcoAAAA5BAFAACAHKIAAACQQxQAAAByiAIAAEAOUQAAAMghCgAAADlEAQAAIIcoAAAA5BAFAACAHKIAAACQQxQAAAByiAIAAEAOUQAAAMghCgAAADkUWQcAOqS5Wb5HT6lbD/lu3aRezcv/lmtrky8ukVIvN3+etGC+XNsSw7AAkH0UAGSC79ZdfuNN5TfebOlf6/VXuu560jrrya+zjhQVOnWea1sizZ8nfTpLwcwP5D78QMHMGXIz3peb+b6UplX6XwIA9YECgNoLQ6WbbyW/zZeUDthW6YBt5ddbX3KuYpfwTd2kdftL6/ZXMnD79n9z0SIFr72i4NWXFLz2koJXX5YWLarYtQGgHlAAUBN+w02VfnlXpTvtpvRLO8p3624XpkcPpTvtonSnXZb+5zhW8NLzCqc+puCpx+U++9QuGwDUSFkjlx8yJGoJW4uVCoMG4pzSL26rZPC+SvfYV77/+taJOsZ7BW++pvCRSQonPyi1LLROBAArEzdPmtq510Y/hwKAivKbbKH4gIOV7vUV+X7rWccpi2tbouDRhxXef7eCN1+zjgMAKyq7APASAMrXs5eSfQ5QcsBXlW69jXWaivFN3ZQc8DUlB3xNwevTFY67XuHTU61jAUBF8AQAXeY32FDJAV9XfPCh7T6W18iC119RdOPVCl54xjoKgHzjJQDUnh+4veKjTlTy5d0r+s79ehI8/7QK114p9+7b1lEA5BMFALWTbvMlJUedoGTXPa2jZEOSKJpwm8Jbr5MrtlmnAZAvvAcA1ceNfxXCUPGRxysZvK8KV/5OwYvPWScCgA6jAGCV0u12VHzsKUp32Nk6Sqb5L2yoth//SuFf7lThz1dJcWwdCQDWiAKAEn6DDVU88Syle+1nHaV+uEDJYUcp3XqAmn7zC7m5s60TAcBq8W2AWM536674uFPV9turuPl3kR+4vdp+fYXSAdtZRwGA1aIAQHJOyZCD1XbFNYqPO0W+qck6UV3za/dT8ae/VjL0EOsoALBKvASQc+mAgYrP+I7SLw60jtJQfKFJxZEXST17Kbz7Nus4AFCCApBTvqmbkmNPUXzEsVLAg6CqcE7F00bIr9VX0Q1jrNMAQDsUgBxKdhmkePgF8uv2t46SC/GRx0sSJQBAplAAcsT36av4jHOU7LO/dZTciY88XvKpohvHWkcBAEkUgNxI99pPxWHnya/V1zpKbsVHnSh9OkvRA/dYRwEACkCj8337qfid7yr98iDrKJAUn/kdBR9+oOCFZ62jAMg53v3VwNLB+2rJ70Zx88+SKFLb938qv8nm1kkA5BwFoBH1albxgv9Q2/f+W1qrj3UafF6Pnmr7/k+l5t7WSQDkGAWgwaQ77qIlvxutZN+h1lGwGn6DDVU853vWMQDkGO8BaBC+qZvik89Scsg3JVfWtzyjRpJBeyv4ykEK//agdRQAOcQTgAbgN95Mbf9zmZKvH8nNv84Uz/qO/HrsYwBQexSAeuac4oO+rrZfXSG/+ZbWadAVPXup7YIfso0RQM3xU6dO+T59VfzhLxSPuEi+qZt1HJTBD9xeyaFHWccAkDMUgDqU7riL2n57pZJd+Hhfo4hPPF3p+htYxwCQIxSAOuILTYq/NUxt//W/8n37WcdBBfmmborPPt86BoAcoQDUCb/Rpir+72VLd8o7ftsaUbrzbkr3HmIdA0BOcCepA8lXDlLbr65QuvlW1lFQZcUzzpGam61jAMgB9gBkmF+rr+Jzvqtkt8HWUcy5tiXSzBlyH85Q8NEM6ZOP5VoWyrW2St27Sc4pbe4t9e0nv8GGSrf6ovwGG9fd0xLfd23FJw1TNPoS6ygAGhwFIKPSnXdT8dx/y+dr/Wmq4N235Ka/pODVlxW89pLcJ7Mk71f7j5Xc6publew8SMmgveR3Gyzf1FS1yJUUH3SIwr9NlHv1ResoABpYWVtj/JAhUUvYWqxUGPzzjX5njFRy0GH5WuqzcKHCp59UOOUxBc/9Q1q8uKLH+7X6KjnoUCVf/6Z8n+x/JbJ7/211+/dzpDi2jgIgm+LmSVML5RxAAcgQv1ZftX3/x/IDt7eOUhNuyWKFjzyk4Im/KXjp+drc7Hr0VHz0SUoOPVK+kO0nAtGNYxXdfpN1DADZRAFoGM29teRnv5XfdAvrJFXnZn2k8L4JiibdK7UsNMngN9pExfN/qHSrL5pcvyNc2xI1fXe43EczraMAyB4KQEOIIi35ya8bfvIPXn5O4d23K/zHk5JPreNIUUHxiWco/sYxmX25JXjuaTX9/AfWMQBkT9kFgDcBZkB8/OkNffMPXntZ0U3XKHjhGeso7cVFRdePlnv/HRVHXiRF2fvjkO60i5J9hyp8ZJJ1FAANJns/8XLGb7LF0gm0AQVvvaHw5msUPj3FOspqhZMfkJs7W23f+7HUo4d1nBLx6SMVPjNVWrjAOgqABlJfH5JuQPEJp0phaB2jotysj9T025+p6QfnZP7mv0zw7DQ1/d+Plu4byBjfp6+KJw+zjgGgwVAADPn1+ivZfS/rGBXjlixWdNM1arrgLAVPPLLGz+1nTfDS84p++4tMfvQuGXqI0m13sI4BoIFQAAyle+zbGN8D773Cxyar6fwzFI2/Qa7YZp2oy8JpT6owKoNb+JxTceSFUlTWe34AYLkGuPvUr3T7nawjlM29/7aa/vt7Klz8S7nZn1rHqYjw4fsV3jfBOkYJv9Gmir95vHUMAA2CAmConr/cx7W1KbrpanX793MUvPKCdZyKK1zzR7np2VvFmxx1ovwGG1nHANAAKABWnJPvu451ii4JXnhWTd8brmj8jZl8vbwi4lhNv/ultNBmUdGq+KYmFYdfmNm9BQDqBwXAiI8Kmfzc+WotmK/C5b9W08++L/fhDOs0Vec++1SFsVdYxyiR7rCzkv0OtI4BoM5RAIy4OM7GNrwOCp54RN0uPEvh5Afq7t395Qj/PlHhlEetY5SITxsu9V7LOgaAOkYBsOJTuY8/sk6xZvPnqeniX6rptz+TmzfXOo2J6KrLpAXzrWO049fqq+Kpw61jAKhjFABDwfvvWkdYrfDpKer2vREKHptsHcWUmztHheuvso5RIhlysNIddraOAaBOUQAMuXfftI6wcgsXqHDJ/6rwPz+SmzPbOk0mhA/fv/Qri7PEORWHnZ/5rzUGkE0UAEPBlMesI5QInn9a3b47XOGjD1lHyRbvVRh1sVxbtpYc+Y02UXLkCdYxANQhCoCh4O035N592zqGpH9+rv+GMWr6+Q/lPmuMhT6V5mZ+oPDOW6xjlIiPOkF+o02tYwCoMxQAY9FD91pHUPDWG2r6928ruuOWuvpkgoXwjpvlZrxvHaO9qKDiiPPZDQCgUygAxsL777H7TL1PFf71DjX9f+fLzXjPJkOdccW2pd8VkLGPQqbb7aRk/4OtYwCoIxQAa3FR0XWja35Z98ksNf34+yqM/YMUF2t+/XoWvPz80n0IGVM8dYR8n77WMQDUCQpABoRPPa7g8b/V7nqTH1C3756t4OXnanbNRlO4brQ0f551jPaaeys+dYR1CgB1ggKQEYXLf63g9enVvUjLwqUf77v819Ki1upeq9EtmL+0BGRM8pUDle64i3UMAHWAApARrm2JCr/6idwns6pyfvDsNHW7cBgf76ug8G8PKnjhWesYJYpnsxsAwJpRADLEzZmtph+ep+D1Vyp3ZlubCn+6Qk2//CFLfSrNexWuujR7uwE22EjJMSdZxwCQcRSAjHFzP1Phv/9N4cP3l/1Oc/fOW2r6wbkK770zc+9abxRu5gcKb7/JOkaJ+Ijj5DfezDoGgAyjAGSQK7apcMVv1PSjixS81vn3Bbh5c1UY83t1+8E5cu9nY9FQI4vuvCV7H6OMCiqOuIDdAABWqayfDn7IkKglbOUzZNXknJJd9lB6wFeV7rybfLfuK/91cbz042mPPqTgkYflitl6LN3o0u12VNtPf5O5G27hyosVTvyrdQwAlRc3T5paKOeAqFJJUCXeK5z2pMJpT0pRQenmW8pvsLHUq5cUFaQF8xV89KHce29KixZZp82t4OXnFT50n5Khh1hHaad48jAF/3hCbu4c6ygAMoYnAEClNPfWkkvHZm4ZT/jIJBUu/T/rGAAqq+wnALwHAKiUhQsUXTvKOkWJZN+hSnbZwzoGgIyhAAAVFP59ooLnnraOUSIedt6q3z8CIJcoAECFFcZcKte2xDpGO77/+kqOZjcAgH+hAAAV5j6cqXD8jdYxSsRHHKd08y2tYwDICAoAUAXRXePk3n/HOkZ7Yah4+EWS4489AAoAUB1xUYU//lbyqXWSdtIBAxUflK2PKgKwQQEAqiR4bbqiSfdZxygRnzJcfu1+1jEAGKMAAFUUXTc6e1/C1KOn4tNHWqcAYIwCAFRTa4uia0dbpyiR7D1Eya57WscAYIgCAFRZ+OhDCp+eYh2jBLsBgHyjAAA1EF11mdySxdYx2vHr9Vdy7MnWMQAYoQAANeA+maXwthusY5SIDz9G6RZbW8cAYIACANRINGGcgnfetI7RXhgqHnGhFPCjAMgb/tQDtZIkikZdkr3dAFtvo+Sgw6xjAKgxCgBQQ8Hr0xU9+FfrGCWKJ58lv8661jEA1BAFAKix6Pqr5D771DpGez16qnjGOdYpANQQBQCotUWtKlw7yjpFiXTwvkp2H2wdA0CNUAAAA8FjkxVOe9I6Ron4rHOl7uwGAPKAAgAYicb8Xlqcsd0A6/ZXfNyp1jEA1AAFADDiPpml6LY/W8coER92tNIt2Q0ANDoKAGAouvs2BW+/YR2jvSBQPOIidgMADY4/4YClZbsB0oztBthqgJKvHWEdA0AVUQAAY8Ebryp84B7rGCWKJ54h34/dAECjogAAGVC44U8Z3A3QQ/GZ37FOAaBKKABAFixqVeHqP1inKJHssY+S3feyjgGgCigAQEYETzyi8KknrGOUiIedK/XoYR0DQIVRAIAMif50efZ2A/RbT8XjT7eOAaDCKABAhrhPZym69TrrGCWSQ7+pdMBA6xgAKogCAGRMdM94BW9lbDeAC1QcfpEUhtZJAFQIBQDImjRVNOpig90AfvV/d/MtlRzyzRplAVBtFAAgg4I3X1N4/4QaX9Wt8VfEJ50h3/8LNcgCoNooAEBGFW4cKzc7W7sBfFM3Fc8+zzoGgAqgAABZtWiRCmOvsE6hz780kH55kNI99jHKAqBSKABAhgVTHlX41OPGKUpfGiiefa7Uq9kgC4BKoQAAGReNuVxatMg6Rju+bz8VTzjNOgaAMlAAgIxzsz9R4ZZrrWOUSL72DaUDtrOOAaCLKABAHQj/eoeCN1+3jtGeC1QceaEURdZJAHQBBQCoB2mq6I+/kZLEOkk7ftMtFB96pHUMAF1AAQDqRPDOWwrvvcs6Ronk+NOUrr+BdQwAnUQBAOpIdNPVcrM+to7Rjm/qppjdAEDdoQAAdcQtWaxozGXWMUqkO++udK/9rGMA6AQKAFBnwqenKpzyqHWMEsUzv8NuAKCOUACAOhRddbnUttg6Rju+7zoqnnSGdQwAHUQBAOqQmzdHrqXFOkaJ5ODDlG7zJesYADqAAgDUoXTwvvJr97OOUcoFKo68gN0AQB2gAAD1xgUqHvMt6xSr5DfZQvHhR1vHALAGFACgzqSD95XfdAvrGKuVHHuK/Bc2tI4BYDUoAEA9ydr071fxXzd1U3EYuwGALKMAAHUkc9N/6TcFL5fuvJuSvYfULAqAzqEAAPUia9N/B8RnnCM1sxsAyCIKAFAnMjf9d4Dvu7bib51tHQPASlAAgHpQh9P/MvGBh8gP3N46BoDPoQAAdaAep//lnFPbt78rX2iyTgJgBRQAIOvqePpfxm+0iRJ2AwCZQgEAMi7da7/6nf5XkBx7svxGm1jHAPBPFAAgy1yg4tEnWaeoCF9oUnH4hZJbzWcHAdQMBQDIsEaZ/pdJv7Sjkn2HWscAIAoAkF0NNP2vqHj6SGmtPtYxgNyjAAAZ1WjT/3Jr9VHxW2dZpwByjwIAZFGDTv/LJAd8TekOO1vHAHKNAgBkUMNO/8s4p+LZF7AbADBEAQCypsGn/2X8hhsr+eZx1jGA3KIAABnT8NP/CpKjTpTfcFPrGEAuUQCALMnJ9L+MLzSpOPJ8dgMABigAQIbkafpfJt1uJyVfOcg6BpA7FAAgK3I2/a+oeNoI+bX6WscAcoUCAGREHqf/5XqvpfiUYdYpgFyhAABZkOPpf5lkyMFKd/iydQwgNygAQAbkevpfxjkVh7MbAKgVCgBgjel/Ob/BRkqOPME6BpALFADAGNN/e/FRJ8hvvJl1DKDhUQAAS0z/paKCiiMuYDcAUGUUAMAQ0//KpdvuoGT/r1rHABoaBQCwwvS/WsVTh8v3YTcAUC0UAMBI5qb/JUusE7TX3FvxqSOsUwANiwIAWMja9N/aosINf7JOUSL5yoFKd9rFOgbQkCgAgIGsTf/RPeMV3nungheetY5SojjsAvmmbtYxgIZDAQBqLYPTf/TXOyTvVbjqUrlim3WidvwGGyo5+kTrGEDDoQAANZbF6V8LF0qS3MwPFN51q3GiUvERx8lvsrl1DKChUACAWsrq9L+CcPxNcjPfMwq0ClFBxW9/T3L8yAIqhT9NQA1lefpfxhXbVLjyMsl7o1Qrlw4YqHjo16xjAA2DAgDUSh1M/8sELz+n8O8TaxxozeJTh8uv3c86BtAQKABAjWRu+r/7tpLpf0WFa66Umz+3doE6omcvxacNt04BNAQKAFALmZz+71z9r1kwX9Gfx9QmTyck+xygZJc9rGMAdY8CANRAJqf/llVP/8uEDz+g4IVnapCoc+Kzz5fv1t06BlDXKABAtdXj9L+M9yqMvlSuLWO7Adbrr+TYb1nHAOoaBQCosnqd/pdxH85QeOctVUzUNfHhxyrdfCvrGEDdogAA1VTP0/8KottvkpuRsd0AYah4xIXsBgC6iD85QBXV+/S/XFxUYdSl2dsN8MWBig/6unUMoC5RAIBqaZDpf5ng5ecVPvxABQNVRnzK2fLrrGsdA6g7FACgSjI3/U/o4vS/gsJ1o+TmZWw3QI+eKp4+0joFUHcoAEA1ZG36b1mo6N6uT//LLVyg6LrR5Z9TYeleX1Gy22DrGEBdoQAAVZC56f/u8WVP/8uEf3tQwfNPV+SsSoqHnSt1ZzcA0FEUAKDSGnX6X0Hhqsuytxtg3f6Kjz3FOgZQNygAQIU18vS/jPtwhsLbb6romZUQH3a00i22to4B1AUKAFBJOZj+l4nuvEXug3ercnaXLdsNEPCjDVgT/pQAFZSH6X+5rO4G2HobJV893DoGkHkUAKBScjT9LxO88oLCSfdW9RpdUTzpTHYDAGtAAQAqJHPTfwU+998RhT+PyeZugDO/Y50CyDQKAFAJWZz+77urNtdauEDRNVfW5lqdkO65j5Ld2Q0ArAoFAKiAvE7/y4SPTFLwXAZ3A5zFbgBgVSgAQLnyPP2voDDqd3JLFtf8uqvj1+2v4vGnWccAMokCAJQp79P/Mm7WxwrH31jz665JcuhRSrdkNwDweRQAoBxM/+1Ed90q985bZtdfqSBQPOIidgMAn8OfCKAM2Zv+x5lM/8sliQqjL5Z8apdhJdKtBig55AjrGECmUACArsrk9D/BOoWC16YrmnifdYwSxRPOkO+3nnUMIDMoAEAXMf2vWnT9aLk5s61jtNejx9I1wQAkUQCArsna9L9wgaK/VnfrX6e0tii6dpR1ihLJLoOUDNrbOgaQCRQAoAsyN/3ffZu0qNU6Rjvhow8rnPakdYwS8fDzpJ69rGMA5igAQGcx/XdYNOb32dsN0LcfuwEAUQCATmP67zj3ySyF426wjlEi+foRSr+4rXUMwBQFAOgMpv9Oi+4ep+CdN61jtOcCFUdeJEWRdRLADAUA6ITMTf8TxmV2+l8uSRSNuiRzuwH8ZlsoOeSb1jEAMxQAoKOyNv0vmK/o3mxP/8sEr09X+OBfrGOUiE88Xb7/F6xjACYoAEAHZW76v/s2adEi6xgdVrh+jNxnn1rHaMc3dVPx7POsYwAmKABARzD9l29RqwrXXGmdokT65UFK99zHOgZQcxQAoAOY/isjePxvCv/xhHWMEsVh50m9mq1jADVFAQDWhOm/oqIxl0uLs7YbYB0VTzjdOgZQUxQAYA2Y/ivLfTpL0bjrrWOUSL52uNIB21nHAGqGAgCsDtN/VUT3jFfw9hvWMdpzgYojL2Q3AHKDAgCsRuam/wnj6nr6X27ZboA0Y7sBNt1C8aFHWccAaoICAKxKFqf/++6yTlExwRuvKrz/busYJZLjT1W6/gbWMYCqowAAq8D0X32FG8dmcjdAzG4A5AAFAFgZpv/aWNSqwtgrrFOUSHfeXeleX7GOAVQVBQBYCab/2gmefFThUxncDXDmOVIzuwHQuCgAwOcx/ddc9Kds7gaITzrLOgZQNRQA4HOY/mvPfTpLhVuutY5RIj7o6/LbbG8dA6gKCgCwIqZ/M+FfblfwVvZ2A7SNPJ/dAGhIFABgBZmb/u9q/Ol/uTRVNOri7O0G2GQLxYcdYx0DqDgKALBMFqf/+/Mx/S8TvPmawgw+8UiOO1n+CxtaxwAqigIA/BPTfzYUbrpabnb2dgMUh51vHQOoKAoAIDH9Z8miRYoyuRtgVyX7HGAdA6gYCgAgpv+sCac8qnDqY9YxSsSnj2Q3ABoGBQBg+s+k6KrfS60t1jHa8X3XVnzy2dYxgIqgACD3Mjf9T7g119P/Mm7ObBVuvc46Rol46CFKt9/JOgZQNgoA8i2L0/99E6xTZEb4lzsVvP6KdYz2nFPx7AvkC03WSYCyUACQa0z/GedTFa68WEoS6yTt+I02UfINdgOgvlEAkF9M/3XBvfu2wnvvtI5RIjnmW/IbbWIdA+gyCgByi+m/fkQ3Xi036yPrGO34QpOKwy+UnLOOAnQJBQD5xPRfV1zbEhWu+r11jBLpl3ZUst9QSM+6lQAAF1pJREFU6xhAl1AAkEtM//UneGaqgimPWMcoUTz929JafaxjAJ1GAUD+MP3XrcJVV0gtC61jtNd7LRVPHmadAug0CgByJ3PT/11M/x3l5s5W4eZrrWOUSPb/qtIddraOAXQKBQD5krXpf/48Rfcz/XdGeN8EBa+9bB2jPXYDoA5RAJArmZv+J+R753+X+FSFUZdIcWydpB2/4cZKjjzeOgbQYRQA5AfTf8Nw776t6C93WMcokRx5gvxGm1rHADqEAoDcYPpvLOEt12ZzN8CI89kNgLpAAUA+MP03nMzuBthuJyVDDraOAawRBQC5wPTfmIJnpip4/O/WMUoUTx0u36evdQxgtSgAaHxM/w2tMDabuwHiU862TgGsFgUADS9z0z+f+68oN/czFW682jpGiWTIwUp3+LJ1DGCVKABobEz/uRA+cI/cqy9ZxyhRHM5uAGQXBQANLZPT/+LF1jEaj0/VNOrS7O0G2GAjJUedaB0DWCkKABoX03+uuPfeVnTPeOsYJeIjj5ffeDPrGEAJCgAaFtN//oS3Xq/g4w+tY7QXFVQccQG7AZA5FAA0Jqb/XHJtSxRddZl1jBLptjsoOeBr1jGAdigAaEhM//kVPPsPBY9Nto5RonjK2ewGQKZQANB4mP5zr3D1H6SFGdsN0Nxb8WkjrFMAy1EA0HCyN/3fwvRfY27uHEU3/sk6RolkvwOV7rSLdQxAEgUAjSaT0//d1ilyKXrwr3LTX7SOUaI44rvy3bpbxwAoAGgsTP9YLqu7Afqvz24AZAIFAI2D6R+f495/R9Hdt1nHKBF/83ilm29pHQM5RwFAw2D6x8qE4/4s99FM6xjthaHi4RdJjh/BsMO/fWgMTP9YBde2RIUxGdwNMGCg4gPZDQA7FAA0hMxN/3cy/WdJ8Ow0hY8+ZB2jRHzKcPm1+1nHQE5RAFD/sjj9P8D0nzWFsX+Q5s+zjtFez17sBoAZCgDqHtM/OmT+PEU3jrVOUSLZZ38lu+5pHQM5RAFAfWP6RydEk+5V8OJz1jFKxMPOYzcAao4CgLrG9I9O8V6Fqy6VK7ZZJ2nHr9dfyTEnW8dAzlAAUL+Y/tEFbsb7CieMs45RIv7GMUo338o6BnKEAoC6xfSPrgpvu1FuxvvWMdoLQ8UjLmQ3AGqGf9NQnzI2/bu5cxTexzf+1QtXbFNh9CWS99ZR2km/OFDJQYdax0BOUABQlzI3/d91q1zbEusY6ITgpecV/n2SdYwSxVOGya+zrnUM5AAFAPUng9N/wNa/ulS45o/Z2w3Qo6eKp3/bOgVygAKAusP0j4pZMF+FP4+xTlEi3Ws/JbsNto6BBkcBQH1h+keFhQ/fr+CFZ61jlIiHnSt1ZzcAqocCgLrC9I+KW7YboC1juwHW7a/42FOtY6CBUQBQP5j+USVu5gcK77rVOkaJ+LCjlG6xtXUMNCgKAOoG0z+qKbz9JrkZ71nHaG/ZboCAH9WoPP6tQn3I3PT/GdN/g3HFNhVGXZa93QBbb6Pkq9+wjoEGRAFAXcjc9H8n038jCl5+TuHfHrSOUaJ40pny/dgNgMqiACD7sjj9P3CPdQxUSeHaUXLz51rHaK9HDxXPPMc6BRoMBQCZx/SPmlowX9H1GdwNsMe+SnbfyzoGGggFANnG9A8D4eQHFLzwjHWMEvGwc6UePaxjoEFQAJBpTP8w4b0KozO4G6Dfeioef5p1DDQICgCyi+kfhtyHMxTeebN1jBLJ149UutUXrWOgAVAAkFlM/7AW3X6z3AfvWsdoLwhU/Pa/SWFonQR1jgKAbGL6RxbERRVGXZq53QB+8y2VHHKEdQzUOQoAMil70/8tTP85FbzygsKH77eOUSI+8Qz5/utbx0AdowAgezI5/f/FOgYMFa4bLTcvW7sBfLfuioedbx0DdYwCgMxh+kfmLFyg6LpR1ilKJLsMUrLHPtYxUKcoAMgWpn9kVPi3iQqef9o6Ron47HOlnr2sY6AOUQCQKUz/yLLCVZdm7t8H37efiiewGwCdRwFAdjD9I+PchzMVjr/JOkaJ5JAjlA7YzjoG6gwFAJmRuen/jpszN+3BXnTXrdnbDeACFUdcKEWRdRLUEQoAsiGL0/+Df7WOgSyKi2q68pLs7QbYbAvFXz/SOgbqCAUAmcD0j3ripr+oaNK91jFKJCecJt//C9YxUCcoALDH9I86FF03Wm7ubOsY7fimbiqefZ51DNQJCgDMMf2jLrW2KLpmtHWKEumXBykdvK91DNQBCgBsMf2jjoWPPqTw6SnWMUoUzzpX6tVsHQMZRwGAKaZ/1LtozO/lliy2jtGO77uOiieeYR0DGUcBgB2mfzQAN+tjhbfdYB2jRPLVw5Ru8yXrGMgwCgDMZG76v53pH10TTRgn985b1jHac4GKIy5gNwBWiQIAG5mb/mcrmMj0jy5KEhVGXyz51DpJO37TLRQfdrR1DGQUBQAmsjf9s/Mf5Qlem67owQzuBjjuFKXrb2AdAxlEAUDtMf2jQUXXj5abk73dAPHZ51vHQAZRAFBzTP9oWItaFV1zpXWKEunOuynde4h1DGQMBQC1xfSPBhc+NlnhtCetY5QonnGO1MxuAPwLBQA1xfSPPMjmboC1FZ80zDoGMoQCgNph+kdOuE9mKbztz9YxSsQHHSK/zfbWMZARFADUTOam//F87h/VE024TcHbb1jHaM8FahvJbgAsRQFAbWRx+s/g17migSSJolGXSGnGdgNssrniw4+xjoEMoACgJpj+kUfBG68qfPAe6xglkmNPlv/ChtYxYIwCgOpj+keOFf78J7nPPrWO0Y5v6qbiyO9KzllHgSEKAKqO6R+5tqhVhWv+aJ2iRLr9Tkr2OcA6BgxRAFBdTP+Agsf/rvAfT1jHKFE849vSWn2sY8AIBQBVlb3p/yamf5iIxlwuLc7WbgCt1UfFk860TgEjFABUTyan//usYyCn3KezFI27zjpGiWToIUq338k6BgxQAFA1TP9Ae9E9t2dwN4BT8ewL5AtN1klQYxQAVAfTP1Aqq7sBNtpEyRHHWcdAjVEAUBVM/8DKBW+8qvD+CdYxSiRHnyi/4abWMVBDFABUHtM/sFqFG8fKzc7YboBCk4ojz2c3QI5QAFBxTP/AGixapMLYK6xTlEi320nJfgdax0CNUABQWUz/QIcEUx5V+NTj1jFKFE8fKb9WX+sYqAEKACoqc9P/bTcy/SOzMrkboPdaik8eZp0CNUABQOVkcfp/6H7rGMAqudmfqHDzNdYxSiT7H6x0h52tY6DKKACoGKZ/oPPCv96h4M3XrWO0x26AXKAAoDKY/oGuSVNFoy/O3m6ADTdWcuQJ1jFQRRQAVATTP9B1wZuvK7z3LusYJeKjTpDfiN0AjYoCgPIx/QNli24cKzfrY+sY7UUFFUdcwG6ABkUBQNmY/oHyuSWLFY25zDpGiXS7HZXsf7B1DFQBBQDlydr0P4fpH/UrfHqqwqmPWccoUTx1hHwfdgM0GgoAysL0D1RWNPr3UmuLdYz2mnsrPnW4dQpUGAUAXZfJ6Z+tf6hvbu5sFW651jpGieQrByndcRfrGKggCgC6LJPTf7HNOgZQtvCvdyl4/RXrGCXYDdBYKADomqxN/7M/YfpH4/CpCldeLMWxdZJ2/AYbKjn6ROsYqBAKALokc9P/7Tcz/aOhuHffVnjvndYxSsTfPF5+482sY6ACKADoPKZ/oCaim66Rm/WRdYz2ooLaRl7IboAGQAFApzH9A7Xh2paocNXvrWOU8AO3VzL0EOsYKBMFAJ3D9A/UVPDMVAVPPmodo0Tx5LPl+65tHQNloACgUzI3/Y+/iekfDa8w5nKpZaF1jPaamxWfNsI6BcpAAUDHZXH6f5itf2h8bu5sFW6+xjpGiWTfoUp22cM6BrqIAoAOY/oH7IT33a3gtZetY5SIh50n3627dQx0AQUAHcP0D9jyqQpXXpK93QD911dyzLesY6ALKADoEKZ/wJ57721Ff7ndOkaJ+BvHKt18S+sY6CQKANaM6R/IjPCW6xR8/KF1jPbCUPHwiyTHLaWe8LuFNcra9B+OZ+c/8su1LVGUwd0A6YCBig9iN0A9oQBg9TI4/YcPP2AdAzAVPPuUgsf/Zh2jRHzKcPm1+1nHQAdRALBaTP9ANhXG/iF7uwF69FTx9JHWKdBBFACsGtM/kFlu7mcq3DDWOkaJdO8hSnbd0zoGOoACgFVi+geyLXzwL3KvvmQdowS7AeoDBQArx/QPZJ9P1XTlpdnbDbBefyXHnmwdA2tAAcBKMf0D9cG9/7aiu8dbxygRH36M0i22to6B1aAAoBTTP1BXwnHXy3000zpGe2GoeMSFUsBtJqv4nUGJ7E3/NzD9A6vh2paoMCaDuwG23kbJwYdZx8AqUADQXtam/09nKXqI6R9Yk+DZfyh8bLJ1jBLFb50lv8661jGwEhQAtJO56f/2G6W4aB0DqAvR1X+QFmZwN8AZ51inwEpQAPAvTP9AXXNz5yi6cYx1jBLp4H2V7D7YOgY+hwKA5Zj+gfoXPXiv3PQXrWOUiM86V+rOboAsoQBgKaZ/oDH4VE2jLs1cefbr9ld83KnWMbACCgAkMf0DjcS9/46iCbdZxygRH3a00i3ZDZAVFAAw/QMNKLztBrkPM7YbIAgUj7iI3QAZwe8ClA7el+kfaDBLdwNcah2jRLrVAMWHHW0dA6IAwAUqHneKdYrl3CdM/0ClBM89rfCRSdYxSsTHfEtqbraOkXsUgJxLd9xZfuPNrGMsF95+A9M/UEHRNVdKCxdYx2ivZy/FX/umdYrcowDkXLLvUOsIy7lPZil6+EHrGEBDcfPmqvDn7O0GSIYeIjluQZb4fz/PnFO6867WKZZj+geqI5x0r4KXn7eO0Y5fr7/SAdtax8g1CkCO+XXWle/bzzqGpH++85/pH6gO71XI4G6AdPudrSPkGgUgx/yGG1tHWC4cz/QPVJOb8Z6iO2+xjtFOutmW1hFyjQKQY36tPtYRJDH9A7USjr9JbuYH1jH+pf/61glyjQKQZ1FknUDS0oUlTP9A9blimwpXXiJ5bx1FkuS7NVlHyDUKQJ4tXmydQG7Wx4om87l/oFaCl59T+PeJ1jEkSS5JrSPkGgUgx9yns6wj/HPrX2wdA8iV6NrR0oL51jGkObOtE+QaBSDHgpnvS6ldA2f6B2y4+XNVuH60dQwF775tHSHXKAB5tmiRgrffMLs80z9gJ3z4AQUv2e4GcNNfMr1+3lEAci6Y+rjJdd2nsxRN5p3/gBnvVRh9iVyxzeb6i1oVPDfN5tqQRAHIvfDvD0pJUvvr8s5/wJyb8b7CO2x2A4ST7rUrH5BEAcg998kshY9Pru01ee0fyIzwjpvlZrxf24sualU04bbaXhMlKABQdNM1cm1Lane9G8bw2j+QEa7YpsJVl9Z0N0Dhhj/JffZpza6HlaMAQG7WR4puuqYm1wqfekLhY5Nrci0AHRO8+JzCv0+qybXc9BcV3n9PTa6F1aMAQJIU3jNewZRHqnoN9+FMFa74VVWvAaBrCmMuk5v5XlWv4T6coabf/EzyLADKAgoAlvJehUv+T8ELz1bleDf7UzX9/AfSwoVVOR9AmRYtUtNvfiG1VOfPqPt0lpp+8u9yc+dU5Xx0HgUAy7limwr/858KKvyI3r37tpr+8wK5WR9V9FwAleXee1tNv/xPqbWlsudOf3Hpz4DZn1T0XJSHAoB2XLFNTZf8jwqjL5NbUuZ3BXiv8P4JavrheZlYOwxgzYLXXla3H54v9+GM8g/zqaK7xqnbj/9NbjZv+ssaV84/7IcMiVrCVj7M3aD82v2UHH+qkq8cKF/oxLd2ea/g+WcU3TRWwRuvVi8ggKrxTd0Un3SGkq99Q4oKnfyHvcJ/PKHo5mvkWPdbLXHzpKmd/I1pjwKANfJ9+irde38lu++l9IsDpe7dS39Rkih4920Fz0xV+MhDch+8W/ugACrO919f8aFHK91nf/k+fVf7a92sjxVMfUzh3x9U8JbdmvGcoACgxoJAvv8X5NdZV4oiKU3k5s2TPprJVi+gkQWB0s23VLr1QGn9DaSezUvfzb9gvtzHHyp481Wm/doquwBElUqCnEhTuY9myn000zoJgFpKUwVvvcFk30B4EyAAADlEAQAAIIcoAAAA5BAFAACAHKIAAACQQxQAAAByiAIAAEAOUQAAAMghCgAAADlEAQAAIIcoAAAA5BAFAACAHKIAAACQQxQAAAByiAIAAEAOUQAAAMihsgqAmzw5lhRXKAsAAOgAJy0u94xKPAFoqcAZAACgg7y0oNwzKlEAyg4BAAA6hQIAAEAOzS/3gLILgJfmlXsGAADoFPsC4OTfKfcMAADQKW+Xe0D5TwCce7XcMwAAQCc4lX3vLf8JQFp+CAAA0HEuCTJQAIJ0erlnAACAjksqcO8tuwD07OFfldRW7jkAAKBDWnvPTezfA+DuntbqpKnlngMAADrkETdtWrHcQyryXQCp/EOVOAcAAKyB06RKHFOZLwMKRAEAAKAGXBpkpwA09219QnwnAAAA1fZZz/2efLYSB1WkALhxL7VJ7p5KnAUAAFbOS7e7nyitxFmVeQlAkvPJtZU6CwAAlPLSdZU6q2IFoGe/LR6Q9GGlzgMAAO2803vS1EcrdVjlngCMG5fI+RsqdR4AAPgX73Stk3ylzqtYAZCkxAWjJSWVPBMAAKgtUjK2kgdWtAD0eXDK65IfV8kzAQDIOy9d12PitPcqeWZFC4AkeQU/lyrzDkUAAKAkDdyvKn1oxQtA70lTXvbSXZU+FwCAXHK6cekT9sqqeAGQJCf3E0lxNc4GACBHliTO/bwaB1elADRPmvK8nL+8GmcDAJAXXu5X1Zj+pSoVAElatKjpvyXNqNb5AAA0uHebe8b/V63Dq1YA1nvssQXe66JqnQ8AQCNzTt9xd09rrdb5VSsAktT7oanjnHRbNa8BAEADurbXxKl/qeYFqloAJKl1ceFMSa9W+zoAADSIVxctLpxX7Yu4al9AkhYO3WNHyT8pqUctrgcAQJ1q8XKDek+a8nK1L1T1JwDS0k8FeOe/V4trAQBQt7z7di1u/lKNCoAk9Z741B/l/G9qdT0AAOqJd/pp80NTrq/V9WryEsAyXnItQweNkXRmLa8LAECWeWlU70lTR9bymjV7AiBJTvK91tlsuJfuqOV1AQDIKi/d1bzOZt+p9XVr+gRgGX/4rj1bWsNbJR1qcX0AALLAyY/v2TTnW+7eN5bU+to1fQKwjLt7WmuvdTY7wktjLK4PAEAGjO2Z9DrB4uYvGT0BWMZLbuGBg37svH5smQMAgJpy+v+bJ079D9sIGdBy4O5ne+8uFXsCAAANzEkLvfzI5klP3ZCBLNmw4MA9t3VpequctrfOAgBAFbziw/S43g/840XrIJLRewBWpvfEJ19pTXsOllPNPgMJAEAteO+u6tUa7pqVm7+UoScAK1p40O5DlborJG1jnQUAgK5yTm946dzmiVPvt87yeZksAJLkBw/usbBX8gPn9QNJ3a3zAADQCYu806+aC5/9r9W7/NckswVgmXlDBm8dhsl/STpJUmSdBwCA1Wjz0nWRj37R46HH37UOszqZLwDLLDpgr80Sl3xX8sPFEwEAQLa0yemWOE1+2vehaW9ah+mIuikAy7QeMHgj7+Izvdwpkr5onQcAkGuvSO56JenVzZOf+sg6TGfUXQFYUevQQYO91yne6WhJ/a3zAABy4UPndZucv77XpKeesg7TVXVdAFa0+MDdt0wUHCj5A710oLzWts4EAKh/S5f3uCfl/UTn3cSeD0952kneOle5GqYArMj/RMHixwdtlqQaIO8GeucHOq/NvdTXeTXLqVlOfaxzAgAywGue5Bd4uYVOmufk3kqdn+5S92qo8NXuDz3+XiPc8AEAAAAAAAAAAAAAAAAAAAAAAAAAAAAAAAAAAAAAAAAAAAAAAAAAAAAAAAAAAAAAwJr9PwSQ6b7gjtA8AAAAAElFTkSuQmCC;" parent="164" vertex="1">
                    <mxGeometry x="590" y="210" width="70" height="70" as="geometry"/>
                </mxCell>
                <mxCell id="116" style="edgeStyle=none;html=1;entryX=0;entryY=0.5;entryDx=0;entryDy=0;" parent="164" source="111" target="160" edge="1">
                    <mxGeometry relative="1" as="geometry"/>
                </mxCell>
                <mxCell id="162" value="" style="shape=image;verticalLabelPosition=bottom;labelBackgroundColor=default;verticalAlign=top;aspect=fixed;imageAspect=0;image=data:image/png,iVBORw0KGgoAAAANSUhEUgAABAAAAAQACAMAAABIw9uxAAAABGdBTUEAALGPC/xhBQAAACBjSFJNAAB6JgAAgIQAAPoAAACA6AAAdTAAAOpgAAA6mAAAF3CculE8AAAC5VBMVEUAAAD/mTP4liH5mCD2lx73lx/3mCD4mR/3lx/3mB/4mR/3mB/3mB74mCD3lx/4mB74mSD3lx/2lxz/mSL4lh32mR/3mB/3mB/3mCD2liD/gADxnBz3lx/3mB/3mR/4mB///wD4mh/4mB/3mB/3mB/4mR/4miL/gAD4mB73mB/3mB/2mB/1mB32mCD3mB/3mB/2mSD5mB74lRz3mB/2lyD/nSf/kiT3lx/3mB/3mB73lCH3mB/3mR//jhz1mSD4mB/4mB/4mB/3mB/4mh7/qgD3mB/2lyD/mRr3mB/2mB/3mB/2lyD3mCD3lyD2mCD2mSD3mB/1mh33mB/vnyD3mB/4mB/2mCD3mB/wlh72mB/3mR/2mSD2mxv3mCD3mCHymRr3mB/3mB73lx72mB//qiv3mB/2lx//lRX3lx7ylBv3mCD3mCD3mB/4mCD4mB/3mB73mR/3mB/3mB71kx33mB/1lh72lx73mB/2mB/3mR/3lx/3mR/2lx76mCH3lx/2mh/3lx/0miD2mB/4mCD3mB73mR/4lyD3mB/3mB/3mB/3mB/3lh33mSL3lx/5lR/4mB/3mB/3mB73mB/4lh73mB/3mB//kiT2lSP3mB73mB/3mB/3mB/3mB/3mB/3mR70myH3mR/2mCD3lx//nyD2mR75mSD2mB73mR/5liH4mR73lyD4mB72mB73mB/0lSD4mB75mh73lyD3mR72mB/4mB/4mR33mB/2mB/1mR/3mR/1mR/3lx/3mSD2lyH3mB/2lx/2mB/4lx73mR/3mB/3lx73mB/2mB72mR/4mB/2mB/4mB73mB73lyD4mB/3lx7/ohf4mR/4lx/3mB73mR75lx33mB/4mSD5mRz3mB/4mB/3mx/3mCD4mBz3mB/3mCD3mB/3mB/zlyP4mSH3mB73mR/3mB/1lx/3lyD4lx/3mCD3mB74mCD2mR/4mR73miD3mB/3lx/3mB74mB/3lx/3mB/3mB////8TVTdfAAAA9XRSTlMABSdPdpahrLvIzMO4qpuPaUIbD07R+/J5OAQSxfynSgFJrfjnjiYCTcv9szRX2P6xKiT6kQ0HhfniH8eiCVDuzorxRAOcWAq0dLxxqWCQcPM11BDeq1npEZWENxzCPhT0uYc5BuxTDF0TumHjiK9c1oOoGtUzO+vQnbZ9Vi97OuUwUkheZEft5PD2PR7AKYua2nwi3MQOHZe+5vfdpn8X27JbCFUoVEEuZiBvd70YRSuAPO+NI+hyGVoy6l8201GSTHq3ZaOwdWqUbcnKrqALa2xDmCzXiS2kzSGZJeHS9d8WRobgtTFAjIHBaHNuP9lin8+lnr3a9iUAAAABYktHRPbc20phAAAAB3RJTUUH5gcXDRY4T2V/EwAAFkBJREFUeNrt3fmb1XUZx+GDSCiCqCzqIDaIOTjIDLI5ELggCmIoSCg5KoTgCoohmiUCSbLmHolggmRKMCooLuBSWeaSu2kumJq2m23+nlZe5dX3nDmz6DXn89z3fzB9nvermDkz5XIAAAAAAAAAAAAAAAAAAAAAAAAAAAAAAAAAAAAAAAAAAAAAAAAAAAAAAAAAAAAAAAAAAAAAAAAAAAAAAAAAAAAAAAAAAAAAAAAAAAAA8ClotV3r7dt8pu0OO7ajZdmpfYedO+6y625ulE9Ip84du3R9n5Zt9x322LPMsdLMuu2yV3frKpUI7P1ZDaD5lPfYp6dZlZR9P7efu6VZVPTa36BKT2XvA9wuTdenyphKU3XfA50vTdOvvSGVrv4DBjphGm/QQTVWVNIGt3bFNNaQz1tQyRs6zCHTKAcfYj4JOLSfU6YRP/s7zHbSMPxw10xDjTjCclJRc6R7pmFGjrKbhH4geJSLpkHf/h9tNUk52k1TvIovmExi/xtgjKumaMdYTGr693DWFOlYe0nPWJ8LpjjjfPwvRceNdNoUYfwXjSVJR7htijDBVBJ1vOOmXj0MJVUnTHTe1GOYfwCk60vum3qcaCbpqqx14BR0kj/+l7KTXTgFDTCSpJ3ixClg0mQbSdqX3TgFTDGRxJ3qyMlr6jQLSdxQV05epxlI6iaf7szJp6+BJO8MZ04eZ/otoPSd5c7J42zzSF/38Q6dbEPNI4DODp1s060jgI4OnUz7GUcEXVw6mcYYRwTVnZw6WWYYRwjjnDpZzrGNEM516mSZaRshnOfUyVDhY0AxfMWtk2GgacTgs4BkmWUaMezo1smwnWnEcL5bJ8Ns04hhsFsnwwWmEcOFbh0BEAAQAAEAARAABAABQAAQAAQAAUAAEAAEAAFAABAABAABQAAQAAQAAUAAEAAEAAFAABAABAABQAAQAAQAAUAAEAAEAAFAABAABAABQAAQAAQAAUAAEAAEAAFAABAABAABQAAQAAQAAUAAEAAEAAFAABAABAABQAAQAAQAAUAABAAEQABAAAQABEAAEAAEAAFAABAABAABQAAQAAQAAUAAEAAEAAFAABAABAABQAAQAAQAAUAAEAAEAAFAABAABAABQAAQAAQAAUAAEAAEAAFAABAABAABQAAQAAQAAUAAEAAEAAFAABAABAABQAAQAAQAAUAAEAAEAAFAABAABAABEAAQAAEAARAAEAABQAAQAAQAAUAAEAAEAAFAABAABAABQAAQAAQAAUAAEAAEAAFAABAABAABQAAQAAQAAUAAEAAEAAFAABAABAABQAAQAAQAAUAAEAAEAAFAABAABAABQAAQAAQAASB4AKqnf3WvszpQvIvcOkkEYOzXvn7xnGFeDuIFYP9L5pZ5NIgYgHkD5nswiBmAdt+o8FwQMwA7XeqtIGgA5i3wUhA0AF0HDPRQEDQAVXM8E0QNQNtOXgmCBqDmm94IogZg8mWeCKIGYOGeXgiiBmDRfh4IogZgsW//Q9gALFnqeSBqACo7ex0IG4ATPQ6EDcDJfu8fwgZg4TJvA2EDcLyngbAB+Fa5p4GoAai53MtA2ADM8DAQNgCTJ3kYCBuAK7wLhA1Az1neBcIG4ErPAnEDcKpngbABuKrcs0DYAFztVSBuAK7xKhA2ANd6FIgbgCs9CsQNgN8DhMAB8CkgiBuAC70JxA3At5v5C1w+kZbF33oTgAIuap6v6zs9jr5uxVXXD3+fFmfltFXtbvhun/kjzE8A/s/2Tf+abjz+ytVm1vINX3P0/HITFICPuamJX9Da7/XualslY/CMfkYoAP+jaf93IDcfsbtRlZbqk79fYYcC8JFbmvDF3Dq0u0GVoGvX+cagAPzHuEZ/KT84p9qWSjUBrU1RAP7lwEZ+Ia3Wj7WjEjZ6O2MUgA/c3Livo7bKhkrbkg2+FSAAjQxA+foaCyp5dbfZowA0JgCdJlhPCk643SAFoBHf/fM//xPR/ZsWKQANdcd0y0lF9UaTFICG2XSn3STkrnKjFICGfPjH/tMyxSgFoHib7zaZxNxjlQJQrHu/aDCpqbzPLAWgOGU72Ut6em6xSwEoygxrSdHq5YYpAEW4tNJYkvQFwxSA+p251VQSdb9lCkC9djaUVE2bZJoCUI9x/gGQrutMUwAKG3GomaSr8gHbFICCbrKSlI22TQEopPxBI0naXOMUgAIeMpG0rTFOAShgfxNJW/Wt1ikAec22kNT90DoFIK9jDCR106aapwDkUea3gNPX2TwFII8fmUf6JpinAORxnXmkb/dW9ikA2fwd4Aj2tE8ByHSvcUTwY/sUgEznGkcEO9inAPghYFyL7VMAMj1sHCHcaKACkMXfAo7hFAMVgAyDuttGCD8xUAHIsJ1pxOD/JUgAsjxgGjG0MVAByLCracTwUwMVgAytTSOGRwxUADL4c4BB1BmoAGQYYxoxnGygAiAAAoAACIAAIAACIAAIAAKAACAACAACgAAgAAgAAoAAIAAIAAKAACAACAACgAAgAAgAAiAAAoAACIAAIAACIAAIgAAIAAIgAAKAAAiAACAAAiAACIAACAACIAACgAAIgAAgAAIgAAiAAAgAAiAAAoAACIAAIAACIAAIgAAIAAIgAAKAAAiAACAAAiAACIAACAACIAACgAAIgAAgAAIgAAKAAAiAACAAAiAACIAACAACgAAgAAgAAoAAIAAIAAKAACAACAACgAAgAAgAAoAAIAAIAAKAAAiAACAAAiAACIAACAACIAACgAAIgAAgAAIgAAiAAAgAAiAAAoAACIAAIAACIAAIgAAIAAIgAAKAAAiAACAAAiAACIAACAACIAACgAAIgAAgAAIgAAiAAAgAAiAAAoAACIAAIAACIAAIgAAIgAAgAAIgAAiAAAgAAiAAAoAAIAAIAAKAACAACAACgAAgAAgAAoAAIAAIAAKAACAACAACgAAgAAIgAAiAAAgAAiAAAoAACIAAIAACIAAIgAAIAAIgAAKAAAiAACAAAiAACIAACAACIAACgAAIgAAgAAIgAAiAAAgAAiAAAoAACEDsAMxbcdEVG3+2juJ1NlABSCEAF7Z99IDljg0BCBiAqkvmVDg0BCBiAO58rNaRIQAxA7B143gnhgDEDMC+jw9zYAhAzABUDj3TeSEAQQPwxBbHhQAEDUD1gFZuCwEIGoCtPVwWAhA1AD+f5bAQgKgBqPOhPwQgbACeXOusEICoAXjK534RgLAB6F3mqBCAqAHY8Wk3hQBEDcC1E50UAhA1AD1nuygEIGwAnnFQCEDYAOzjnhCAsAEY7gOACEDcADzrnBCAsAHo4hMACEDcAGxyTQhA2ACscEwIQNwAPOeYEICwAXjCLSEAcQPQxy0hAGEDsNhfAEcA4gbgeaeEAMQNwAVOCQEIG4BF5U4JAQgbgKEuCQGIG4CzXRICEDcAP3BJCEDYAAx2SAhA3AC0d0gIQNwAHOOQEIC4AdilOZ9k+Qu1h5+2YB0ty5E/umX2NWUCIACf4G8C3rzL8yuuf58Wq/8vznnx4IkCIAAf91Jz/Bf//b+0/ZJQ+fIVS8sFQAD+65WmPkPFplfHWlYJGTzjNQEQgI9MatojDHt2m0mVmuqHNwmAAPzboKY8wcDt7zankvSt2wVAAD78R2FTXqDXYEsqWXU3C4AANCUAr7W3olJWM2OtAAhAY//TL7+nxoZKXNUcARCAxuk0wX5K38r1AiAAjTHO9/7TcMNIARCABntud9NJxBOTBEAAGui+/oaTjJnfEQABaJBHq80mIds2C4AANMDxlUaTlFW3CYAAFP/v/54mk5jXxwuAABRptt/8SU9dmQAIQFHGrzKXBE0RAAEoyg3GkqLqzgIgAEV41lbStHCZAAhAvYb8ylQS9bAACEC9ehtKsloLgADU4yEzSde2pwVAAApa6zeAUnaiAAhAQc8YScomTxIAASig1RtGkrSNAiAABZxtImlb3EkABCC/mSaSuHsEQADyOtVAUnecAAhAXm0MJHnzBUAA8pg6zT6Sd5cACEAerc0jffuWC4AAZHvMPAJ4SQAEINv51hHAegEQgExv+kOgETwiAAKQqY9xRLC4QgAEIMtBxhHCEAEQgCxtbSOEtwRAALI8aBshPC4AApChYqVthPCYAAhA1g8BTCOGcwRAADJsNo0YRguAAGSYYxoxPCEAApBhk2nEMFMABCDDZaYRw2ABEIAMPUwjhkUCIAACIAACIAACIAACIAACIAACIAAIgAAIAAIgAAKAAAiAACAAAiAACIAACAACIAACgAAIgAAgAAIgAAiAAAgAAiAAAoAACIAAIAACIAAIgAAIAAIgAAKAAAiAACAAAiAACIAACAACIAACgAAIgAAgAAIgAAiAAAgAAiAAAoAACIAAIAACIAAIgAAIAAIgAAKAAAiAACAAAiAACIAACAACIAACgAAIgAAgAAIgAAiAAAiAAJSOWgEQAOIG4A4BEADiBmCIAAgAcQPQTQAEgLgBaFUtAAJA2ADkFgmAABA3AHUCIADEDUAbARAA4gZgvQAIAHEDsFQABIC4AZg6WQAEgLAByJ0lAAJA3ADsIQACQNwAzBcAASBuAHKvC4AAEDcA2wuAABA3ALO6C4AAEDYAuTUCIADEDUCtAAgAcQOQWyEAAkDcADwnAAJA3ADkRguAABA3AK/1FAABIGwAcr8WAAEgbgBGviEAAkDYAORq+wuAABA2ALkNAiAAxA1AeV8BEADCBiDXbaYACABhA5Db7W0BEADCBiB34EIBEADCBiBXu1AABICwAchdvk0ABICwAcjNel0ABICwAch1WyMAAkDYAOTK19cIgAAQNQC5XO1qARAAwgYgN3XDSgEQAKIGIJfb/I4ACABhA5DLze1dLQACQNQA5HK/6VAjAAJA1ADkcuMX7FAtAAJA0AB8+M2AZ9pOEwABIGgAPlAx/+wpT54/VgAEgIgB+OgDQhOXHTj7U7BWABAABAABQAAQAAQAAUAAEAAEAAEQAAFAAARAABAAARAABEAABAABEAABQAAEQAAQAAEQAARAAAQAARAAAUAABEAAEAABEAAEQAAEAAEQAAFAAARAABAAARAABEAABAABEAABQAAEQAAQAAEQAARAAAQAARAAAUAABEAAEAABEAABQAAEQAAQAAEQAARAAAQAAUAAEAAEAAFAABAABAABQAAQAAQAAUAAEAAEAAFAABAABEAABAABEAABQAAEQAAQAAEQAARAAAQAARAAAUAABEAAEAABEAAEQAAEAAEQAAFAAARAABAAARAABEAABAABEAABQAAEQAAQAAEQAARAAAQAARAAAUAABEAAEAABEAAEQAAEAAEQAAFAAARAABAAARAAAUAABEAAEAABEAAEQAAEAAFAABAABAABQAAQAAQAAUAAEAAEAAFAABAABAABQAAQAARAAAQAARAAAUAABEAAEAABEAAEQAAEAAEQAAFAAARAABAAARAABEAABAABEAABQAAEQAAQAAEQAARAAAQAARAAAUAABEAAEAABEAAEQAAEAAEQAAFAAARAABAAARAABEAABAABEAABQAAEQAAQAAEQAAFAAARAABAAARAABMA0BAABQAAQAAQAAUAAEAAEAAFAABAABAABQAAQAAQAAUAAEAAEQAAEAAEQAAFAAARAABAAARAABEAABAABEAABQAAEQAAQAAEQAARAAAQAARAAAUAABEAAEAABEAAEQAAEAAEQAAFAAARAABAAARAABEAABAABEAABQAAEQAAQAAEQAARAAAQAARAAAUAABEAABMBEBUAABAABEAABQAAEQABoNvcJAAIQVy8BQADi+q0AIABxzRYABCCuzQKAAMRV1l8AEIC4qgQAAYirrwAgAHG9KAAIQFwPCQACEFe3SgFAAOJ6WQAQgLh+JwAIQFxLBQABiKt8lQAgAHH9XgAQgLj6VQsAAhBXewFAAOI6VQAQgMD+IAAIQFxvCQACENg7AoAABP5BwEoBQAB8FkAAEICAhlUJAAIQ10tLBAABiOuPAoAABLa3ACAAgb8NsJMAIABxdeoiAAhAXLu9LQAIQFyvXCUACEBcN74sAAhAXMtXCAACEFfZxkoBQADiOvxuAUAA4jpplAAgAIH1ekMAEIC4nj5orAAgAIF/HLBhoQAgAIET8KfjBAABCGxLx30FAAEI7Jp1HQ4RAAQgropXLnu3zSOj21Wt+hSsFgAEAAFAABAAAQABEAAQAAEAARAABAABQAAQAAQAAUAAEAAEAAFAABAABAABQAAQAAQAAUAAEAAEAAFAABAABAABQAAQAAQAAUAAEAAEAAFAABAABAABQAAQAAQAAUAAEAAEAAFAABAABAABQAAQAAQAAUAAEAAEAAFAABAABAABQAAQAAQAAUAABAAEQABAAAQABEAAEAAEAAFAABAABAABQAAQAAQAAUAAEAAEAAFAABAABAABQAAQAAQAAUAAEAAEAAFAABAABAABQAAQAAQAAUAAEAAEAAFAABAABAABQAAQAAQAAUAAEAAEAAFAABAABAABQAAQAAQAAUAAEAAEAAFAABAABAABEAAQAAEAARAAEAABQAAQAAQAAUAAEAAEAAFAABAABAABQAAQAAQAAUAAEAAEAAFAABAABAABQAAQAAQAAUAAEAAEAAFAABAABAABQAAQAAQAAUAAEAAEAAFAABAABAABQAAQAAQAAUAAEAAEAAFAABAABAABQAAQAAQAAUAAEAAEQABAAAQABEAAQAAEAAFAABAABAABQAAQAAQAAUAAEAAEAAFAABAABAABQAAQAAQAAUAAEAAEAAFAABAABAABQAAQAAQAAUAAEAAEAAFAABAABAABQAAQAAQAAUAAEAAEAAFAABAABIBmcalpxDDdrZPhz6YRw3tunQxbTCOG/d06GV4zjRhWuHUy3GsaMfR162SY2tU2QtjZrZNltW2EcJRTJ8so2wihl1Mny122EcJ+Tp0sf7GNCFa2cur4OWBYdS6dbNusI4CrHTrZPmMdAcx16GRbYB3pG+5bAOTRaYl9JO8pd04+Hewjec85c/LpZR+pWzTCmZNP2d0Wkrgprpz8LrGQtPVf5sjJb/mdNpK05904hZxnIynr3s+JU8ik4VaSsL+6cAo71krSNXyWA6ewEX+zk2S9676pz9xqQ0nU62XOm3r90FLS1HO246Z+g9rZSpIed9sUY/NiY0nQmnKnTVFOqzSX5Kwe77Ap0qP2kpqt/hQoxZtiMYl9AmCLo6Z45UfYTEqW3OKmaVABDrOadNy51EXTQOt9ICgV189xzjTYmJWmk4QuQxwzjXDH+caTgKEjnTKNMvDv5lPqxt7kjmm0PvNMqKSNusYR0wRPb6yxopK1aIELpolemOCDwaVp6x7+9U8z2PxqV2sqOSdsMH+aybKr37OoUtJ1VJ9BzpZmVDugyq5Kw8q69W86WJrdrDP+0W6sfbVo0+tO3HWtU+UTs9uuY57dY0abV2lZOp63Yd3FW053oAAAAAAAAAAAAAAAAAAAAAAAAAAAAAAAAAAAAAAAAAAAAAAAAAAAAAAAAAAAAAAAAAAAAAAAAAAAAAAAAAAAAAAAAAAAAAAAAAAAfMr+CQ+1QQz8lOnBAAAAJXRFWHRkYXRlOmNyZWF0ZQAyMDIyLTA3LTIzVDEzOjIyOjU2KzAwOjAwwmrfFgAAACV0RVh0ZGF0ZTptb2RpZnkAMjAyMi0wNy0yM1QxMzoyMjo1NiswMDowMLM3Z6oAAAAASUVORK5CYII=;" parent="164" vertex="1">
                    <mxGeometry x="405" y="295" width="50" height="50" as="geometry"/>
                </mxCell>
            </root>
        </mxGraphModel>
    </diagram>
</mxfile>